M48
METRIC,TZ
T1C.701
T2C.899
T3C1.016
T4C1.999
T5C.500
%
M47, File: cdio.ncd
M71
G90
G05
T1
X1765300Y558800
Y584200
Y609600
Y533400
T2
X1727200Y622300
Y520700
T3
X712470Y1003300
Y977900
Y952500
Y927100
Y901700
Y876300
Y850900
Y825500
Y800100
Y774700
Y749300
Y723900
Y698500
Y673100
Y647700
Y622300
Y596900
Y571500
Y546100
Y520700
X838200Y381000
X863600
X889000
X914400
X939800
X965200
X990600
X1016000
X1041400
X1066800
Y457200
X1041400
X1016000
X990600
X965200
X939800
X838200
X863600
X889000
X914400
X864870Y520700
X1002030
X864870Y546100
Y571500
Y596900
Y622300
Y647700
X1002030
Y622300
Y596900
Y571500
Y546100
X864870Y673100
Y698500
Y723900
Y749300
Y774700
Y800100
X1002030
Y774700
Y749300
Y723900
Y698500
Y673100
X864870Y927100
Y901700
Y876300
Y850900
Y825500
X1002030Y927100
Y901700
Y876300
Y850900
Y825500
X864870Y1003300
Y977900
Y952500
X1002030Y1003300
Y977900
Y952500
X1154430Y1003300
Y977900
Y952500
Y927100
Y800100
Y901700
Y876300
Y850900
Y825500
Y673100
Y698500
Y723900
Y749300
Y774700
Y520700
Y546100
Y571500
Y596900
Y622300
Y647700
X1117600Y457200
X1092200
Y381000
X1117600
T4
X1718310Y939800
Y990600
X1805940Y939800
X1718310Y889000
Y781050
Y831850
X1805940Y781050
X1718310Y730250
T5
X449580Y373380
X368300Y528320
X453390Y430530
X279400Y436880
X453390Y476250
X394970Y558800
X415290Y562610
X330200Y547370
X342900Y537210
X458470Y647700
X520700Y603250
X379730Y556260
X359410
X374650Y567690
X283210Y605790
Y533400
X265430Y568960
X454660Y579120
X472440Y599440
X361950Y732790
X375920
X389890
X398780Y720090
X407670Y689610
X422910Y725170
X455930Y736600
X417830Y746760
X468630Y750570
X505460Y726440
X300990Y781050
X439420Y758190
X496570Y768350
X495300Y713740
X454660Y704850
X459740Y723900
X524510Y892810
Y924560
X528320Y875030
X335280Y876300
X532130Y942340
X433070Y949960
X441960Y990600
X640080Y951230
X651510Y972820
X561340Y960120
X627380Y948690
X795020Y1028700
X546100Y927100
X537210Y1010920
X542290Y905510
X791210Y864870
X557530Y868680
X553720Y838200
X541020Y835660
X648970Y844550
X618490Y825500
X540512Y877824
X648970Y825500
X551180Y749300
X565150Y726440
X537210Y758190
X764540Y722630
X782320Y749300
X576580Y746760
X542290Y679450
X567690Y704850
X613410Y654050
X541020Y607060
X557530Y617220
X568960Y492760
X745490Y403860
X721360Y421640
X676910Y427990
X669290Y466090
X662940Y349250
X796290Y356870
X563880Y373380
X901700Y340360
X876300
X1055370Y445770
X833120Y518160
X811530
X901700Y403860
X876300
X1032510Y624840
X947420Y645160
X937260Y637540
X924560Y627380
X880110Y648970
X904240Y615950
X887730Y637540
X918210Y673100
X932180Y685800
X958850Y774700
X969010Y722630
Y1027430
X937260Y1052830
X829310Y1051560
X1111250Y999490
X1097280Y1004570
X1087120Y985520
X1135380Y927100
X1328420Y1000760
X1303020Y908050
X1230630Y897890
X1309370Y737870
X1342390Y685800
Y664210
X1132840Y736600
X1277620Y698500
X1322070Y654050
X1271270Y562610
X1172210Y643890
X1277620Y585470
X1233170Y551180
X1294130Y386080
Y426720
X1324610Y511810
X1244600Y351790
X1270000
X1587500Y361950
X1525270Y381000
X1568450Y426720
X1410970Y485140
X1479550Y605790
X1484630Y626110
X1423670Y539750
X1369060Y579120
X1367790Y629920
X1620520Y626110
X1536700Y709930
X1499870Y720090
X1440180Y741680
Y708660
Y770890
X1414780Y822960
X1527810Y895350
X1549400Y847090
X1407160Y843280
X1529080Y920750
X1395730Y933450
X1355090Y908050
X1357630Y857250
X1623060Y920750
X1357630Y971550
X1423670Y985520
X1437640Y1005840
X1518920Y960120
X1529080Y991870
X1623060Y977900
X1659890Y966470
X1645920Y781050
X1638300Y635000
X1645920Y389890
M30
