G04 Inner_2 *
G04 Layout PcMotherBoard.pcb *
G04 Designed with PCB elegance 3.50 *
G04 *
G04 *
%FSLAX34Y34*%
%MOMM*%
G75*
G01*
%IPNEG*%
%AMTHERMAL*
7,0.0,0.0,$1,$2,$3,0*%
%ADD100C,0.2032*%
%ADD200C,4.3180*%
%ADD201C,2.0828*%
%ADD202C,2.5400*%
%ADD203C,2.6924*%
%ADD204C,2.0066*%
%ADD205C,1.6256*%
%ADD206C,2.7178*%
%ADD207C,2.1844*%
%ADD208C,2.7686*%
%ADD209C,1.5748*%
%ADD210C,2.6416*%
%ADD211C,1.4732*%
%ADD650THERMAL,1.0160X0.6096X0.2032*%
%ADD651THERMAL,1.4224X1.0160X0.2032*%
%ADD652THERMAL,1.5494X1.1430X0.2032*%
%ADD653THERMAL,2.0066X1.6002X0.2032*%
%ADD654THERMAL,1.3208X0.9144X0.2032*%
%ADD655THERMAL,1.5240X1.1176X0.2032*%
%ADD656THERMAL,1.0668X0.6604X0.2032*%
%LPD*%G36*
X228600Y228600D02*
Y2489454D01*
X3129280D01*
Y228600D01*
X228600D01*
G37*
%LPC*%G36*
X279400Y2438654D02*
X3078480D01*
Y279400D01*
X279400D01*
Y2438654D01*
G37*
%LPD*%
G54D650*
X398780Y458470D03*
X382270Y474980D03*
X354330D03*
X337820Y458470D03*
Y430530D03*
X354330Y414020D03*
X382270D03*
X398780Y430530D03*
X347980Y318770D03*
X331470Y335280D03*
X303530D03*
X287020Y318770D03*
Y290830D03*
X303530Y274320D03*
X331470D03*
X347980Y290830D03*
X398780Y1677670D03*
X382270Y1694180D03*
X354330D03*
X337820Y1677670D03*
Y1649730D03*
X354330Y1633220D03*
X382270D03*
X398780Y1649730D03*
X410210Y2331720D03*
X393700Y2348230D03*
X365760D03*
X349250Y2331720D03*
Y2303780D03*
X365760Y2287270D03*
X393700D03*
X410210Y2303780D03*
X1943100Y1781810D03*
X1926590Y1798320D03*
X1898650D03*
X1882140Y1781810D03*
Y1753870D03*
X1898650Y1737360D03*
X1926590D03*
X1943100Y1753870D03*
X1986280Y439420D03*
X1969770Y455930D03*
X1941830D03*
X1925320Y439420D03*
Y411480D03*
X1941830Y394970D03*
X1969770D03*
X1986280Y411480D03*
G54D200*
X368300Y444500D03*
X317500Y304800D03*
X368300Y1663700D03*
X379730Y2317750D03*
X1912620Y1767840D03*
X1955800Y425450D03*
G54D201*
X515620Y350520D03*
X541020D03*
X566420D03*
X591820D03*
X617220D03*
X642620D03*
X668020D03*
X693420D03*
X718820D03*
X541020Y299720D03*
X566420D03*
X591820D03*
X617220D03*
X642620D03*
X668020D03*
X693420D03*
X718820D03*
X515620Y553720D03*
X541020D03*
X566420D03*
X591820D03*
X617220D03*
X642620D03*
X668020D03*
X693420D03*
X718820D03*
X541020Y502920D03*
X566420D03*
X591820D03*
X617220D03*
X642620D03*
X668020D03*
X693420D03*
X718820D03*
X351790Y731520D03*
X326390D03*
X300990D03*
X515620Y756920D03*
X541020D03*
X566420D03*
X591820D03*
X617220D03*
X642620D03*
X668020D03*
X693420D03*
X718820D03*
X541020Y706120D03*
X566420D03*
X591820D03*
X617220D03*
X642620D03*
X668020D03*
X693420D03*
X718820D03*
X358140Y1257300D03*
Y1282700D03*
Y1308100D03*
Y1333500D03*
X387350Y1442720D03*
Y1468120D03*
Y1493520D03*
Y1518920D03*
X669290Y1793240D03*
Y1767840D03*
X643890Y1793240D03*
Y1767840D03*
X618490Y1793240D03*
Y1767840D03*
X593090Y1793240D03*
Y1767840D03*
X567690D03*
X474980Y1793240D03*
Y1767840D03*
X449580Y1793240D03*
Y1767840D03*
X424180Y1793240D03*
Y1767840D03*
X398780Y1793240D03*
Y1767840D03*
X373380D03*
X1131570Y1813560D03*
Y1788160D03*
X1106170Y1813560D03*
Y1788160D03*
X1080770Y1813560D03*
Y1788160D03*
X1055370Y1813560D03*
Y1788160D03*
X1029970Y1813560D03*
Y1788160D03*
X1004570Y1813560D03*
Y1788160D03*
X979170Y1813560D03*
Y1788160D03*
X953770Y1813560D03*
Y1788160D03*
X928370Y1813560D03*
X826770Y1788160D03*
X758190Y1697990D03*
X783590D03*
X808990Y1672590D03*
Y1697990D03*
X834390D03*
X859790D03*
X885190D03*
X910590D03*
X935990D03*
X961390D03*
X986790D03*
X1012190D03*
X1037590D03*
X1062990D03*
X1088390D03*
X1113790D03*
X1139190D03*
X1164590D03*
X744220Y756920D03*
X769620D03*
X795020D03*
X820420D03*
X845820D03*
X871220D03*
X896620D03*
X922020D03*
X947420D03*
X972820D03*
X998220D03*
X1023620D03*
X1049020D03*
X1074420D03*
X1099820D03*
X1125220D03*
X1150620D03*
X1176020D03*
X1201420D03*
X769620Y706120D03*
X795020D03*
X820420D03*
X845820D03*
X871220D03*
X896620D03*
X922020D03*
X947420D03*
X972820D03*
X998220D03*
X1023620D03*
X1049020D03*
X1074420D03*
X1099820D03*
X1125220D03*
X1150620D03*
X1176020D03*
X1201420D03*
X744220Y350520D03*
X769620D03*
X795020D03*
X820420D03*
X845820D03*
X871220D03*
X896620D03*
X922020D03*
X947420D03*
X972820D03*
X998220D03*
X1023620D03*
X1049020D03*
X1074420D03*
X1099820D03*
X1125220D03*
X1150620D03*
X1176020D03*
X1201420D03*
X769620Y299720D03*
X795020D03*
X820420D03*
X845820D03*
X871220D03*
X896620D03*
X922020D03*
X947420D03*
X972820D03*
X998220D03*
X1023620D03*
X1049020D03*
X1074420D03*
X1099820D03*
X1125220D03*
X1150620D03*
X1176020D03*
X1201420D03*
X744220Y553720D03*
X769620D03*
X795020D03*
X820420D03*
X845820D03*
X871220D03*
X896620D03*
X922020D03*
X947420D03*
X972820D03*
X998220D03*
X1023620D03*
X1049020D03*
X1074420D03*
X1099820D03*
X1125220D03*
X1150620D03*
X1176020D03*
X1201420D03*
X769620Y502920D03*
X795020D03*
X820420D03*
X845820D03*
X871220D03*
X896620D03*
X922020D03*
X947420D03*
X972820D03*
X998220D03*
X1023620D03*
X1049020D03*
X1074420D03*
X1099820D03*
X1125220D03*
X1150620D03*
X1176020D03*
X1201420D03*
X1226820Y350520D03*
X1252220D03*
X1277620D03*
X1226820Y299720D03*
X1252220D03*
X1379220Y350520D03*
X1404620D03*
X1430020D03*
X1455420D03*
X1480820D03*
X1506220D03*
X1531620D03*
X1557020D03*
X1582420D03*
X1607820D03*
X1633220D03*
X1658620D03*
X1684020D03*
X1379220Y299720D03*
X1404620D03*
X1430020D03*
X1455420D03*
X1480820D03*
X1506220D03*
X1531620D03*
X1557020D03*
X1582420D03*
X1607820D03*
X1633220D03*
X1658620D03*
X1684020D03*
X1226820Y553720D03*
X1252220D03*
X1277620D03*
X1226820Y502920D03*
X1252220D03*
X1379220Y553720D03*
X1404620D03*
X1430020D03*
X1455420D03*
X1480820D03*
X1506220D03*
X1531620D03*
X1557020D03*
X1582420D03*
X1607820D03*
X1633220D03*
X1658620D03*
X1684020D03*
X1379220Y502920D03*
X1404620D03*
X1430020D03*
X1455420D03*
X1480820D03*
X1506220D03*
X1531620D03*
X1557020D03*
X1582420D03*
X1607820D03*
X1633220D03*
X1658620D03*
X1684020D03*
X1226820Y756920D03*
X1252220D03*
X1277620D03*
X1226820Y706120D03*
X1252220D03*
X1379220Y756920D03*
X1404620D03*
X1430020D03*
X1455420D03*
X1480820D03*
X1506220D03*
X1531620D03*
X1557020D03*
X1582420D03*
X1607820D03*
X1633220D03*
X1658620D03*
X1684020D03*
X1379220Y706120D03*
X1404620D03*
X1430020D03*
X1455420D03*
X1480820D03*
X1506220D03*
X1531620D03*
X1557020D03*
X1582420D03*
X1607820D03*
X1633220D03*
X1658620D03*
X1684020D03*
X1228090Y1644650D03*
X1253490D03*
Y1670050D03*
X1278890Y1644650D03*
Y1670050D03*
X1304290Y1644650D03*
Y1670050D03*
X1329690Y1644650D03*
Y1670050D03*
X1355090Y1644650D03*
Y1670050D03*
X1380490Y1644650D03*
Y1670050D03*
X1405890Y1644650D03*
Y1670050D03*
X1431290Y1644650D03*
Y1670050D03*
X1456690D03*
X1482090Y1644650D03*
X1507490D03*
X1532890D03*
X1558290D03*
Y1670050D03*
X1583690Y1644650D03*
X1609090D03*
Y1670050D03*
X1634490Y1644650D03*
Y1670050D03*
X1659890Y1644650D03*
Y1670050D03*
X1685290Y1644650D03*
Y1670050D03*
X1228090Y1836420D03*
X1253490D03*
Y1861820D03*
X1278890Y1836420D03*
Y1861820D03*
X1304290Y1836420D03*
Y1861820D03*
X1329690Y1836420D03*
Y1861820D03*
X1355090Y1836420D03*
Y1861820D03*
X1380490Y1836420D03*
Y1861820D03*
X1405890Y1836420D03*
Y1861820D03*
X1431290Y1836420D03*
Y1861820D03*
X1456690D03*
X1482090Y1836420D03*
X1507490D03*
X1532890D03*
X1558290D03*
Y1861820D03*
X1583690Y1836420D03*
X1609090D03*
Y1861820D03*
X1634490Y1836420D03*
Y1861820D03*
X1659890Y1836420D03*
Y1861820D03*
X1685290Y1836420D03*
Y1861820D03*
X1710690Y1836420D03*
Y1644650D03*
X1709420Y756920D03*
X1734820D03*
X1760220D03*
X1785620D03*
X1811020D03*
X1709420Y706120D03*
X1734820D03*
X1760220D03*
X1785620D03*
X1911350Y674370D03*
X1936750D03*
X1981200Y750570D03*
Y775970D03*
Y801370D03*
X1955800Y725170D03*
Y750570D03*
Y775970D03*
Y801370D03*
X1981200Y839470D03*
X1709420Y350520D03*
X1734820D03*
X1760220D03*
X1785620D03*
X1811020D03*
X1709420Y299720D03*
X1734820D03*
X1760220D03*
X1785620D03*
X1709420Y553720D03*
X1734820D03*
X1760220D03*
X1785620D03*
X1811020D03*
X1709420Y502920D03*
X1734820D03*
X1760220D03*
X1785620D03*
X2268220Y452120D03*
X2242820D03*
X2268220Y477520D03*
X2242820D03*
X2268220Y502920D03*
X2242820D03*
X2268220Y528320D03*
X2242820D03*
X2268220Y553720D03*
X2242820D03*
X2218690Y1263650D03*
Y1289050D03*
X2993390Y670560D03*
Y695960D03*
X3018790Y670560D03*
Y695960D03*
G54D651*
X515620Y299720D03*
Y502920D03*
Y706120D03*
X567690Y1793240D03*
X373380D03*
X928370Y1788160D03*
X902970Y1813560D03*
Y1788160D03*
X877570Y1813560D03*
Y1788160D03*
X852170Y1813560D03*
Y1788160D03*
X826770Y1813560D03*
X758190Y1672590D03*
X783590D03*
X834390D03*
X859790D03*
X885190D03*
X910590D03*
X935990D03*
X961390D03*
X986790D03*
X1012190D03*
X1037590D03*
X1062990D03*
X1088390D03*
X1113790D03*
X1139190D03*
X1164590D03*
X744220Y706120D03*
Y299720D03*
Y502920D03*
X1277620Y299720D03*
Y502920D03*
Y706120D03*
X1228090Y1670050D03*
X1456690Y1644650D03*
X1482090Y1670050D03*
X1507490D03*
X1532890D03*
X1583690D03*
X1228090Y1861820D03*
X1456690Y1836420D03*
X1482090Y1861820D03*
X1507490D03*
X1532890D03*
X1583690D03*
X1710690D03*
Y1670050D03*
X1811020Y706120D03*
X1981200Y725170D03*
X1955800Y839470D03*
X1811020Y299720D03*
Y502920D03*
X2218690Y1314450D03*
X3044190Y670560D03*
Y695960D03*
G54D202*
X405130Y2081390D03*
Y2156390D03*
Y2231390D03*
X430130Y2206390D03*
Y2106390D03*
G54D652*
X305130Y2206390D03*
Y2106390D03*
G54D203*
X676910Y2357120D03*
X716534D03*
X756158D03*
X795782D03*
X994918D03*
X1034542D03*
X1074166D03*
X1113790D03*
G54D653*
X835406D03*
X875030D03*
X915670D03*
X955294D03*
G54D204*
X775970Y2380742D03*
X1014730D03*
G54D205*
X832866Y2104390D03*
X858266D03*
X883666D03*
X909066D03*
X985266D03*
X1010666D03*
X1036066D03*
X1061466D03*
X1086866D03*
X1112266D03*
X1163066D03*
X1188466D03*
X820166Y2123440D03*
X832866Y2142490D03*
X845566Y2123440D03*
X858266Y2142490D03*
X870966Y2123440D03*
X883666Y2142490D03*
X896366Y2123440D03*
X909066Y2142490D03*
X921766Y2123440D03*
X985266Y2142490D03*
X1010666D03*
X1023366Y2123440D03*
X1036066Y2142490D03*
X1048766Y2123440D03*
X1061466Y2142490D03*
X1074166Y2123440D03*
X1086866Y2142490D03*
X1099566Y2123440D03*
X1112266Y2142490D03*
X1124966Y2123440D03*
X1150366D03*
X1163066Y2142490D03*
X1175766Y2123440D03*
X1188466Y2142490D03*
X1201166Y2123440D03*
X820166Y2085340D03*
X845566D03*
X870966D03*
X896366D03*
X921766D03*
X1023366D03*
X1048766D03*
X1074166D03*
X1099566D03*
X1124966D03*
X1150366D03*
X1175766D03*
X1201166D03*
X820166Y1968500D03*
X832866Y1987550D03*
X845566Y1968500D03*
X858266Y1987550D03*
X870966Y1968500D03*
X883666Y1987550D03*
X896366Y1968500D03*
X909066Y1987550D03*
X921766Y1968500D03*
X985266Y1987550D03*
X1010666D03*
X1023366Y1968500D03*
X1036066Y1987550D03*
X1048766Y1968500D03*
X1061466Y1987550D03*
X1074166Y1968500D03*
X1086866Y1987550D03*
X1099566Y1968500D03*
X1112266Y1987550D03*
X1124966Y1968500D03*
X1150366D03*
X1163066Y1987550D03*
X1175766Y1968500D03*
X1188466Y1987550D03*
X1201166Y1968500D03*
X820166Y2006600D03*
X832866Y2025650D03*
X845566Y2006600D03*
X858266Y2025650D03*
X870966Y2006600D03*
X883666Y2025650D03*
X896366Y2006600D03*
X909066Y2025650D03*
X921766Y2006600D03*
X985266Y2025650D03*
X1010666D03*
X1023366Y2006600D03*
X1036066Y2025650D03*
X1048766Y2006600D03*
X1061466Y2025650D03*
X1074166Y2006600D03*
X1086866Y2025650D03*
X1099566Y2006600D03*
X1112266Y2025650D03*
X1124966Y2006600D03*
X1150366D03*
X1163066Y2025650D03*
X1175766Y2006600D03*
X1188466Y2025650D03*
X1201166Y2006600D03*
X902970Y1732280D03*
X928370D03*
X953770D03*
X979170D03*
X1004570D03*
X1029970D03*
X1055370D03*
X1080770D03*
X925830Y1870710D03*
X951230D03*
X976630D03*
X1002030D03*
X1027430D03*
X1052830D03*
X1078230D03*
X1103630D03*
X986790Y1640840D03*
X1012190D03*
X1037590D03*
X1062990D03*
X1088390D03*
X1113790D03*
X1139190D03*
X1164590D03*
X1226566Y2085340D03*
X1277366D03*
X1302766D03*
X1328166D03*
X1353566D03*
X1429766D03*
X1455166D03*
X1480566D03*
X1505966D03*
X1531366D03*
X1556766D03*
X1607566D03*
X1632966D03*
X1658366D03*
X1683766D03*
X1213866Y1987550D03*
X1226566Y1968500D03*
X1239266Y1987550D03*
X1264666D03*
X1277366Y1968500D03*
X1290066Y1987550D03*
X1302766Y1968500D03*
X1315466Y1987550D03*
X1328166Y1968500D03*
X1340866Y1987550D03*
X1353566Y1968500D03*
X1417066Y1987550D03*
X1429766Y1968500D03*
X1455166D03*
X1467866Y1987550D03*
X1480566Y1968500D03*
X1493266Y1987550D03*
X1505966Y1968500D03*
X1518666Y1987550D03*
X1531366Y1968500D03*
X1544066Y1987550D03*
X1556766Y1968500D03*
X1569466Y1987550D03*
X1594866D03*
X1607566Y1968500D03*
X1620266Y1987550D03*
X1632966Y1968500D03*
X1645666Y1987550D03*
X1658366Y1968500D03*
X1671066Y1987550D03*
X1683766Y1968500D03*
X1213866Y2025650D03*
X1226566Y2006600D03*
X1239266Y2025650D03*
X1264666D03*
X1277366Y2006600D03*
X1290066Y2025650D03*
X1302766Y2006600D03*
X1315466Y2025650D03*
X1328166Y2006600D03*
X1340866Y2025650D03*
X1353566Y2006600D03*
X1417066Y2025650D03*
X1429766Y2006600D03*
X1455166D03*
X1467866Y2025650D03*
X1480566Y2006600D03*
X1493266Y2025650D03*
X1505966Y2006600D03*
X1518666Y2025650D03*
X1531366Y2006600D03*
X1544066Y2025650D03*
X1556766Y2006600D03*
X1569466Y2025650D03*
X1594866D03*
X1607566Y2006600D03*
X1620266Y2025650D03*
X1632966Y2006600D03*
X1645666Y2025650D03*
X1658366Y2006600D03*
X1671066Y2025650D03*
X1683766Y2006600D03*
X1213866Y2104390D03*
X1239266D03*
X1264666D03*
X1290066D03*
X1315466D03*
X1340866D03*
X1417066D03*
X1467866D03*
X1493266D03*
X1518666D03*
X1544066D03*
X1569466D03*
X1594866D03*
X1620266D03*
X1645666D03*
X1671066D03*
X1213866Y2142490D03*
X1226566Y2123440D03*
X1239266Y2142490D03*
X1264666D03*
X1277366Y2123440D03*
X1290066Y2142490D03*
X1302766Y2123440D03*
X1315466Y2142490D03*
X1328166Y2123440D03*
X1340866Y2142490D03*
X1353566Y2123440D03*
X1417066Y2142490D03*
X1429766Y2123440D03*
X1455166D03*
X1467866Y2142490D03*
X1480566Y2123440D03*
X1493266Y2142490D03*
X1505966Y2123440D03*
X1518666Y2142490D03*
X1531366Y2123440D03*
X1544066Y2142490D03*
X1556766Y2123440D03*
X1569466Y2142490D03*
X1594866D03*
X1607566Y2123440D03*
X1620266Y2142490D03*
X1632966Y2123440D03*
X1645666Y2142490D03*
X1658366Y2123440D03*
X1671066Y2142490D03*
X1683766Y2123440D03*
X1696466Y2104390D03*
X1721866D03*
X1747266D03*
X1772666D03*
X1798066D03*
X1823466D03*
X1848866D03*
X1874266D03*
X1899666D03*
X1925066D03*
X1950466D03*
X1696466Y2142490D03*
X1721866D03*
X1734566Y2123440D03*
X1747266Y2142490D03*
X1772666D03*
X1785366Y2123440D03*
X1798066Y2142490D03*
X1810766Y2123440D03*
X1823466Y2142490D03*
X1836166Y2123440D03*
X1848866Y2142490D03*
X1861566Y2123440D03*
X1874266Y2142490D03*
X1899666D03*
X1912366Y2123440D03*
X1925066Y2142490D03*
X1937766Y2123440D03*
X1950466Y2142490D03*
X1963166Y2123440D03*
X1734566Y2085340D03*
X1785366D03*
X1810766D03*
X1836166D03*
X1861566D03*
X1912366D03*
X1937766D03*
X1963166D03*
X1696466Y1987550D03*
X1721866D03*
X1734566Y1968500D03*
X1747266Y1987550D03*
X1772666D03*
X1785366Y1968500D03*
X1798066Y1987550D03*
X1810766Y1968500D03*
X1823466Y1987550D03*
X1836166Y1968500D03*
X1848866Y1987550D03*
X1861566Y1968500D03*
X1874266Y1987550D03*
X1899666D03*
X1912366Y1968500D03*
X1925066Y1987550D03*
X1937766Y1968500D03*
X1950466Y1987550D03*
X1963166Y1968500D03*
X1696466Y2025650D03*
X1721866D03*
X1734566Y2006600D03*
X1747266Y2025650D03*
X1772666D03*
X1785366Y2006600D03*
X1798066Y2025650D03*
X1810766Y2006600D03*
X1823466Y2025650D03*
X1836166Y2006600D03*
X1848866Y2025650D03*
X1861566Y2006600D03*
X1874266Y2025650D03*
X1899666D03*
X1912366Y2006600D03*
X1925066Y2025650D03*
X1937766Y2006600D03*
X1950466Y2025650D03*
X1963166Y2006600D03*
X2542540Y994410D03*
X2504440Y981710D03*
X2529840D03*
X2555240D03*
X2542540Y969010D03*
X2504440Y956310D03*
X2529840D03*
X2555240D03*
X2631440D03*
X2517140Y943610D03*
X2542540D03*
X2567940D03*
X2593340D03*
X2618740D03*
X2504440Y930910D03*
X2529840D03*
X2555240D03*
X2580640D03*
X2606040D03*
X2631440D03*
X2517140Y918210D03*
X2542540D03*
X2567940D03*
X2504440Y905510D03*
X2529840D03*
X2555240D03*
X2580640D03*
X2606040D03*
X2631440D03*
X2555240Y1362710D03*
X2580640D03*
X2606040D03*
X2631440D03*
X2517140Y1350010D03*
X2542540D03*
X2504440Y1337310D03*
X2529840D03*
X2555240D03*
X2580640D03*
X2606040D03*
X2631440D03*
X2517140Y1324610D03*
X2542540D03*
X2567940D03*
X2593340D03*
X2618740D03*
X2504440Y1311910D03*
X2529840D03*
X2555240D03*
X2580640D03*
X2606040D03*
X2517140Y1299210D03*
X2542540D03*
X2567940D03*
X2504440Y1286510D03*
X2529840D03*
X2555240D03*
X2542540Y1273810D03*
X2504440Y1261110D03*
X2529840D03*
X2555240D03*
X2542540Y1248410D03*
X2504440Y1235710D03*
X2529840D03*
X2555240D03*
X2542540Y1223010D03*
X2504440Y1210310D03*
X2529840D03*
X2555240D03*
X2542540Y1197610D03*
X2504440Y1184910D03*
X2529840D03*
X2555240D03*
X2542540Y1172210D03*
X2504440Y1159510D03*
X2529840D03*
X2555240D03*
X2542540Y1146810D03*
X2504440Y1134110D03*
X2529840D03*
X2555240D03*
X2542540Y1121410D03*
X2504440Y1108710D03*
X2529840D03*
X2555240D03*
X2542540Y1096010D03*
X2504440Y1083310D03*
X2529840D03*
X2555240D03*
X2542540Y1070610D03*
X2504440Y1057910D03*
X2529840D03*
X2555240D03*
X2542540Y1045210D03*
X2504440Y1032510D03*
X2529840D03*
X2555240D03*
X2542540Y1019810D03*
X2504440Y1007110D03*
X2529840D03*
X2555240D03*
X2656840Y1362710D03*
X2682240D03*
X2707640D03*
X2733040D03*
X2758440D03*
X2783840D03*
X2809240D03*
X2834640D03*
X2860040D03*
X2885440D03*
X2910840D03*
X2936240D03*
X2961640D03*
X2872740Y1350010D03*
X2898140D03*
X2923540D03*
X2948940D03*
X2656840Y1337310D03*
X2682240D03*
X2707640D03*
X2733040D03*
X2758440D03*
X2783840D03*
X2809240D03*
X2834640D03*
X2860040D03*
X2885440D03*
X2910840D03*
X2936240D03*
X2961640D03*
X2644140Y1324610D03*
X2669540D03*
X2694940D03*
X2720340D03*
X2745740D03*
X2771140D03*
X2796540D03*
X2821940D03*
X2847340D03*
X2872740D03*
X2898140D03*
X2923540D03*
X2948940D03*
X2682240Y1311910D03*
X2707640D03*
X2758440D03*
X2809240D03*
X2834640D03*
X2910840D03*
X2936240D03*
X2961640D03*
X2923540Y1299210D03*
X2948940D03*
X2910840Y1286510D03*
X2936240D03*
X2961640D03*
X2923540Y1273810D03*
X2910840Y1261110D03*
X2936240D03*
X2961640D03*
X2923540Y1248410D03*
X2910840Y1235710D03*
X2936240D03*
X2961640D03*
X2923540Y1223010D03*
X2910840Y1210310D03*
X2936240D03*
X2961640D03*
X2923540Y1197610D03*
X2910840Y1184910D03*
X2936240D03*
X2961640D03*
X2923540Y1172210D03*
X2910840Y1159510D03*
X2936240D03*
X2961640D03*
X2923540Y1146810D03*
X2910840Y1134110D03*
X2961640D03*
X2923540Y1121410D03*
X2910840Y1108710D03*
X2936240D03*
X2961640D03*
X2923540Y1096010D03*
X2910840Y1083310D03*
X2936240D03*
X2961640D03*
X2923540Y1070610D03*
X2910840Y1057910D03*
X2936240D03*
X2961640D03*
X2923540Y1045210D03*
X2910840Y1032510D03*
X2936240D03*
X2961640D03*
X2923540Y1019810D03*
X2910840Y1007110D03*
X2936240D03*
X2961640D03*
X2923540Y994410D03*
X2910840Y981710D03*
X2936240D03*
X2961640D03*
X2898140Y969010D03*
X2923540D03*
X2948940D03*
X2682240Y956310D03*
X2733040D03*
X2783840D03*
X2860040D03*
X2910840D03*
X2936240D03*
X2644140Y943610D03*
X2669540D03*
X2694940D03*
X2720340D03*
X2745740D03*
X2771140D03*
X2796540D03*
X2821940D03*
X2847340D03*
X2872740D03*
X2898140D03*
X2923540D03*
X2948940D03*
X2656840Y930910D03*
X2682240D03*
X2707640D03*
X2733040D03*
X2758440D03*
X2783840D03*
X2809240D03*
X2834640D03*
X2860040D03*
X2885440D03*
X2910840D03*
X2936240D03*
X2898140Y918210D03*
X2923540D03*
X2948940D03*
X2656840Y905510D03*
X2682240D03*
X2707640D03*
X2733040D03*
X2758440D03*
X2783840D03*
X2809240D03*
X2834640D03*
X2860040D03*
X2885440D03*
X2910840D03*
X2936240D03*
G54D654*
X1137666Y2104390D03*
X807466Y2142490D03*
X997966Y2123440D03*
X1137666Y2142490D03*
X807466Y2104390D03*
X997966Y2085340D03*
Y1968500D03*
X1137666Y1987550D03*
X807466Y2025650D03*
X997966Y2006600D03*
X1137666Y2025650D03*
X807466Y1987550D03*
X1251966Y2085340D03*
X1582166D03*
X1251966Y1968500D03*
X1442466Y1987550D03*
X1582166Y1968500D03*
X1251966Y2006600D03*
X1442466Y2025650D03*
X1582166Y2006600D03*
X1442466Y2104390D03*
X1251966Y2123440D03*
X1442466Y2142490D03*
X1582166Y2123440D03*
X1709166D03*
X1759966D03*
X1886966D03*
X1709166Y2085340D03*
X1759966D03*
X1886966D03*
X1709166Y1968500D03*
X1759966D03*
X1886966D03*
X1709166Y2006600D03*
X1759966D03*
X1886966D03*
X2056130Y349250D03*
X2162810D03*
X2269490D03*
X2557780Y615950D03*
X2451100D03*
X2344420D03*
X2887980Y642620D03*
X2781300D03*
X2674620D03*
X2636520Y374650D03*
X2743200D03*
X2716530Y481330D03*
G54D206*
X953516Y2113915D03*
X775716D03*
X953516Y1997075D03*
X775716D03*
X1385316D03*
Y2113915D03*
X1994916D03*
Y1997075D03*
G54D207*
X673100Y915670D03*
X723900D03*
X711200Y839470D03*
X685800Y890270D03*
X711200D03*
X673100Y864870D03*
X723900D03*
X673100Y1118870D03*
X723900D03*
X711200Y1042670D03*
X685800Y1093470D03*
X711200D03*
X673100Y1068070D03*
X723900D03*
X673100Y1322070D03*
X723900D03*
X711200Y1245870D03*
X685800Y1296670D03*
X711200D03*
X673100Y1271270D03*
X723900D03*
X673100Y1525270D03*
X723900D03*
X711200Y1449070D03*
X685800Y1499870D03*
X711200D03*
X673100Y1474470D03*
X723900D03*
X749300Y1525270D03*
X774700D03*
X800100D03*
X850900D03*
X876300D03*
X901700D03*
X927100D03*
X952500D03*
X977900D03*
X1003300D03*
X1028700D03*
X1054100D03*
X1079500D03*
X1155700D03*
X1181100D03*
X1206500D03*
X736600Y1449070D03*
X762000D03*
X787400D03*
X838200D03*
X863600D03*
X889000D03*
X914400D03*
X965200D03*
X990600D03*
X1041400D03*
X1066800D03*
X1117600D03*
X1168400D03*
X1193800D03*
X736600Y1499870D03*
X762000D03*
X787400D03*
X838200D03*
X863600D03*
X914400D03*
X939800D03*
X990600D03*
X1016000D03*
X1066800D03*
X1092200D03*
X1117600D03*
X1143000D03*
X1168400D03*
X749300Y1474470D03*
X774700D03*
X800100D03*
X901700D03*
X927100D03*
X952500D03*
X977900D03*
X1003300D03*
X1028700D03*
X1054100D03*
X1079500D03*
X1104900D03*
X1130300D03*
X1155700D03*
X1181100D03*
X1206500D03*
X749300Y1118870D03*
X774700D03*
X800100D03*
X850900D03*
X876300D03*
X901700D03*
X927100D03*
X952500D03*
X977900D03*
X1003300D03*
X1028700D03*
X1054100D03*
X1079500D03*
X1155700D03*
X1181100D03*
X1206500D03*
X736600Y1042670D03*
X762000D03*
X787400D03*
X838200D03*
X863600D03*
X889000D03*
X914400D03*
X965200D03*
X990600D03*
X1041400D03*
X1066800D03*
X1117600D03*
X1168400D03*
X1193800D03*
X736600Y1093470D03*
X762000D03*
X787400D03*
X838200D03*
X863600D03*
X914400D03*
X939800D03*
X990600D03*
X1016000D03*
X1066800D03*
X1092200D03*
X1117600D03*
X1143000D03*
X1168400D03*
X749300Y1068070D03*
X774700D03*
X800100D03*
X901700D03*
X927100D03*
X952500D03*
X977900D03*
X1003300D03*
X1028700D03*
X1054100D03*
X1079500D03*
X1104900D03*
X1130300D03*
X1155700D03*
X1181100D03*
X1206500D03*
X749300Y1322070D03*
X774700D03*
X800100D03*
X850900D03*
X876300D03*
X901700D03*
X927100D03*
X952500D03*
X977900D03*
X1003300D03*
X1028700D03*
X1054100D03*
X1079500D03*
X1155700D03*
X1181100D03*
X1206500D03*
X736600Y1245870D03*
X762000D03*
X787400D03*
X838200D03*
X863600D03*
X889000D03*
X914400D03*
X965200D03*
X990600D03*
X1041400D03*
X1066800D03*
X1117600D03*
X1168400D03*
X1193800D03*
X736600Y1296670D03*
X762000D03*
X787400D03*
X838200D03*
X863600D03*
X914400D03*
X939800D03*
X990600D03*
X1016000D03*
X1066800D03*
X1092200D03*
X1117600D03*
X1143000D03*
X1168400D03*
X749300Y1271270D03*
X774700D03*
X800100D03*
X901700D03*
X927100D03*
X952500D03*
X977900D03*
X1003300D03*
X1028700D03*
X1054100D03*
X1079500D03*
X1104900D03*
X1130300D03*
X1155700D03*
X1181100D03*
X1206500D03*
X749300Y915670D03*
X774700D03*
X800100D03*
X850900D03*
X876300D03*
X901700D03*
X927100D03*
X952500D03*
X977900D03*
X1003300D03*
X1028700D03*
X1054100D03*
X1079500D03*
X1155700D03*
X1181100D03*
X1206500D03*
X736600Y839470D03*
X762000D03*
X787400D03*
X838200D03*
X863600D03*
X889000D03*
X914400D03*
X965200D03*
X990600D03*
X1041400D03*
X1066800D03*
X1117600D03*
X1168400D03*
X1193800D03*
X736600Y890270D03*
X762000D03*
X787400D03*
X838200D03*
X863600D03*
X914400D03*
X939800D03*
X990600D03*
X1016000D03*
X1066800D03*
X1092200D03*
X1117600D03*
X1143000D03*
X1168400D03*
X749300Y864870D03*
X774700D03*
X800100D03*
X901700D03*
X927100D03*
X952500D03*
X977900D03*
X1003300D03*
X1028700D03*
X1054100D03*
X1079500D03*
X1104900D03*
X1130300D03*
X1155700D03*
X1181100D03*
X1206500D03*
X1231900Y915670D03*
X1257300D03*
X1282700D03*
X1333500D03*
X1358900D03*
X1384300D03*
X1409700D03*
X1435100D03*
X1219200Y839470D03*
X1270000D03*
X1320800D03*
X1346200D03*
X1371600D03*
X1397000D03*
X1422400D03*
X1447800D03*
X1219200Y890270D03*
X1244600D03*
X1320800D03*
X1346200D03*
X1397000D03*
X1422400D03*
X1447800D03*
X1231900Y864870D03*
X1257300D03*
X1333500D03*
X1358900D03*
X1409700D03*
X1435100D03*
X1231900Y1118870D03*
X1257300D03*
X1282700D03*
X1333500D03*
X1358900D03*
X1384300D03*
X1409700D03*
X1435100D03*
X1219200Y1042670D03*
X1270000D03*
X1320800D03*
X1346200D03*
X1371600D03*
X1397000D03*
X1422400D03*
X1447800D03*
X1219200Y1093470D03*
X1244600D03*
X1320800D03*
X1346200D03*
X1397000D03*
X1422400D03*
X1447800D03*
X1231900Y1068070D03*
X1257300D03*
X1333500D03*
X1358900D03*
X1409700D03*
X1435100D03*
X1231900Y1322070D03*
X1257300D03*
X1282700D03*
X1333500D03*
X1358900D03*
X1384300D03*
X1409700D03*
X1435100D03*
X1219200Y1245870D03*
X1270000D03*
X1320800D03*
X1346200D03*
X1371600D03*
X1397000D03*
X1422400D03*
X1447800D03*
X1219200Y1296670D03*
X1244600D03*
X1320800D03*
X1346200D03*
X1397000D03*
X1422400D03*
X1447800D03*
X1231900Y1271270D03*
X1257300D03*
X1333500D03*
X1358900D03*
X1409700D03*
X1435100D03*
X1231900Y1525270D03*
X1257300D03*
X1282700D03*
X1333500D03*
X1358900D03*
X1384300D03*
X1409700D03*
X1435100D03*
X1219200Y1449070D03*
X1270000D03*
X1320800D03*
X1346200D03*
X1371600D03*
X1397000D03*
X1422400D03*
X1447800D03*
X1219200Y1499870D03*
X1244600D03*
X1320800D03*
X1346200D03*
X1397000D03*
X1422400D03*
X1447800D03*
X1231900Y1474470D03*
X1257300D03*
X1333500D03*
X1358900D03*
X1409700D03*
X1435100D03*
X2557780Y463550D03*
Y573532D03*
X2999740Y640842D03*
Y530860D03*
G54D655*
X698500Y915670D03*
X685800Y839470D03*
X698500Y864870D03*
Y1118870D03*
X685800Y1042670D03*
X698500Y1068070D03*
Y1322070D03*
X685800Y1245870D03*
X698500Y1271270D03*
Y1525270D03*
X685800Y1449070D03*
X698500Y1474470D03*
X825500Y1525270D03*
X1104900D03*
X1130300D03*
X812800Y1449070D03*
X939800D03*
X1016000D03*
X1092200D03*
X1143000D03*
X812800Y1499870D03*
X889000D03*
X965200D03*
X1041400D03*
X1193800D03*
X825500Y1474470D03*
X850900D03*
X876300D03*
X825500Y1118870D03*
X1104900D03*
X1130300D03*
X812800Y1042670D03*
X939800D03*
X1016000D03*
X1092200D03*
X1143000D03*
X812800Y1093470D03*
X889000D03*
X965200D03*
X1041400D03*
X1193800D03*
X825500Y1068070D03*
X850900D03*
X876300D03*
X825500Y1322070D03*
X1104900D03*
X1130300D03*
X812800Y1245870D03*
X939800D03*
X1016000D03*
X1092200D03*
X1143000D03*
X812800Y1296670D03*
X889000D03*
X965200D03*
X1041400D03*
X1193800D03*
X825500Y1271270D03*
X850900D03*
X876300D03*
X825500Y915670D03*
X1104900D03*
X1130300D03*
X812800Y839470D03*
X939800D03*
X1016000D03*
X1092200D03*
X1143000D03*
X812800Y890270D03*
X889000D03*
X965200D03*
X1041400D03*
X1193800D03*
X825500Y864870D03*
X850900D03*
X876300D03*
X1244600Y839470D03*
X1270000Y890270D03*
X1371600D03*
X1282700Y864870D03*
X1384300D03*
X1244600Y1042670D03*
X1270000Y1093470D03*
X1371600D03*
X1282700Y1068070D03*
X1384300D03*
X1244600Y1245870D03*
X1270000Y1296670D03*
X1371600D03*
X1282700Y1271270D03*
X1384300D03*
X1244600Y1449070D03*
X1270000Y1499870D03*
X1371600D03*
X1282700Y1474470D03*
X1384300D03*
G54D208*
X654050Y877570D03*
Y1080770D03*
Y1283970D03*
Y1487170D03*
X1301750Y877570D03*
Y1080770D03*
Y1283970D03*
Y1487170D03*
G54D209*
X2056130Y400050D03*
X2162810D03*
X2269490D03*
X2557780Y666750D03*
X2451100D03*
X2344420D03*
X2687320Y374650D03*
X2794000D03*
X2767330Y481330D03*
X2887980Y591820D03*
X2781300D03*
X2674620D03*
G54D656*
X2517140Y994410D03*
Y969010D03*
X2580640Y956310D03*
X2606040D03*
X2593340Y918210D03*
X2618740D03*
X2529840Y1362710D03*
X2567940Y1350010D03*
X2593340D03*
X2618740D03*
X2631440Y1311910D03*
X2517140Y1273810D03*
Y1248410D03*
Y1223010D03*
Y1197610D03*
Y1172210D03*
Y1146810D03*
Y1121410D03*
Y1096010D03*
Y1070610D03*
Y1045210D03*
Y1019810D03*
X2644140Y1350010D03*
X2669540D03*
X2694940D03*
X2720340D03*
X2745740D03*
X2771140D03*
X2796540D03*
X2821940D03*
X2847340D03*
X2656840Y1311910D03*
X2733040D03*
X2783840D03*
X2860040D03*
X2885440D03*
X2948940Y1273810D03*
Y1248410D03*
Y1223010D03*
Y1197610D03*
Y1172210D03*
Y1146810D03*
X2936240Y1134110D03*
X2948940Y1121410D03*
Y1096010D03*
Y1070610D03*
Y1045210D03*
Y1019810D03*
Y994410D03*
X2656840Y956310D03*
X2707640D03*
X2758440D03*
X2809240D03*
X2834640D03*
X2885440D03*
X2961640D03*
Y930910D03*
X2644140Y918210D03*
X2669540D03*
X2694940D03*
X2720340D03*
X2745740D03*
X2771140D03*
X2796540D03*
X2821940D03*
X2847340D03*
X2872740D03*
X2961640Y905510D03*
G54D210*
X2108200Y819150D03*
Y614172D03*
G54D211*
X668020Y568706D03*
X718312Y570230D03*
X693420Y587248D03*
X642112Y583184D03*
X616712Y586994D03*
X591820Y589280D03*
X566166Y591312D03*
X541020Y594868D03*
X394716Y622554D03*
Y612648D03*
X395224Y602742D03*
X393700Y592074D03*
X392684Y581406D03*
X389382Y571754D03*
X386588Y560832D03*
X384048Y548386D03*
X288036Y471170D03*
X328930Y397764D03*
X303530Y515620D03*
X334772Y545338D03*
X336042Y583184D03*
X358648Y588518D03*
X364744Y566674D03*
X719074Y620268D03*
X361188Y607060D03*
X338074Y602742D03*
X500888Y609600D03*
X302260Y435610D03*
X310896Y427228D03*
X434340Y415290D03*
X457200Y360680D03*
X645668Y363220D03*
X595122Y363474D03*
X677164Y363220D03*
X697230D03*
X726948Y362966D03*
X365506Y552196D03*
X654812Y763778D03*
X705358Y765810D03*
X566166Y810514D03*
X642620Y822706D03*
X668020Y807974D03*
X486664Y855980D03*
X467614Y966470D03*
X472694Y975868D03*
X391668Y928116D03*
X441706Y935990D03*
X443738Y946150D03*
X435610Y956564D03*
X437896Y970534D03*
X479806Y984758D03*
X713994Y772922D03*
X399034Y916178D03*
X403860Y928116D03*
X420878Y922782D03*
X413004Y914654D03*
X482600Y940816D03*
X482346Y930910D03*
X479298Y877570D03*
X612902Y928878D03*
Y939038D03*
X599440Y925830D03*
X733044Y979932D03*
X580136Y912368D03*
X603758Y810006D03*
X446024Y963422D03*
X612394Y917956D03*
X579374Y850900D03*
X363220Y845566D03*
X432308Y918464D03*
X323850Y713232D03*
X308610Y712470D03*
X369316Y712724D03*
X467868Y1044448D03*
X478282Y1047496D03*
X400558Y1023874D03*
X466852Y995934D03*
X438658Y1286256D03*
X446532Y1295654D03*
X723900Y1344168D03*
Y1136396D03*
X387604Y1185672D03*
X360864Y1002100D03*
X414528Y1112360D03*
X495300Y1022096D03*
X441706Y1523492D03*
X308610Y1389634D03*
X450088Y1451102D03*
X332994Y1573784D03*
X615188Y1905000D03*
X634238D03*
X434086Y1926082D03*
X447040Y1875282D03*
X445008Y1837182D03*
X543306Y1939290D03*
X318516Y1971040D03*
X543052Y1824736D03*
X390906D03*
X349758Y1824990D03*
X488188Y1929384D03*
X393700Y1939290D03*
X635254D03*
X466090Y1949958D03*
X518668Y2152650D03*
X530606Y2316734D03*
X867156Y2173986D03*
X859028Y2181352D03*
X833882Y2197354D03*
X1036066Y2233930D03*
X1179068Y2231390D03*
X1188212Y2245868D03*
X1198372Y2265680D03*
X1198880Y2277872D03*
X1172464Y2269744D03*
X862584Y2203958D03*
X1185418Y2267204D03*
X1086866Y2249424D03*
X1099058Y2260854D03*
X948690Y2257298D03*
Y2221992D03*
X806958Y2056384D03*
X900176Y1927098D03*
X896620Y1849882D03*
X938784Y1927860D03*
X920242Y1764792D03*
X963422Y1927352D03*
X974598D03*
X964438Y1776730D03*
X1125474Y2034540D03*
X870458Y2058670D03*
X945134Y1858518D03*
X819404Y2069592D03*
X1148842Y1624330D03*
X1164336Y1615948D03*
X1076198Y1543304D03*
X863346Y1533906D03*
X889000Y1406144D03*
X913638D03*
X1032002Y1712214D03*
X930402Y1545590D03*
X903732Y1557782D03*
X901446Y1337310D03*
X941578Y1171956D03*
X893826Y1148080D03*
X894080Y1136396D03*
X910082Y1145794D03*
X911098Y1157224D03*
X876300Y1161796D03*
X839470Y1354328D03*
X972312Y1011428D03*
X933958Y1189482D03*
X750570Y819912D03*
X740918Y936752D03*
X762000Y945388D03*
X749300Y943610D03*
X800862Y809752D03*
X862330Y945134D03*
X937006Y946404D03*
X1090168Y945896D03*
X739394Y480314D03*
X1201420Y410718D03*
X753110Y362966D03*
X790448Y487172D03*
X815340Y488188D03*
X841502Y487680D03*
X864362Y484378D03*
X995172Y477012D03*
X1045972Y477520D03*
X1071626Y477774D03*
X1096772Y478028D03*
X1122172Y477520D03*
X1150112Y452374D03*
X1185672Y403352D03*
X1157986Y384302D03*
X1132840Y403352D03*
X1107440Y383794D03*
X1086358Y374142D03*
X1056132Y384048D03*
X1035304Y374650D03*
X1005840Y383286D03*
X984504Y374650D03*
X955548Y378460D03*
X934720Y373126D03*
X904748Y368046D03*
X882904Y364490D03*
X853948Y363474D03*
X831596Y363220D03*
X803656D03*
X1344676Y484378D03*
X1333500Y297434D03*
X1333246Y477266D03*
X1320800Y378460D03*
X1379220Y408686D03*
X1405890Y408732D03*
X1430020D03*
X1455420D03*
X1480820D03*
X1506220D03*
X1531620D03*
X1557020D03*
X1365504Y462026D03*
X1402334Y444246D03*
X1480820D03*
X1505966Y438150D03*
X1595628Y399034D03*
X1658620Y411988D03*
X1253236Y408940D03*
X1226566Y452882D03*
X1239774Y759968D03*
X1333246Y692658D03*
X1344676Y735584D03*
X1590040Y970280D03*
X1397762Y943864D03*
X1297940Y678688D03*
X1511300Y947420D03*
X1666240Y995680D03*
X1653540D03*
X1628140D03*
X1666240Y1008380D03*
X1628140D03*
X1640840Y995680D03*
X1653286Y1008634D03*
X1679194Y1008126D03*
X1678940Y1021080D03*
X1308608Y1318260D03*
X1602740Y1173480D03*
X1615440D03*
X1628140D03*
X1640840D03*
X1653540D03*
X1666240D03*
X1678940D03*
X1602740Y1160780D03*
X1615440D03*
X1628140D03*
X1640840D03*
X1653540D03*
X1678940D03*
X1525016Y1360932D03*
X1541780Y1358900D03*
X1522984Y1347978D03*
X1666240Y1266952D03*
X1646936Y1258062D03*
X1643634Y1267714D03*
X1521206Y1334516D03*
X1530350Y1327912D03*
X1620012Y1255014D03*
X1523238Y1321308D03*
X1627632Y1248156D03*
X1513078Y1228598D03*
X1513586Y1217930D03*
X1513840Y1206246D03*
X1606550Y1240028D03*
X1599692Y1247394D03*
X1513840Y1196086D03*
X1519682Y1186688D03*
X1528572Y1179576D03*
X1530604Y1167638D03*
X1520190Y1236218D03*
X1493774Y1232916D03*
X1500378Y1243584D03*
X1512062Y1286256D03*
X1521714Y1268730D03*
X1513840Y1261872D03*
X1522476Y1255522D03*
X1530604Y1314450D03*
X1529334Y1147826D03*
X1550670Y1153668D03*
X1585468Y1230122D03*
X1572006Y1208532D03*
X1562100Y1210818D03*
X1512316Y1275334D03*
X1520444Y1291844D03*
X1529588Y1288288D03*
X1538478Y1292606D03*
X1575816Y1233170D03*
X1461262Y1150620D03*
X1311910Y1111758D03*
X1666240Y1148080D03*
X1653540Y1097280D03*
X1510538Y1150874D03*
X1498092D03*
X1486408Y1150366D03*
X1507490Y1134110D03*
X1683004Y1033780D03*
X1628140Y1084580D03*
X1451102Y1014222D03*
X1449578Y1214374D03*
X1659890Y1037336D03*
X1679194Y1147572D03*
X1528318Y1031240D03*
X1457960Y1112520D03*
X1465580Y1008380D03*
X1488440Y1467104D03*
X1500886Y1469898D03*
X1498092Y1457452D03*
X1508760Y1458976D03*
X1494536Y1444244D03*
X1511046Y1441958D03*
X1499870Y1429766D03*
X1518158Y1430274D03*
X1506728Y1416050D03*
X1522476Y1415796D03*
X1510792Y1403096D03*
X1528064Y1402588D03*
X1512316Y1389888D03*
X1531620Y1386840D03*
X1518412Y1375918D03*
X1537716Y1373886D03*
X1515872Y1483614D03*
X1656334Y1367282D03*
X1643888Y1380490D03*
X1454912Y1560830D03*
X1468374Y1563116D03*
X1477010Y1555750D03*
X1487932Y1555242D03*
X1480058Y1535430D03*
X1395984Y1544320D03*
X1590802Y1498092D03*
X1570228Y1498854D03*
X1516634Y2055114D03*
X1234948Y1750822D03*
X1655572Y2238756D03*
X1640332Y2200910D03*
X1622044Y2206498D03*
X1604264Y2209546D03*
X1612138Y2215388D03*
X1242822Y2236724D03*
X1467866Y2242566D03*
X1449070Y2258060D03*
X1493266Y2280920D03*
X1429512Y2288794D03*
X1491234Y2311400D03*
X1322324Y2290572D03*
X1273810Y2264664D03*
X1245616Y2285492D03*
X1228598Y2294128D03*
X1213866Y2269744D03*
X1512570Y2248408D03*
X1541780Y2246630D03*
X1229614Y2252218D03*
X1680972Y2263648D03*
X1670812D03*
X1652524Y2289048D03*
X1661160Y2296414D03*
Y2315464D03*
X1641602Y2288032D03*
X1630426Y2288794D03*
X1617980Y2290064D03*
X1641602Y2318004D03*
X1630426Y2353564D03*
X1622298Y2319782D03*
X1616964Y2372868D03*
X1455674Y2317496D03*
X1465834D03*
X1475740Y2318766D03*
X1482598Y2326386D03*
X1345438Y2307336D03*
X1335786D03*
X1325626Y2307082D03*
X1315466Y2307336D03*
X1305560D03*
X1294638D03*
X1268222Y2307082D03*
X1279652Y2307336D03*
X1241552Y2307590D03*
X1251458D03*
X1260094Y2312670D03*
X1400810Y2380742D03*
X1387602Y2377186D03*
X1368552Y2389378D03*
X1347470Y2391156D03*
X1301242Y2376932D03*
X1317752Y2377186D03*
X1288034Y2315464D03*
X1273810Y2376932D03*
X1256538Y2392426D03*
X1330198Y2393950D03*
X1322578Y2400554D03*
X1296670Y2393950D03*
X1298448Y2409698D03*
X1465834Y2381250D03*
X1482344Y2384044D03*
X1472946Y2387854D03*
X1455420Y2382266D03*
X1884680Y2177796D03*
X1854962Y2181606D03*
X1845056D03*
X1835150D03*
X1824990Y2181352D03*
X1819148Y2194306D03*
X1814576Y2208530D03*
X1798066Y2197608D03*
X1850644Y2221738D03*
X1798828Y2230628D03*
X1782826Y2209800D03*
X1757680Y2200402D03*
X1771650Y2224786D03*
X1755648Y2269490D03*
X1743202Y2257806D03*
X1712214Y2251456D03*
X1697990Y2274062D03*
X1702054Y2290064D03*
X1822450Y2053590D03*
X1696212Y2054860D03*
X1847596Y1444752D03*
X1973326D03*
X1824228Y1417320D03*
X2084324Y1380744D03*
X2078482Y1456182D03*
X2100326Y1462024D03*
X2068830Y1445006D03*
X2058924Y1433322D03*
X1846834Y1404874D03*
X2011680Y1521714D03*
X1793240Y995680D03*
X1767840D03*
X1742440D03*
X1691640D03*
X1767840Y1008380D03*
X1742440D03*
X1691640D03*
X1729740D03*
X1780540D03*
X1729740Y1021080D03*
X1780540D03*
X1704340Y1160780D03*
X1703832Y1291336D03*
X1691386Y1276604D03*
Y1266444D03*
X1708912Y1314196D03*
X1755140Y1173480D03*
Y1160780D03*
X1742440Y1173480D03*
X1767840D03*
X1780540D03*
X1767840Y1160780D03*
X1723898Y1329944D03*
X1731010Y1322832D03*
X1763268Y1290574D03*
X1780540Y1304798D03*
X1784096Y1314958D03*
X1793494Y1279906D03*
X1799082Y1289304D03*
X1807210Y1260602D03*
X1824736Y1353312D03*
X1805940Y1173480D03*
Y1160780D03*
Y1148080D03*
Y1135380D03*
Y1122680D03*
X1793240Y1148080D03*
Y1135380D03*
Y1122680D03*
X1873504Y1215644D03*
X1899920Y1204468D03*
X1780540Y1148080D03*
X1767840Y1135380D03*
X1717040Y1160780D03*
X1756664Y1035304D03*
X1760220Y1024128D03*
X1915922Y1173734D03*
Y1183640D03*
X1923796Y1162050D03*
X1780540Y1135634D03*
X1729740Y1160780D03*
X1737360Y1336548D03*
X1717040Y1173734D03*
X1689862Y1042162D03*
X1693164Y1025398D03*
X1707134Y1046988D03*
X1717294Y995426D03*
X1729486Y1043432D03*
X1847850Y1051306D03*
X1757934Y1057656D03*
X2025904Y1014476D03*
X1982724Y1056894D03*
X1956562Y1050544D03*
X2099056Y1189736D03*
X2116328Y1137412D03*
X2132838Y1146556D03*
X2106422Y1122680D03*
X2136394Y1192530D03*
X1916430Y1006602D03*
X1906778Y1013206D03*
X1916938Y1017016D03*
X1905000Y1028954D03*
X1914144Y1034288D03*
X1935988Y1037844D03*
X1866138Y1063244D03*
X1890014Y1043940D03*
X1792986Y1059180D03*
X1780286Y1033526D03*
X1707896Y1131570D03*
X1859280Y1047242D03*
X1692402Y1224788D03*
X1691640Y1146556D03*
X1703832Y1148080D03*
X1972818Y1070102D03*
X2012950Y1128522D03*
X2070608Y1164336D03*
X1914652Y1147826D03*
X1898904Y1122172D03*
X1917700Y1121156D03*
X1927352Y1125982D03*
X1814576Y878840D03*
X2037334Y733806D03*
X1961642Y641858D03*
X1941322Y801370D03*
X1926590Y734060D03*
X1928622Y894588D03*
X1786128Y645922D03*
X1992376Y295402D03*
X1684020Y412242D03*
X1709420Y412288D03*
X1734820D03*
X1760220D03*
X1785620D03*
X1811020D03*
X2458466Y452120D03*
Y439420D03*
X2458212Y426720D03*
Y414020D03*
X2321306Y452120D03*
Y426720D03*
Y350520D03*
X2427478Y850900D03*
X2396998Y851154D03*
X2398268Y887984D03*
X2394204Y897636D03*
X2395982Y917194D03*
X2410206Y907034D03*
Y968248D03*
X2382774Y957072D03*
X2338070D03*
X2404110Y1356106D03*
X2414270Y1353312D03*
X2425192D03*
X2189480Y1194054D03*
X2407412Y1220216D03*
X2410714Y1178560D03*
X2411222Y1137920D03*
X2411984Y1097280D03*
Y1056640D03*
Y1036066D03*
X2417318Y1236980D03*
X2338070Y1259840D03*
X2362708Y1266698D03*
X2204720Y1193800D03*
X2202180Y1158494D03*
X2223516Y1152144D03*
X2303272Y1601724D03*
X2309368Y1569720D03*
X2302256Y1562862D03*
X2308606Y1543558D03*
X2309114Y1533144D03*
X2309876Y1522730D03*
X2308352Y1513078D03*
X2305558Y1503172D03*
X2302510Y1493520D03*
X2300732Y1673860D03*
X2256790Y1681988D03*
X2426462Y1647698D03*
X2426310Y1634744D03*
X2415362Y1628140D03*
X2426614Y1609014D03*
X2418588Y1602156D03*
X2426310Y1595679D03*
Y1569644D03*
X2467534Y1497736D03*
X2302510Y1640840D03*
X2302256Y1626362D03*
X2316226Y1620266D03*
X2320798Y1587246D03*
X2315210Y1647190D03*
X2326386Y1659890D03*
X2325116Y1670304D03*
X2301494Y1654302D03*
X2312670Y1663446D03*
X2470658Y1523492D03*
X2479040Y1533144D03*
X2473452Y1543304D03*
X2426208Y1558544D03*
X2391410Y1612138D03*
X2351278Y1607058D03*
X2427224Y1663446D03*
X2407412Y1658112D03*
X2398776Y1652016D03*
X2348230Y1620520D03*
X2400554Y1674876D03*
X2377694Y1680718D03*
X2386838Y1405890D03*
Y1416558D03*
X2419604Y1368806D03*
X2387092Y1675638D03*
X2343912Y1673606D03*
X2366010Y1659382D03*
Y1649222D03*
X2389378Y1655318D03*
X2394458Y1639062D03*
X2462022Y1371092D03*
X2555494Y1680718D03*
X2554478Y1670050D03*
X2552192Y1659890D03*
X2548382Y1650238D03*
X2419858Y1722628D03*
X2308352Y1723898D03*
X2426462Y1582166D03*
X2489454Y1504696D03*
Y1553464D03*
X2472436Y1556258D03*
X2377694Y1449324D03*
X2377948Y1420622D03*
X2382520Y1430528D03*
X2259330Y1589024D03*
X2258822Y1554734D03*
X2261362Y1660144D03*
X2281682Y1726692D03*
X2358390Y1722120D03*
X2277110Y1429004D03*
X2258060Y1615186D03*
X2426462Y1506474D03*
X2471166Y1688338D03*
X2452878Y1688846D03*
X2389378Y2094738D03*
X2379980Y2091944D03*
X2370836Y2087118D03*
X2362708Y2080260D03*
X2399284Y2073656D03*
X2391664Y2067052D03*
X2382012Y2064004D03*
X2372360Y2060956D03*
X2364232Y2055368D03*
X2405126Y2048002D03*
X2417064Y2041652D03*
X2415540Y2032000D03*
X2514600Y2094230D03*
X2407158Y2011680D03*
X2396490Y2016760D03*
X2405380Y2021586D03*
X2565400Y2094230D03*
X2578100D03*
X2590800D03*
X2603500D03*
X2616200D03*
X2628900D03*
X2565400Y2081530D03*
X2578100D03*
X2590800D03*
X2603500D03*
X2616200D03*
X2628900D03*
X2578100Y2068830D03*
X2590800D03*
X2513838Y2019300D03*
X2527300Y2068830D03*
X2527046Y2009902D03*
X2349754Y1745488D03*
X2339594Y1744472D03*
X2336800Y1733550D03*
X2362200Y1810512D03*
X2356612Y1797812D03*
X2492502Y1811782D03*
X2458720Y1787906D03*
X2450338Y1779016D03*
X2459482Y1798574D03*
X2434844Y1788922D03*
X2543302Y1965960D03*
X2416556Y1772158D03*
X2432304Y1768602D03*
X2622550Y1968246D03*
X2592070Y1915160D03*
X2598420Y1903222D03*
X2589276Y1898396D03*
X2559050Y1997710D03*
X2569718Y1912366D03*
X2605786Y1886966D03*
X2520950Y1735582D03*
X2527300Y1745488D03*
X2524252Y1936496D03*
X2511044Y1930146D03*
X2628646Y1878584D03*
X2621788Y1870964D03*
X2572004Y1810258D03*
X2558796Y1817370D03*
X2628392Y1824736D03*
Y1836928D03*
X2608834Y1819910D03*
X2609088Y1834642D03*
X2618486Y1837690D03*
X2543556Y1855978D03*
X2551430Y1864360D03*
X2572512Y1854962D03*
X2562352Y1864614D03*
X2589276Y1859280D03*
X2368804Y1995678D03*
X2418588Y2013458D03*
X2428494Y2012442D03*
X2441194Y2033524D03*
X2470658Y2063496D03*
X2540000Y2068830D03*
X2583942Y1957070D03*
X2556002Y1971802D03*
X2561590Y1959102D03*
X2575052Y1973072D03*
X2359406Y1742694D03*
X2387346Y1855470D03*
X2327910Y1968754D03*
X2206244Y1837944D03*
X2616200Y2246630D03*
X2603500D03*
X2590800D03*
X2578100D03*
X2565400D03*
X2552700D03*
X2540000D03*
X2527300D03*
X2514600D03*
X2578100Y2233930D03*
X2565400D03*
X2552700D03*
X2540000D03*
X2527300D03*
Y2195830D03*
X2411730Y2162302D03*
X2401570D03*
X2391156D03*
X2380742Y2160778D03*
X2371344Y2157730D03*
X2361438Y2156968D03*
X2351532Y2154174D03*
X2343150Y2147316D03*
X2414270Y2130806D03*
X2514600Y2208530D03*
Y2195830D03*
X2546096Y2132076D03*
X2541524Y2120138D03*
X2514854Y2145030D03*
Y2132330D03*
Y2119630D03*
Y2106930D03*
X2556764Y2132330D03*
X2551938Y2122678D03*
X2552700Y2208530D03*
X2616200Y2233930D03*
X2389886Y2200148D03*
X2380234Y2197608D03*
X2370582Y2194560D03*
X2360676Y2191766D03*
X2351532Y2188210D03*
X2341880Y2185416D03*
X2331974Y2182114D03*
X2562606Y2123694D03*
X2628900Y2233930D03*
X2629154Y2259584D03*
X2598928Y2355850D03*
X2598166Y2374138D03*
X2591816Y2364232D03*
X2527300Y2208530D03*
X2514854Y2221230D03*
X2581402Y2130552D03*
X2386838Y2213610D03*
X2398776Y2193798D03*
X2409190Y2225802D03*
X2417572Y2211324D03*
X2542794Y2170430D03*
X2542286Y2194052D03*
X2555240Y2181860D03*
X2527046Y2170176D03*
X2514600Y2183130D03*
X2465070D03*
X2615946Y2329688D03*
X2582164Y2107946D03*
X2558796Y2161540D03*
X2641600Y2221230D03*
X2654300D03*
X2667000Y2183130D03*
X2679700Y2233930D03*
X2794000Y2321560D03*
X2679700Y2208530D03*
X2684780Y2336546D03*
X2641600Y2094230D03*
X2654300D03*
X2667000D03*
X2679700D03*
X2692400D03*
X2667000Y2170430D03*
Y2157730D03*
Y2145030D03*
Y2132330D03*
X2679700Y2183130D03*
Y2170430D03*
Y2157730D03*
Y2145030D03*
Y2132330D03*
Y2106930D03*
X2692400D03*
X2955290Y2198624D03*
X2692654Y2208784D03*
X2705100Y2221230D03*
X2772156Y2216150D03*
X2865628Y2214372D03*
X2883916Y2222500D03*
X2944114Y2198878D03*
X2922778Y2201926D03*
X2769870Y2140204D03*
X2802382Y2123948D03*
X2864104Y2188464D03*
X2854706Y2185416D03*
X2844800Y2182368D03*
X2834894Y2179066D03*
X2824988Y2175764D03*
X2815336Y2172716D03*
X2805176Y2168906D03*
X2900426Y2098040D03*
X2822956Y2112772D03*
X2890774Y2108962D03*
Y2178304D03*
X2815590Y2098294D03*
X2641600Y2246630D03*
X2654300D03*
X2679700D03*
X2795270Y2332736D03*
X2806700Y2347468D03*
X2806192Y2363470D03*
X2838196Y2355850D03*
X2838450Y2371090D03*
X2845562Y2325878D03*
X2853436Y2309114D03*
X2867406Y2294382D03*
X2860040Y2301494D03*
X2873756Y2285492D03*
X2887218Y2264156D03*
X2880868Y2273808D03*
X2923032Y2237232D03*
X2915158Y2244598D03*
X2906014Y2251202D03*
X2895854Y2255520D03*
X2838704Y2336800D03*
X2770886Y2304542D03*
X2666746Y2344166D03*
X2652522Y2137664D03*
X2646934Y2128520D03*
X2755900Y2135378D03*
X2773934Y2122170D03*
X2753614Y2110232D03*
X2646172Y2307590D03*
X2646934Y2118106D03*
X2654300Y2106930D03*
X2832100Y2273300D03*
X2641600Y2081530D03*
X2654300D03*
X2667000D03*
X2679700D03*
X2692400D03*
X2710180Y1997202D03*
X2998724Y1731772D03*
X2692146Y2068830D03*
X2948432Y2076450D03*
X2955290Y2085594D03*
X2941574Y2067306D03*
X2902712Y2085340D03*
X2903982Y2070862D03*
X2903220Y2058416D03*
X2903728Y2044954D03*
X2710180Y1985010D03*
X2995168Y1908556D03*
X2892298Y1898904D03*
X3001772D03*
X2900934Y1892300D03*
X2892298Y1885696D03*
X2900426Y1878838D03*
X2979420Y1868424D03*
X2907538Y1850644D03*
X2983230Y1856740D03*
X2944114Y1892300D03*
X2854706Y2021332D03*
X2832862Y2033524D03*
X2935478Y1919732D03*
X2997962Y1805940D03*
X3027426Y1868170D03*
X3004566Y1816100D03*
X3025648Y1856232D03*
X3011932Y1806956D03*
X3026410Y1845818D03*
X2950718Y1875282D03*
X2957576Y1861058D03*
X2956052Y1885696D03*
X2902966Y1865630D03*
X2916682Y1857248D03*
X2870708Y1885696D03*
X2838958Y1764284D03*
X2818130Y1751330D03*
X2837942Y1801114D03*
X2826004Y1774190D03*
X2713228Y1963674D03*
X2688336Y1948434D03*
X2678176Y1938528D03*
X2652014Y2003552D03*
X2641854Y1986280D03*
X2739644Y1775968D03*
X2744978Y1903222D03*
X2736596Y1896618D03*
X2728976Y1890268D03*
X2719832Y1886966D03*
X2785364Y1800860D03*
X2726944Y1723644D03*
X2733040Y1731264D03*
X2705100Y2081530D03*
X2704846Y2068830D03*
X2782062Y2081276D03*
X2788920Y2065274D03*
X2802128Y2082292D03*
X2795270Y1962658D03*
X2887218Y1762252D03*
X2919730Y1760474D03*
X2774442Y2088388D03*
X2900934Y1905508D03*
X2917698Y1925828D03*
X2908554Y1939544D03*
X3022092Y2040382D03*
X2779268Y1725168D03*
X2804668Y1742186D03*
X2705100Y1741678D03*
X2726944Y1519428D03*
X2727198Y1529334D03*
X2737104Y1529080D03*
X2734818Y1540510D03*
X2727198Y1553972D03*
X2726944Y1576070D03*
Y1633220D03*
X2729738Y1620774D03*
X2726944Y1653286D03*
X2727706Y1498854D03*
Y1508760D03*
X2683510Y1535938D03*
X2929636Y1614424D03*
X2904744Y1550162D03*
X2840736Y1640078D03*
X2925064Y1496060D03*
X2913380Y1522730D03*
X2901442Y1503426D03*
X2850642Y1561592D03*
X2906014Y1640586D03*
X2893060Y1626362D03*
X2906776Y1606550D03*
X2848102Y1588262D03*
X2834640Y1596898D03*
X2851658Y1541780D03*
X2848356Y1528826D03*
X2879344Y1481836D03*
X2758948Y1540510D03*
X2668524Y1643380D03*
X2658618Y1648206D03*
X2827274Y1628902D03*
X2809748D03*
X2736088Y1610614D03*
X2748788Y1577848D03*
X2758186Y1617726D03*
X2827782Y1618488D03*
X2802890Y1670304D03*
X2795524Y1631696D03*
X2801620Y1639824D03*
X2837434Y1629918D03*
X2831084Y1642872D03*
X2812796Y1638300D03*
X2796540Y1662938D03*
X2851912Y1648714D03*
X2851404Y1658620D03*
X2838958Y1649984D03*
X2809240Y1662176D03*
X2823210Y1676908D03*
X2832608Y1679956D03*
X2815844Y1670304D03*
X2830322Y1656842D03*
X3003296Y1718818D03*
X2995930Y1710944D03*
X2647950Y1616964D03*
X2736850Y1653032D03*
X2755900Y1648460D03*
X2753106Y1663954D03*
X2746756Y1672336D03*
X2736596Y1675638D03*
X2990596Y1702054D03*
X2831084Y1720596D03*
X2896108Y1513840D03*
X2793238Y1444244D03*
X2896616Y1702816D03*
X2889758Y1691132D03*
X2900426Y1656842D03*
X2684526Y1610360D03*
X2685288Y1587754D03*
X2683002Y1555496D03*
X2678430Y1643126D03*
X2667000Y1675638D03*
X2685796Y1661668D03*
X2700020Y1431544D03*
X2892044Y1581150D03*
X2893060Y1563878D03*
X2973070Y992886D03*
X2682240Y1271270D03*
X2634234Y1174750D03*
X2633980Y1130300D03*
X2633472Y1085850D03*
X2874010Y1140460D03*
X2875026Y1198880D03*
X2702814Y1253490D03*
X2740660D03*
X2868930Y1064260D03*
X2702814Y1051560D03*
X2738628D03*
X2906522Y851916D03*
X2904236Y891540D03*
X2874264Y898398D03*
X2996184Y948690D03*
X2998724Y970026D03*
X3052826Y917448D03*
X3072130Y920750D03*
X2819400Y977900D03*
X3053080Y881126D03*
X2998170Y336250D03*
X2961894Y439420D03*
Y426720D03*
Y414020D03*
Y401320D03*
X2824099Y337820D03*
Y414020D03*
Y439420D03*
X2656840Y559054D03*
Y521462D03*
G54D100*
X254000Y254000D02*
Y2464054D01*
X3103880Y254000D02*
X254000D01*
Y2464054D02*
X3103880D01*
Y254000D01*
G54D100*
X254000Y177800D02*
Y208280D01*
X270933D01*
X274320Y204893D01*
Y198120D01*
X270933Y194733D01*
X254000D01*
X304800D02*
X301413Y198120D01*
X291253D01*
X287867Y194733D01*
Y181187D01*
X291253Y177800D01*
X301413D01*
X304800Y181187D01*
X314960Y177800D02*
Y208280D01*
X325120Y198120D01*
X335280Y208280D01*
Y177800D01*
X348827Y181187D02*
Y194733D01*
X352213Y198120D01*
X362373D01*
X365760Y194733D01*
Y181187D01*
X362373Y177800D01*
X352213D01*
X348827Y181187D01*
X386080Y204893D02*
Y181187D01*
X389467Y177800D01*
X379307Y198120D02*
X392853D01*
X409787Y208280D02*
Y177800D01*
Y198120D02*
X423333D01*
X426720Y194733D01*
Y177800D01*
X457200Y181187D02*
X453813Y177800D01*
X443653D01*
X440267Y181187D01*
Y194733D01*
X443653Y198120D01*
X453813D01*
X457200Y194733D01*
Y191347D01*
X453813Y187960D01*
X440267D01*
X470747Y177800D02*
Y198120D01*
Y194733D01*
X474133Y198120D01*
X484293D01*
X487680Y194733D01*
X497840Y208280D02*
X514773D01*
X518160Y204893D01*
Y198120D01*
X514773Y194733D01*
X501227D01*
X514773D01*
X518160Y191347D01*
Y181187D01*
X514773Y177800D01*
X497840D01*
X501227D02*
Y208280D01*
X531707Y181187D02*
Y194733D01*
X535093Y198120D01*
X545253D01*
X548640Y194733D01*
Y181187D01*
X545253Y177800D01*
X535093D01*
X531707Y181187D01*
X579120Y198120D02*
Y177800D01*
Y181187D01*
X575733Y177800D01*
X565573D01*
X562187Y181187D01*
Y194733D01*
X565573Y198120D01*
X575733D01*
X579120Y194733D01*
X592667Y177800D02*
Y198120D01*
Y194733D01*
X596053Y198120D01*
X606213D01*
X609600Y194733D01*
X640080Y208280D02*
Y177800D01*
X626533D01*
X623147Y181187D01*
Y191347D01*
X626533Y194733D01*
X640080D01*
X254000Y157480D02*
Y127000D01*
X274320D01*
X304800Y147320D02*
Y127000D01*
Y130387D01*
X301413Y127000D01*
X291253D01*
X287867Y130387D01*
Y143933D01*
X291253Y147320D01*
X301413D01*
X304800Y143933D01*
X318347Y147320D02*
Y130387D01*
X321733Y127000D01*
X335280D01*
Y147320D01*
Y120227D01*
X331893Y116840D01*
X321733D01*
X365760Y130387D02*
X362373Y127000D01*
X352213D01*
X348827Y130387D01*
Y143933D01*
X352213Y147320D01*
X362373D01*
X365760Y143933D01*
Y140547D01*
X362373Y137160D01*
X348827D01*
X379307Y127000D02*
Y147320D01*
Y143933D01*
X382693Y147320D01*
X392853D01*
X396240Y143933D01*
X436880Y154093D02*
X440267Y157480D01*
X450427D01*
X453813Y154093D01*
Y150707D01*
X436880Y133773D01*
Y127000D01*
X453813D01*
X254000Y76200D02*
Y96520D01*
X264160Y106680D01*
X274320Y96520D01*
Y89747D01*
X254000D01*
X274320D01*
Y76200D01*
X287867Y66040D02*
Y96520D01*
Y93133D01*
X291253Y96520D01*
X301413D01*
X304800Y93133D01*
Y79587D01*
X301413Y76200D01*
X291253D01*
X287867Y79587D01*
X318347Y76200D02*
Y96520D01*
Y93133D01*
X321733Y96520D01*
X331893D01*
X335280Y93133D01*
X355600Y103293D02*
D01*
Y96520D02*
Y76200D01*
X386080Y106680D02*
Y76200D01*
X382693D02*
X389467D01*
X440267Y99907D02*
X447040Y106680D01*
Y76200D01*
X440267D01*
X453813D01*
X480907Y93133D02*
X470747D01*
X467360Y96520D01*
Y103293D01*
X470747Y106680D01*
X480907D01*
X484293Y103293D01*
Y96520D01*
X480907Y93133D01*
X484293Y89747D01*
Y79587D01*
X480907Y76200D01*
X470747D01*
X467360Y79587D01*
Y89747D01*
X470747Y93133D01*
X508000Y69427D02*
X511387Y72813D01*
Y79587D01*
X508000D01*
Y76200D01*
X511387D01*
X558800Y103293D02*
X562187Y106680D01*
X572347D01*
X575733Y103293D01*
Y99907D01*
X558800Y82973D01*
Y76200D01*
X575733D01*
X609600Y103293D02*
Y79587D01*
X606213Y76200D01*
X592667D01*
X589280Y79587D01*
Y103293D01*
X592667Y106680D01*
X606213D01*
X609600Y103293D01*
Y99907D01*
X589280Y79587D01*
X623147Y99907D02*
X629920Y106680D01*
Y76200D01*
X623147D01*
X636693D01*
X650240Y103293D02*
X653627Y106680D01*
X663787D01*
X667173Y103293D01*
Y99907D01*
X650240Y82973D01*
Y76200D01*
X667173D01*
X714587Y99907D02*
X721360Y106680D01*
Y76200D01*
X714587D01*
X728133D01*
X745067D02*
X751840D01*
X758613Y82973D01*
Y103293D01*
X755227Y106680D01*
X745067D01*
X741680Y103293D01*
Y96520D01*
X745067Y93133D01*
X758613D01*
X785707Y96520D02*
Y99907D01*
X782320D01*
Y96520D01*
X785707D01*
Y82973D02*
Y86360D01*
X782320D01*
Y82973D01*
X785707D01*
X802640Y103293D02*
X806027Y106680D01*
X816187D01*
X819573Y103293D01*
Y93133D01*
X809413D01*
X819573D01*
Y79587D01*
X816187Y76200D01*
X806027D01*
X802640Y79587D01*
X836507Y99907D02*
X843280Y106680D01*
Y76200D01*
X836507D01*
X850053D01*
X877147Y96520D02*
Y99907D01*
X873760D01*
Y96520D01*
X877147D01*
Y82973D02*
Y86360D01*
X873760D01*
Y82973D01*
X877147D01*
X897467Y99907D02*
X904240Y106680D01*
Y76200D01*
X897467D01*
X911013D01*
X924560Y103293D02*
X927947Y106680D01*
X938107D01*
X941493Y103293D01*
Y93133D01*
X931333D01*
X941493D01*
Y79587D01*
X938107Y76200D01*
X927947D01*
X924560Y79587D01*
M02*
