M48
METRIC,TZ
T1C.610
T2C4.013
T3C1.016
T4C1.143
T5C1.600
T6C1.702
T7C.914
T8C2.413
T9C1.118
T10C2.464
T11C.711
T12C.660
T13C1.524
T14C.457
%
M47, File: PcMotherBoard.ncd
M71
G90
G05
T1
X398780Y458470
X382270Y474980
X354330
X337820Y458470
Y430530
X354330Y414020
X382270
X398780Y430530
X347980Y318770
X331470Y335280
X303530
X287020Y318770
Y290830
X303530Y274320
X331470
X347980Y290830
X398780Y1677670
X382270Y1694180
X354330
X337820Y1677670
Y1649730
X354330Y1633220
X382270
X398780Y1649730
X410210Y2331720
X393700Y2348230
X365760
X349250Y2331720
Y2303780
X365760Y2287270
X393700
X410210Y2303780
X1943100Y1781810
X1926590Y1798320
X1898650
X1882140Y1781810
Y1753870
X1898650Y1737360
X1926590
X1943100Y1753870
X1986280Y439420
X1969770Y455930
X1941830
X1925320Y439420
Y411480
X1941830Y394970
X1969770
X1986280Y411480
T2
X368300Y444500
X317500Y304800
X368300Y1663700
X379730Y2317750
X1912620Y1767840
X1955800Y425450
T3
X515620Y350520
X541020
X566420
X591820
X617220
X642620
X668020
X693420
X718820
X515620Y299720
X541020
X566420
X591820
X617220
X642620
X668020
X693420
X718820
X515620Y553720
X541020
X566420
X591820
X617220
X642620
X668020
X693420
X718820
X515620Y502920
X541020
X566420
X591820
X617220
X642620
X668020
X693420
X718820
X351790Y731520
X326390
X300990
X515620Y756920
X541020
X566420
X591820
X617220
X642620
X668020
X693420
X718820
X515620Y706120
X541020
X566420
X591820
X617220
X642620
X668020
X693420
X718820
X358140Y1257300
Y1282700
Y1308100
Y1333500
X387350Y1442720
Y1468120
Y1493520
Y1518920
X669290Y1793240
Y1767840
X643890Y1793240
Y1767840
X618490Y1793240
Y1767840
X593090Y1793240
Y1767840
X567690Y1793240
Y1767840
X474980Y1793240
Y1767840
X449580Y1793240
Y1767840
X424180Y1793240
Y1767840
X398780Y1793240
Y1767840
X373380Y1793240
Y1767840
X1131570Y1813560
Y1788160
X1106170Y1813560
Y1788160
X1080770Y1813560
Y1788160
X1055370Y1813560
Y1788160
X1029970Y1813560
Y1788160
X1004570Y1813560
Y1788160
X979170Y1813560
Y1788160
X953770Y1813560
Y1788160
X928370Y1813560
Y1788160
X902970Y1813560
Y1788160
X877570Y1813560
Y1788160
X852170Y1813560
Y1788160
X826770Y1813560
Y1788160
X758190Y1672590
Y1697990
X783590Y1672590
Y1697990
X808990Y1672590
Y1697990
X834390Y1672590
Y1697990
X859790Y1672590
Y1697990
X885190Y1672590
Y1697990
X910590Y1672590
Y1697990
X935990Y1672590
Y1697990
X961390Y1672590
Y1697990
X986790Y1672590
Y1697990
X1012190Y1672590
Y1697990
X1037590Y1672590
Y1697990
X1062990Y1672590
Y1697990
X1088390Y1672590
Y1697990
X1113790Y1672590
Y1697990
X1139190Y1672590
Y1697990
X1164590Y1672590
Y1697990
X744220Y756920
X769620
X795020
X820420
X845820
X871220
X896620
X922020
X947420
X972820
X998220
X1023620
X1049020
X1074420
X1099820
X1125220
X1150620
X1176020
X1201420
X744220Y706120
X769620
X795020
X820420
X845820
X871220
X896620
X922020
X947420
X972820
X998220
X1023620
X1049020
X1074420
X1099820
X1125220
X1150620
X1176020
X1201420
X744220Y350520
X769620
X795020
X820420
X845820
X871220
X896620
X922020
X947420
X972820
X998220
X1023620
X1049020
X1074420
X1099820
X1125220
X1150620
X1176020
X1201420
X744220Y299720
X769620
X795020
X820420
X845820
X871220
X896620
X922020
X947420
X972820
X998220
X1023620
X1049020
X1074420
X1099820
X1125220
X1150620
X1176020
X1201420
X744220Y553720
X769620
X795020
X820420
X845820
X871220
X896620
X922020
X947420
X972820
X998220
X1023620
X1049020
X1074420
X1099820
X1125220
X1150620
X1176020
X1201420
X744220Y502920
X769620
X795020
X820420
X845820
X871220
X896620
X922020
X947420
X972820
X998220
X1023620
X1049020
X1074420
X1099820
X1125220
X1150620
X1176020
X1201420
X1226820Y350520
X1252220
X1277620
X1226820Y299720
X1252220
X1277620
X1379220Y350520
X1404620
X1430020
X1455420
X1480820
X1506220
X1531620
X1557020
X1582420
X1607820
X1633220
X1658620
X1684020
X1379220Y299720
X1404620
X1430020
X1455420
X1480820
X1506220
X1531620
X1557020
X1582420
X1607820
X1633220
X1658620
X1684020
X1226820Y553720
X1252220
X1277620
X1226820Y502920
X1252220
X1277620
X1379220Y553720
X1404620
X1430020
X1455420
X1480820
X1506220
X1531620
X1557020
X1582420
X1607820
X1633220
X1658620
X1684020
X1379220Y502920
X1404620
X1430020
X1455420
X1480820
X1506220
X1531620
X1557020
X1582420
X1607820
X1633220
X1658620
X1684020
X1226820Y756920
X1252220
X1277620
X1226820Y706120
X1252220
X1277620
X1379220Y756920
X1404620
X1430020
X1455420
X1480820
X1506220
X1531620
X1557020
X1582420
X1607820
X1633220
X1658620
X1684020
X1379220Y706120
X1404620
X1430020
X1455420
X1480820
X1506220
X1531620
X1557020
X1582420
X1607820
X1633220
X1658620
X1684020
X1228090Y1644650
Y1670050
X1253490Y1644650
Y1670050
X1278890Y1644650
Y1670050
X1304290Y1644650
Y1670050
X1329690Y1644650
Y1670050
X1355090Y1644650
Y1670050
X1380490Y1644650
Y1670050
X1405890Y1644650
Y1670050
X1431290Y1644650
Y1670050
X1456690Y1644650
Y1670050
X1482090Y1644650
Y1670050
X1507490Y1644650
Y1670050
X1532890Y1644650
Y1670050
X1558290Y1644650
Y1670050
X1583690Y1644650
Y1670050
X1609090Y1644650
Y1670050
X1634490Y1644650
Y1670050
X1659890Y1644650
Y1670050
X1685290Y1644650
Y1670050
X1228090Y1836420
Y1861820
X1253490Y1836420
Y1861820
X1278890Y1836420
Y1861820
X1304290Y1836420
Y1861820
X1329690Y1836420
Y1861820
X1355090Y1836420
Y1861820
X1380490Y1836420
Y1861820
X1405890Y1836420
Y1861820
X1431290Y1836420
Y1861820
X1456690Y1836420
Y1861820
X1482090Y1836420
Y1861820
X1507490Y1836420
Y1861820
X1532890Y1836420
Y1861820
X1558290Y1836420
Y1861820
X1583690Y1836420
Y1861820
X1609090Y1836420
Y1861820
X1634490Y1836420
Y1861820
X1659890Y1836420
Y1861820
X1685290Y1836420
Y1861820
X1710690Y1836420
Y1861820
Y1644650
Y1670050
X1709420Y756920
X1734820
X1760220
X1785620
X1811020
X1709420Y706120
X1734820
X1760220
X1785620
X1811020
X1911350Y674370
X1936750
X1981200Y725170
Y750570
Y775970
Y801370
X1955800Y725170
Y750570
Y775970
Y801370
X1981200Y839470
X1955800
X1709420Y350520
X1734820
X1760220
X1785620
X1811020
X1709420Y299720
X1734820
X1760220
X1785620
X1811020
X1709420Y553720
X1734820
X1760220
X1785620
X1811020
X1709420Y502920
X1734820
X1760220
X1785620
X1811020
X2268220Y452120
X2242820
X2268220Y477520
X2242820
X2268220Y502920
X2242820
X2268220Y528320
X2242820
X2268220Y553720
X2242820
X2218690Y1263650
Y1289050
Y1314450
X2993390Y670560
Y695960
X3018790Y670560
Y695960
X3044190Y670560
Y695960
T4
X405130Y2081390
Y2156390
Y2231390
X430130Y2206390
Y2106390
X305130Y2206390
Y2106390
T5
X676910Y2357120
X716534
X756158
X795782
X835406
X875030
X915670
X955294
X994918
X1034542
X1074166
X1113790
T6
X775970Y2380742
X1014730
T7
X832866Y2104390
X858266
X883666
X909066
X985266
X1010666
X1036066
X1061466
X1086866
X1112266
X1137666
X1163066
X1188466
X807466Y2142490
X820166Y2123440
X832866Y2142490
X845566Y2123440
X858266Y2142490
X870966Y2123440
X883666Y2142490
X896366Y2123440
X909066Y2142490
X921766Y2123440
X985266Y2142490
X997966Y2123440
X1010666Y2142490
X1023366Y2123440
X1036066Y2142490
X1048766Y2123440
X1061466Y2142490
X1074166Y2123440
X1086866Y2142490
X1099566Y2123440
X1112266Y2142490
X1124966Y2123440
X1137666Y2142490
X1150366Y2123440
X1163066Y2142490
X1175766Y2123440
X1188466Y2142490
X1201166Y2123440
X807466Y2104390
X820166Y2085340
X845566
X870966
X896366
X921766
X997966
X1023366
X1048766
X1074166
X1099566
X1124966
X1150366
X1175766
X1201166
X820166Y1968500
X832866Y1987550
X845566Y1968500
X858266Y1987550
X870966Y1968500
X883666Y1987550
X896366Y1968500
X909066Y1987550
X921766Y1968500
X985266Y1987550
X997966Y1968500
X1010666Y1987550
X1023366Y1968500
X1036066Y1987550
X1048766Y1968500
X1061466Y1987550
X1074166Y1968500
X1086866Y1987550
X1099566Y1968500
X1112266Y1987550
X1124966Y1968500
X1137666Y1987550
X1150366Y1968500
X1163066Y1987550
X1175766Y1968500
X1188466Y1987550
X1201166Y1968500
X807466Y2025650
X820166Y2006600
X832866Y2025650
X845566Y2006600
X858266Y2025650
X870966Y2006600
X883666Y2025650
X896366Y2006600
X909066Y2025650
X921766Y2006600
X985266Y2025650
X997966Y2006600
X1010666Y2025650
X1023366Y2006600
X1036066Y2025650
X1048766Y2006600
X1061466Y2025650
X1074166Y2006600
X1086866Y2025650
X1099566Y2006600
X1112266Y2025650
X1124966Y2006600
X1137666Y2025650
X1150366Y2006600
X1163066Y2025650
X1175766Y2006600
X1188466Y2025650
X1201166Y2006600
X807466Y1987550
X1226566Y2085340
X1251966
X1277366
X1302766
X1328166
X1353566
X1429766
X1455166
X1480566
X1505966
X1531366
X1556766
X1582166
X1607566
X1632966
X1658366
X1683766
X1213866Y1987550
X1226566Y1968500
X1239266Y1987550
X1251966Y1968500
X1264666Y1987550
X1277366Y1968500
X1290066Y1987550
X1302766Y1968500
X1315466Y1987550
X1328166Y1968500
X1340866Y1987550
X1353566Y1968500
X1417066Y1987550
X1429766Y1968500
X1442466Y1987550
X1455166Y1968500
X1467866Y1987550
X1480566Y1968500
X1493266Y1987550
X1505966Y1968500
X1518666Y1987550
X1531366Y1968500
X1544066Y1987550
X1556766Y1968500
X1569466Y1987550
X1582166Y1968500
X1594866Y1987550
X1607566Y1968500
X1620266Y1987550
X1632966Y1968500
X1645666Y1987550
X1658366Y1968500
X1671066Y1987550
X1683766Y1968500
X1213866Y2025650
X1226566Y2006600
X1239266Y2025650
X1251966Y2006600
X1264666Y2025650
X1277366Y2006600
X1290066Y2025650
X1302766Y2006600
X1315466Y2025650
X1328166Y2006600
X1340866Y2025650
X1353566Y2006600
X1417066Y2025650
X1429766Y2006600
X1442466Y2025650
X1455166Y2006600
X1467866Y2025650
X1480566Y2006600
X1493266Y2025650
X1505966Y2006600
X1518666Y2025650
X1531366Y2006600
X1544066Y2025650
X1556766Y2006600
X1569466Y2025650
X1582166Y2006600
X1594866Y2025650
X1607566Y2006600
X1620266Y2025650
X1632966Y2006600
X1645666Y2025650
X1658366Y2006600
X1671066Y2025650
X1683766Y2006600
X1213866Y2104390
X1239266
X1264666
X1290066
X1315466
X1340866
X1417066
X1442466
X1467866
X1493266
X1518666
X1544066
X1569466
X1594866
X1620266
X1645666
X1671066
X1213866Y2142490
X1226566Y2123440
X1239266Y2142490
X1251966Y2123440
X1264666Y2142490
X1277366Y2123440
X1290066Y2142490
X1302766Y2123440
X1315466Y2142490
X1328166Y2123440
X1340866Y2142490
X1353566Y2123440
X1417066Y2142490
X1429766Y2123440
X1442466Y2142490
X1455166Y2123440
X1467866Y2142490
X1480566Y2123440
X1493266Y2142490
X1505966Y2123440
X1518666Y2142490
X1531366Y2123440
X1544066Y2142490
X1556766Y2123440
X1569466Y2142490
X1582166Y2123440
X1594866Y2142490
X1607566Y2123440
X1620266Y2142490
X1632966Y2123440
X1645666Y2142490
X1658366Y2123440
X1671066Y2142490
X1683766Y2123440
X1696466Y2104390
X1721866
X1747266
X1772666
X1798066
X1823466
X1848866
X1874266
X1899666
X1925066
X1950466
X1696466Y2142490
X1709166Y2123440
X1721866Y2142490
X1734566Y2123440
X1747266Y2142490
X1759966Y2123440
X1772666Y2142490
X1785366Y2123440
X1798066Y2142490
X1810766Y2123440
X1823466Y2142490
X1836166Y2123440
X1848866Y2142490
X1861566Y2123440
X1874266Y2142490
X1886966Y2123440
X1899666Y2142490
X1912366Y2123440
X1925066Y2142490
X1937766Y2123440
X1950466Y2142490
X1963166Y2123440
X1709166Y2085340
X1734566
X1759966
X1785366
X1810766
X1836166
X1861566
X1886966
X1912366
X1937766
X1963166
X1696466Y1987550
X1709166Y1968500
X1721866Y1987550
X1734566Y1968500
X1747266Y1987550
X1759966Y1968500
X1772666Y1987550
X1785366Y1968500
X1798066Y1987550
X1810766Y1968500
X1823466Y1987550
X1836166Y1968500
X1848866Y1987550
X1861566Y1968500
X1874266Y1987550
X1886966Y1968500
X1899666Y1987550
X1912366Y1968500
X1925066Y1987550
X1937766Y1968500
X1950466Y1987550
X1963166Y1968500
X1696466Y2025650
X1709166Y2006600
X1721866Y2025650
X1734566Y2006600
X1747266Y2025650
X1759966Y2006600
X1772666Y2025650
X1785366Y2006600
X1798066Y2025650
X1810766Y2006600
X1823466Y2025650
X1836166Y2006600
X1848866Y2025650
X1861566Y2006600
X1874266Y2025650
X1886966Y2006600
X1899666Y2025650
X1912366Y2006600
X1925066Y2025650
X1937766Y2006600
X1950466Y2025650
X1963166Y2006600
X2056130Y400050
Y349250
X2162810Y400050
Y349250
X2269490Y400050
Y349250
X2557780Y615950
X2451100
X2344420
X2557780Y666750
X2451100
X2344420
X2887980Y642620
X2781300
X2674620
X2687320Y374650
X2636520
X2794000
X2743200
X2767330Y481330
X2716530
X2887980Y591820
X2781300
X2674620
T8
X953516Y2113915
X775716
X953516Y1997075
X775716
X1385316
Y2113915
X1994916
Y1997075
T9
X673100Y915670
X698500
X723900
X685800Y839470
X711200
X685800Y890270
X711200
X673100Y864870
X698500
X723900
X673100Y1118870
X698500
X723900
X685800Y1042670
X711200
X685800Y1093470
X711200
X673100Y1068070
X698500
X723900
X673100Y1322070
X698500
X723900
X685800Y1245870
X711200
X685800Y1296670
X711200
X673100Y1271270
X698500
X723900
X673100Y1525270
X698500
X723900
X685800Y1449070
X711200
X685800Y1499870
X711200
X673100Y1474470
X698500
X723900
X749300Y1525270
X774700
X800100
X825500
X850900
X876300
X901700
X927100
X952500
X977900
X1003300
X1028700
X1054100
X1079500
X1104900
X1130300
X1155700
X1181100
X1206500
X736600Y1449070
X762000
X787400
X812800
X838200
X863600
X889000
X914400
X939800
X965200
X990600
X1016000
X1041400
X1066800
X1092200
X1117600
X1143000
X1168400
X1193800
X736600Y1499870
X762000
X787400
X812800
X838200
X863600
X889000
X914400
X939800
X965200
X990600
X1016000
X1041400
X1066800
X1092200
X1117600
X1143000
X1168400
X1193800
X749300Y1474470
X774700
X800100
X825500
X850900
X876300
X901700
X927100
X952500
X977900
X1003300
X1028700
X1054100
X1079500
X1104900
X1130300
X1155700
X1181100
X1206500
X749300Y1118870
X774700
X800100
X825500
X850900
X876300
X901700
X927100
X952500
X977900
X1003300
X1028700
X1054100
X1079500
X1104900
X1130300
X1155700
X1181100
X1206500
X736600Y1042670
X762000
X787400
X812800
X838200
X863600
X889000
X914400
X939800
X965200
X990600
X1016000
X1041400
X1066800
X1092200
X1117600
X1143000
X1168400
X1193800
X736600Y1093470
X762000
X787400
X812800
X838200
X863600
X889000
X914400
X939800
X965200
X990600
X1016000
X1041400
X1066800
X1092200
X1117600
X1143000
X1168400
X1193800
X749300Y1068070
X774700
X800100
X825500
X850900
X876300
X901700
X927100
X952500
X977900
X1003300
X1028700
X1054100
X1079500
X1104900
X1130300
X1155700
X1181100
X1206500
X749300Y1322070
X774700
X800100
X825500
X850900
X876300
X901700
X927100
X952500
X977900
X1003300
X1028700
X1054100
X1079500
X1104900
X1130300
X1155700
X1181100
X1206500
X736600Y1245870
X762000
X787400
X812800
X838200
X863600
X889000
X914400
X939800
X965200
X990600
X1016000
X1041400
X1066800
X1092200
X1117600
X1143000
X1168400
X1193800
X736600Y1296670
X762000
X787400
X812800
X838200
X863600
X889000
X914400
X939800
X965200
X990600
X1016000
X1041400
X1066800
X1092200
X1117600
X1143000
X1168400
X1193800
X749300Y1271270
X774700
X800100
X825500
X850900
X876300
X901700
X927100
X952500
X977900
X1003300
X1028700
X1054100
X1079500
X1104900
X1130300
X1155700
X1181100
X1206500
X749300Y915670
X774700
X800100
X825500
X850900
X876300
X901700
X927100
X952500
X977900
X1003300
X1028700
X1054100
X1079500
X1104900
X1130300
X1155700
X1181100
X1206500
X736600Y839470
X762000
X787400
X812800
X838200
X863600
X889000
X914400
X939800
X965200
X990600
X1016000
X1041400
X1066800
X1092200
X1117600
X1143000
X1168400
X1193800
X736600Y890270
X762000
X787400
X812800
X838200
X863600
X889000
X914400
X939800
X965200
X990600
X1016000
X1041400
X1066800
X1092200
X1117600
X1143000
X1168400
X1193800
X749300Y864870
X774700
X800100
X825500
X850900
X876300
X901700
X927100
X952500
X977900
X1003300
X1028700
X1054100
X1079500
X1104900
X1130300
X1155700
X1181100
X1206500
X1231900Y915670
X1257300
X1282700
X1333500
X1358900
X1384300
X1409700
X1435100
X1219200Y839470
X1244600
X1270000
X1320800
X1346200
X1371600
X1397000
X1422400
X1447800
X1219200Y890270
X1244600
X1270000
X1320800
X1346200
X1371600
X1397000
X1422400
X1447800
X1231900Y864870
X1257300
X1282700
X1333500
X1358900
X1384300
X1409700
X1435100
X1231900Y1118870
X1257300
X1282700
X1333500
X1358900
X1384300
X1409700
X1435100
X1219200Y1042670
X1244600
X1270000
X1320800
X1346200
X1371600
X1397000
X1422400
X1447800
X1219200Y1093470
X1244600
X1270000
X1320800
X1346200
X1371600
X1397000
X1422400
X1447800
X1231900Y1068070
X1257300
X1282700
X1333500
X1358900
X1384300
X1409700
X1435100
X1231900Y1322070
X1257300
X1282700
X1333500
X1358900
X1384300
X1409700
X1435100
X1219200Y1245870
X1244600
X1270000
X1320800
X1346200
X1371600
X1397000
X1422400
X1447800
X1219200Y1296670
X1244600
X1270000
X1320800
X1346200
X1371600
X1397000
X1422400
X1447800
X1231900Y1271270
X1257300
X1282700
X1333500
X1358900
X1384300
X1409700
X1435100
X1231900Y1525270
X1257300
X1282700
X1333500
X1358900
X1384300
X1409700
X1435100
X1219200Y1449070
X1244600
X1270000
X1320800
X1346200
X1371600
X1397000
X1422400
X1447800
X1219200Y1499870
X1244600
X1270000
X1320800
X1346200
X1371600
X1397000
X1422400
X1447800
X1231900Y1474470
X1257300
X1282700
X1333500
X1358900
X1384300
X1409700
X1435100
X2557780Y463550
Y573532
X2999740Y640842
Y530860
T10
X654050Y877570
Y1080770
Y1283970
Y1487170
X1301750Y877570
Y1080770
Y1283970
Y1487170
T11
X902970Y1732280
X928370
X953770
X979170
X1004570
X1029970
X1055370
X1080770
X925830Y1870710
X951230
X976630
X1002030
X1027430
X1052830
X1078230
X1103630
X986790Y1640840
X1012190
X1037590
X1062990
X1088390
X1113790
X1139190
X1164590
T12
X2517140Y994410
X2542540
X2504440Y981710
X2529840
X2555240
X2517140Y969010
X2542540
X2504440Y956310
X2529840
X2555240
X2580640
X2606040
X2631440
X2517140Y943610
X2542540
X2567940
X2593340
X2618740
X2504440Y930910
X2529840
X2555240
X2580640
X2606040
X2631440
X2517140Y918210
X2542540
X2567940
X2593340
X2618740
X2504440Y905510
X2529840
X2555240
X2580640
X2606040
X2631440
X2529840Y1362710
X2555240
X2580640
X2606040
X2631440
X2517140Y1350010
X2542540
X2567940
X2593340
X2618740
X2504440Y1337310
X2529840
X2555240
X2580640
X2606040
X2631440
X2517140Y1324610
X2542540
X2567940
X2593340
X2618740
X2504440Y1311910
X2529840
X2555240
X2580640
X2606040
X2631440
X2517140Y1299210
X2542540
X2567940
X2504440Y1286510
X2529840
X2555240
X2517140Y1273810
X2542540
X2504440Y1261110
X2529840
X2555240
X2517140Y1248410
X2542540
X2504440Y1235710
X2529840
X2555240
X2517140Y1223010
X2542540
X2504440Y1210310
X2529840
X2555240
X2517140Y1197610
X2542540
X2504440Y1184910
X2529840
X2555240
X2517140Y1172210
X2542540
X2504440Y1159510
X2529840
X2555240
X2517140Y1146810
X2542540
X2504440Y1134110
X2529840
X2555240
X2517140Y1121410
X2542540
X2504440Y1108710
X2529840
X2555240
X2517140Y1096010
X2542540
X2504440Y1083310
X2529840
X2555240
X2517140Y1070610
X2542540
X2504440Y1057910
X2529840
X2555240
X2517140Y1045210
X2542540
X2504440Y1032510
X2529840
X2555240
X2517140Y1019810
X2542540
X2504440Y1007110
X2529840
X2555240
X2656840Y1362710
X2682240
X2707640
X2733040
X2758440
X2783840
X2809240
X2834640
X2860040
X2885440
X2910840
X2936240
X2961640
X2644140Y1350010
X2669540
X2694940
X2720340
X2745740
X2771140
X2796540
X2821940
X2847340
X2872740
X2898140
X2923540
X2948940
X2656840Y1337310
X2682240
X2707640
X2733040
X2758440
X2783840
X2809240
X2834640
X2860040
X2885440
X2910840
X2936240
X2961640
X2644140Y1324610
X2669540
X2694940
X2720340
X2745740
X2771140
X2796540
X2821940
X2847340
X2872740
X2898140
X2923540
X2948940
X2656840Y1311910
X2682240
X2707640
X2733040
X2758440
X2783840
X2809240
X2834640
X2860040
X2885440
X2910840
X2936240
X2961640
X2923540Y1299210
X2948940
X2910840Y1286510
X2936240
X2961640
X2923540Y1273810
X2948940
X2910840Y1261110
X2936240
X2961640
X2923540Y1248410
X2948940
X2910840Y1235710
X2936240
X2961640
X2923540Y1223010
X2948940
X2910840Y1210310
X2936240
X2961640
X2923540Y1197610
X2948940
X2910840Y1184910
X2936240
X2961640
X2923540Y1172210
X2948940
X2910840Y1159510
X2936240
X2961640
X2923540Y1146810
X2948940
X2910840Y1134110
X2936240
X2961640
X2923540Y1121410
X2948940
X2910840Y1108710
X2936240
X2961640
X2923540Y1096010
X2948940
X2910840Y1083310
X2936240
X2961640
X2923540Y1070610
X2948940
X2910840Y1057910
X2936240
X2961640
X2923540Y1045210
X2948940
X2910840Y1032510
X2936240
X2961640
X2923540Y1019810
X2948940
X2910840Y1007110
X2936240
X2961640
X2923540Y994410
X2948940
X2910840Y981710
X2936240
X2961640
X2898140Y969010
X2923540
X2948940
X2656840Y956310
X2682240
X2707640
X2733040
X2758440
X2783840
X2809240
X2834640
X2860040
X2885440
X2910840
X2936240
X2961640
X2644140Y943610
X2669540
X2694940
X2720340
X2745740
X2771140
X2796540
X2821940
X2847340
X2872740
X2898140
X2923540
X2948940
X2656840Y930910
X2682240
X2707640
X2733040
X2758440
X2783840
X2809240
X2834640
X2860040
X2885440
X2910840
X2936240
X2961640
X2644140Y918210
X2669540
X2694940
X2720340
X2745740
X2771140
X2796540
X2821940
X2847340
X2872740
X2898140
X2923540
X2948940
X2656840Y905510
X2682240
X2707640
X2733040
X2758440
X2783840
X2809240
X2834640
X2860040
X2885440
X2910840
X2936240
X2961640
T13
X2108200Y819150
Y614172
T14
X668020Y568706
X718312Y570230
X693420Y587248
X642112Y583184
X616712Y586994
X591820Y589280
X566166Y591312
X541020Y594868
X394716Y622554
Y612648
X395224Y602742
X393700Y592074
X392684Y581406
X389382Y571754
X386588Y560832
X384048Y548386
X288036Y471170
X328930Y397764
X303530Y515620
X334772Y545338
X336042Y583184
X358648Y588518
X364744Y566674
X719074Y620268
X361188Y607060
X338074Y602742
X500888Y609600
X302260Y435610
X310896Y427228
X299720Y452628
X434340Y415290
X456692Y398272
X457200Y360680
X412496Y297180
X658876Y483616
X645668Y363220
X595122Y363474
X677164Y363220
X697230
X726948Y362966
X365506Y552196
X654812Y763778
X705358Y765810
X566166Y810514
X642620Y822706
X668020Y807974
X486664Y855980
X467614Y966470
X472694Y975868
X391668Y928116
X441706Y935990
X443738Y946150
X435610Y956564
X437896Y970534
X479806Y984758
X713994Y772922
X399034Y916178
X403860Y928116
X420878Y922782
X413004Y914654
X482600Y940816
X482346Y930910
X479298Y877570
X612902Y928878
Y939038
X599440Y925830
X733044Y979932
X580136Y912368
X603758Y810006
X446024Y963422
X612394Y917956
X579374Y850900
X581406Y882396
X363220Y845566
X432308Y918464
X382016Y631698
X323850Y713232
X308610Y712470
X339090Y713232
X369316Y712724
X496316Y867410
X362966Y982218
X467868Y1044448
X478282Y1047496
X400558Y1023874
X466852Y995934
X438658Y1286256
X446532Y1295654
X723900Y1344168
Y1136396
X681990Y1189228
X387604Y1185672
X360864Y1002100
X372590Y1112040
X414528Y1112360
X403860Y1198118
X327152Y1295908
X407416Y1257300
X495300Y1022096
X496062Y1041146
X366776Y1320800
X441706Y1523492
X684530Y1394968
X308610Y1389634
X377952Y1399540
X439420Y1440688
X450088Y1451102
X426974Y1529080
X356870Y1479550
X332994Y1573784
X410210Y1584960
X615188Y1905000
X634238
X434086Y1926082
X447040Y1875282
X445008Y1837182
X543306Y1939290
X318516Y1971040
X543052Y1824736
X390906
X349758Y1824990
X488188Y1929384
X393700Y1939290
X723900Y2025904
X635254Y1939290
X466090Y1949958
X524002Y1861566
X683006Y1824990
X667512Y1732280
X466090Y1814576
X322072Y1856994
X477520Y1733042
X518668Y2152650
X530606Y2316734
X511048Y2213610
X508000Y2151380
X508254Y2113280
X867156Y2173986
X859028Y2181352
X833882Y2197354
X1036066Y2233930
X1179068Y2231390
X1188212Y2245868
X1198372Y2265680
X1198880Y2277872
X1172464Y2269744
X862584Y2203958
X1185418Y2267204
X1086866Y2249424
X1099058Y2260854
X765810Y2260346
X962660Y2261362
X948690Y2257298
Y2221992
X806958Y2056384
X900176Y1927098
X896620Y1849882
X938784Y1927860
X920242Y1764792
X963422Y1927352
X974598
X964438Y1776730
X1168654Y2054860
X1125474Y2034540
X890016Y2047240
X870458Y2058670
X914908Y1858264
X945134Y1858518
X997458Y1858772
X1035050Y1859534
X1050290Y1858518
X1080770Y1858772
X1111758Y1859788
X1141730
X1144270Y1742186
X1129030Y1740662
X1102360Y1740916
X1045972Y1741932
X974852Y1775714
X956564Y1859280
X1017270Y1734820
X819404Y2069592
X1192530Y1752346
X1148842Y1624330
X1164336Y1615948
X1076198Y1543304
X800100Y1407414
X863346Y1533906
X889000Y1406144
X913638
X1145286Y1555242
X1032002Y1712214
X783336Y1558290
X930402Y1545590
X903732Y1557782
X901446Y1337310
X941578Y1171956
X893826Y1148080
X894080Y1136396
X910082Y1145794
X911098Y1157224
X876300Y1161796
X822452Y1010666
X839470Y1354328
X786384Y1213866
X972312Y1011428
X933958Y1189482
X750570Y819912
X740918Y936752
X762000Y945388
X749300Y943610
X800862Y809752
X823722Y947674
X862330Y945134
X937006Y946404
X1090168Y945896
X1013206Y944626
X739394Y480314
X1201420Y410718
X753110Y362966
X790448Y487172
X815340Y488188
X841502Y487680
X864362Y484378
X921766Y476758
X968502Y478790
X995172Y477012
X1045972Y477520
X1071626Y477774
X1096772Y478028
X1122172Y477520
X1150112Y452374
X1185672Y403352
X1157986Y384302
X1132840Y403352
X1107440Y383794
X1086358Y374142
X1056132Y384048
X1035304Y374650
X1005840Y383286
X984504Y374650
X955548Y378460
X934720Y373126
X904748Y368046
X882904Y364490
X853948Y363474
X831596Y363220
X803656
X1344676Y484378
X1333500Y297434
X1333246Y477266
X1352550Y377190
X1320800Y378460
X1379220Y408686
X1405890Y408732
X1430020
X1455420
X1480820
X1506220
X1531620
X1557020
X1365504Y462026
X1402334Y444246
X1480820
X1505966Y438150
X1582420Y442722
X1595628Y399034
X1658620Y411988
X1253236Y408940
X1226566Y452882
X1239774Y759968
X1333246Y692658
X1344676Y735584
X1590040Y970280
X1397762Y943864
X1297940Y678688
X1325118Y678180
X1511300Y947420
X1666240Y995680
X1653540
X1628140
X1666240Y1008380
X1628140
X1640840Y995680
X1653286Y1008634
X1679194Y1008126
X1678940Y1021080
X1308608Y1318260
X1602740Y1173480
X1615440
X1628140
X1640840
X1653540
X1666240
X1678940
X1602740Y1160780
X1615440
X1628140
X1640840
X1653540
X1678940
X1525016Y1360932
X1541780Y1358900
X1522984Y1347978
X1666240Y1266952
X1646936Y1258062
X1643634Y1267714
X1521206Y1334516
X1530350Y1327912
X1620012Y1255014
X1523238Y1321308
X1627632Y1248156
X1513078Y1228598
X1513586Y1217930
X1513840Y1206246
X1606550Y1240028
X1599692Y1247394
X1513840Y1196086
X1519682Y1186688
X1528572Y1179576
X1530604Y1167638
X1520190Y1236218
X1493774Y1232916
X1500378Y1243584
X1512062Y1286256
X1521714Y1268730
X1513840Y1261872
X1522476Y1255522
X1530604Y1314450
X1529334Y1147826
X1550670Y1153668
X1585468Y1230122
X1572006Y1208532
X1562100Y1210818
X1512316Y1275334
X1520444Y1291844
X1529588Y1288288
X1538478Y1292606
X1575816Y1233170
X1461262Y1150620
X1311910Y1111758
X1666240Y1148080
Y1160780
X1653540Y1097280
X1510538Y1150874
X1498092
X1486408Y1150366
X1507490Y1134110
X1683004Y1033780
X1628140Y1084580
X1451102Y1014222
X1449578Y1214374
X1556258Y1097026
X1659890Y1037336
X1679194Y1147572
X1342390Y1214120
X1528318Y1031240
X1457960Y1112520
X1465580Y1008380
X1488440Y1467104
X1500886Y1469898
X1498092Y1457452
X1508760Y1458976
X1494536Y1444244
X1511046Y1441958
X1499870Y1429766
X1518158Y1430274
X1506728Y1416050
X1522476Y1415796
X1510792Y1403096
X1528064Y1402588
X1512316Y1389888
X1531620Y1386840
X1518412Y1375918
X1537716Y1373886
X1515872Y1483614
X1656334Y1367282
X1643888Y1380490
X1454912Y1560830
X1468374Y1563116
X1477010Y1555750
X1487932Y1555242
X1480058Y1535430
X1554988Y1517904
X1395984Y1544320
X1550924Y1682242
X1590802Y1498092
X1570228Y1498854
X1516634Y2055114
X1582928Y2054860
X1500378Y2067814
X1534160Y1885950
X1234948Y1750822
X1286510Y1746504
X1655572Y2238756
X1640332Y2200910
X1622044Y2206498
X1604264Y2209546
X1612138Y2215388
X1242822Y2236724
X1467866Y2242566
X1449070Y2258060
X1493266Y2280920
X1429512Y2288794
X1491234Y2311400
X1322324Y2290572
X1273810Y2264664
X1245616Y2285492
X1228598Y2294128
X1213866Y2269744
X1512570Y2248408
X1541780Y2246630
X1229614Y2252218
X1680972Y2263648
X1670812
X1652524Y2289048
X1661160Y2296414
Y2315464
X1641602Y2288032
X1630426Y2288794
X1617980Y2290064
X1641602Y2318004
X1630426Y2353564
X1622298Y2319782
X1616964Y2372868
X1455674Y2317496
X1465834
X1475740Y2318766
X1482598Y2326386
X1345438Y2307336
X1335786
X1325626Y2307082
X1315466Y2307336
X1305560
X1294638
X1268222Y2307082
X1279652Y2307336
X1241552Y2307590
X1251458
X1260094Y2312670
X1400810Y2380742
X1387602Y2377186
X1368552Y2389378
X1347470Y2391156
X1301242Y2376932
X1317752Y2377186
X1288034Y2315464
X1273810Y2376932
X1256538Y2392426
X1330198Y2393950
X1322578Y2400554
X1296670Y2393950
X1298448Y2409698
X1465834Y2381250
X1482344Y2384044
X1472946Y2387854
X1455420Y2382266
X1884680Y2177796
X1854962Y2181606
X1845056
X1835150
X1824990Y2181352
X1819148Y2194306
X1814576Y2208530
X1798066Y2197608
X1850644Y2221738
X1798828Y2230628
X1782826Y2209800
X1757680Y2200402
X1771650Y2224786
X1755648Y2269490
X1743202Y2257806
X1712214Y2251456
X1697990Y2274062
X1702054Y2290064
X1855216Y2051050
X1822450Y2053590
X1762252Y2054606
X1696212Y2054860
X1847596Y1444752
X1973326
X1824228Y1417320
X2084324Y1380744
X2078482Y1456182
X2100326Y1462024
X2068830Y1445006
X2058924Y1433322
X2033778Y1370584
X2032000Y1423670
X2097024Y1380744
X2137156Y1380998
X2066036Y1390396
X1846834Y1404874
X2011680Y1521714
X1793240Y995680
X1767840
X1742440
X1691640
X1767840Y1008380
X1742440
X1691640
X1729740
X1780540
X1729740Y1021080
X1780540
X1704340Y1160780
X1703832Y1291336
X1691386Y1276604
Y1266444
X1704340Y1097280
X1717040
X1729740
Y1084580
X1717040
X1704340
Y1071880
X1717040
X1729994Y1071626
X1708912Y1314196
X1755140Y1173480
Y1160780
X1742440Y1173480
X1767840
X1780540
X1767840Y1160780
X1723898Y1329944
X1731010Y1322832
X1763268Y1290574
X1780540Y1304798
X1784096Y1314958
X1793494Y1279906
X1799082Y1289304
X1807210Y1260602
X1824736Y1353312
X1805940Y1173480
Y1160780
Y1148080
Y1135380
Y1122680
X1793240Y1148080
Y1135380
Y1122680
X1873504Y1215644
X1899920Y1204468
X1780540Y1148080
X1767840Y1135380
X1742440Y1148080
X1717040Y1160780
X1756664Y1035304
X1760220Y1024128
X1915922Y1173734
Y1183640
X1923796Y1162050
X1780540Y1135634
X1729740Y1160780
X1737360Y1336548
X1717040Y1173734
X1689862Y1042162
X1693164Y1025398
X1707134Y1046988
X1717294Y995426
X1729486Y1043432
X1847850Y1051306
X1757934Y1057656
X2025904Y1014476
X1982724Y1056894
X1956562Y1050544
X2099056Y1189736
X2116328Y1137412
X2132838Y1146556
X2106422Y1122680
X2136394Y1192530
X1916430Y1006602
X1906778Y1013206
X1916938Y1017016
X1905000Y1028954
X1914144Y1034288
X1935988Y1037844
X1866138Y1063244
X1891792Y1060450
X1890014Y1043940
X1792986Y1059180
X1780286Y1033526
X1707896Y1131570
X1859280Y1047242
X1692402Y1224788
Y1255776
X1704340Y1173480
X1691640Y1146556
X1703832Y1148080
X1972818Y1070102
X1976120Y1263396
X2051304Y1257046
X2104390Y1257300
X2148586Y1256792
X2155190Y1318768
X2117090Y1318260
X2078990Y1318006
X2079752Y1193800
X2147570Y1193038
X2106676Y1098296
X2012950Y1128522
X2070608Y1164336
X1914652Y1147826
X1898904Y1122172
X1917700Y1121156
X1927352Y1125982
X1814576Y878840
X2037334Y733806
X1961642Y641858
X1986280Y652780
X1941322Y801370
X1998218Y725170
X1926590Y734060
X1927098Y748284
X1938782Y850900
X1928622Y894588
X1926844Y942340
X1893824Y957834
X1786128Y645922
X1992376Y295402
X1811020Y454914
X1905762Y545084
X1684020Y412242
X1709420Y412288
X1734820
X1760220
X1785620
X1811020
X2458466Y452120
Y439420
X2458212Y426720
Y414020
X2321306Y452120
Y426720
Y350520
X2364740Y414020
X2364613Y401320
Y388620
Y363220
Y439420
X2364486Y375920
X2416810Y401320
Y388620
Y477520
X2281174Y487680
X2502408Y460502
X2505710Y599694
X2416810Y375920
X2427478Y850900
X2396998Y851154
X2398268Y887984
X2394204Y897636
X2395982Y917194
X2410206Y907034
Y968248
X2398014Y951992
X2394966Y876300
X2382774Y957072
X2338070
X2404110Y1356106
X2414270Y1353312
X2425192
X2189480Y1194054
X2382520Y999236
X2407412Y1220216
X2410714Y1178560
X2411222Y1137920
X2411984Y1097280
Y1056640
Y1036066
X2386076Y1215390
X2369312Y1159256
X2417318Y1236980
X2366518Y1233170
X2338070Y1259840
X2362708Y1266698
X2368550Y1119886
X2371344Y1076960
X2369058Y1037844
X2193290Y1257554
X2174240Y1193038
X2204720Y1193800
X2202180Y1158494
X2223516Y1152144
X2303272Y1601724
X2309368Y1569720
X2302256Y1562862
X2308606Y1543558
X2309114Y1533144
X2309876Y1522730
X2308352Y1513078
X2305558Y1503172
X2302510Y1493520
X2300732Y1673860
X2256790Y1681988
X2426462Y1647698
X2426310Y1634744
X2415362Y1628140
X2426614Y1609014
X2418588Y1602156
X2426310Y1595679
Y1569644
X2467534Y1497736
X2302510Y1640840
X2302256Y1626362
X2316226Y1620266
X2320798Y1587246
X2315210Y1647190
X2326386Y1659890
X2325116Y1670304
X2301494Y1654302
X2312670Y1663446
X2470658Y1523492
X2479040Y1533144
X2473452Y1543304
X2426208Y1558544
X2391410Y1612138
X2351278Y1607058
X2427224Y1663446
X2407412Y1658112
X2398776Y1652016
X2348230Y1620520
X2400554Y1674876
X2377694Y1680718
X2386838Y1405890
Y1416558
X2419604Y1368806
X2387092Y1675638
X2343912Y1673606
X2366010Y1659382
Y1649222
X2389378Y1655318
X2394458Y1639062
X2462022Y1371092
X2555494Y1680718
X2554478Y1670050
X2552192Y1659890
X2548382Y1650238
X2419858Y1722628
X2308352Y1723898
X2467610Y1654556
X2468880Y1621536
X2482596Y1594358
X2426462Y1582166
Y1517650
X2489454Y1504696
X2510028Y1527302
X2489454Y1553464
X2472436Y1556258
X2377694Y1449324
X2377948Y1420622
X2382520Y1430528
X2377694Y1439418
X2256790Y1576832
X2259330Y1589024
X2258822Y1554734
X2225040Y1554480
X2261362Y1660144
X2245106Y1654302
X2226056Y1625854
X2281682Y1726692
X2259838Y1515364
X2365756Y1728724
X2358390Y1722120
X2632710Y1437894
X2181860Y1381506
X2203450Y1382014
X2277110Y1429004
X2302256Y1552448
X2258060Y1615186
X2426462Y1506474
X2471166Y1688338
X2452878Y1688846
X2389378Y2094738
X2379980Y2091944
X2370836Y2087118
X2362708Y2080260
X2399284Y2073656
X2391664Y2067052
X2382012Y2064004
X2372360Y2060956
X2364232Y2055368
X2405126Y2048002
X2417064Y2041652
X2415540Y2032000
X2514600Y2094230
X2407158Y2011680
X2396490Y2016760
X2405380Y2021586
X2565400Y2094230
X2578100
X2590800
X2603500
X2616200
X2628900
X2565400Y2081530
X2578100
X2590800
X2603500
X2616200
X2628900
X2578100Y2068830
X2590800
X2513838Y2019300
X2527300Y2068830
X2527046Y2009902
X2349754Y1745488
X2339594Y1744472
X2336800Y1733550
X2362200Y1810512
X2356612Y1797812
X2492502Y1811782
X2458720Y1787906
X2450338Y1779016
X2459482Y1798574
X2434844Y1788922
X2543302Y1965960
X2416556Y1772158
X2432304Y1768602
X2622550Y1968246
X2592070Y1915160
X2598420Y1903222
X2589276Y1898396
X2559050Y1997710
X2569718Y1912366
X2605786Y1886966
X2520950Y1735582
X2527300Y1745488
X2524252Y1936496
X2511044Y1930146
X2628646Y1878584
X2621788Y1870964
X2572004Y1810258
X2558796Y1817370
X2628392Y1824736
Y1836928
X2608834Y1819910
X2609088Y1834642
X2618486Y1837690
X2543556Y1855978
X2551430Y1864360
X2572512Y1854962
X2562352Y1864614
X2589276Y1859280
X2368804Y1995678
X2418588Y2013458
X2428494Y2012442
X2441194Y2033524
X2470658Y2063496
X2540000Y2068830
X2583942Y1957070
X2556002Y1971802
X2561590Y1959102
X2575052Y1973072
X2585212Y1973834
X2453386Y1736344
X2359406Y1742694
X2387346Y1855470
X2456434
X2327910Y1968754
X2314194Y1939290
X2227580Y1860550
X2206244Y1837944
X2616200Y2246630
X2603500
X2590800
X2578100
X2565400
X2552700
X2540000
X2527300
X2514600
X2578100Y2233930
X2565400
X2552700
X2540000
X2527300
Y2195830
X2411730Y2162302
X2401570
X2391156
X2380742Y2160778
X2371344Y2157730
X2361438Y2156968
X2351532Y2154174
X2343150Y2147316
X2414270Y2130806
X2514600Y2208530
Y2195830
X2546096Y2132076
X2541524Y2120138
X2514854Y2145030
Y2132330
Y2119630
Y2106930
X2556764Y2132330
X2551938Y2122678
X2552700Y2208530
X2540000Y2221230
X2616200Y2233930
X2590800Y2170430
X2603500
X2616200
Y2157730
X2603500
X2590800
Y2145030
X2603500
X2616454Y2144776
X2389886Y2200148
X2380234Y2197608
X2370582Y2194560
X2360676Y2191766
X2351532Y2188210
X2341880Y2185416
X2331974Y2182114
X2562606Y2123694
X2628900Y2233930
X2629154Y2259584
X2598928Y2355850
X2598166Y2374138
X2591816Y2364232
X2527300Y2208530
X2514854Y2221230
X2581402Y2130552
X2386838Y2213610
X2398776Y2193798
X2409190Y2225802
X2417572Y2211324
X2542794Y2170430
X2542286Y2194052
X2555240Y2181860
X2527046Y2170176
X2514600Y2183130
X2465070
X2431288
X2628900Y2304796
X2615946Y2329688
X2582164Y2107946
X2558796Y2161540
X2641600Y2221230
X2654300
X2667000
Y2183130
X2679700Y2233930
X2794000Y2321560
X2679700Y2208530
X2684780Y2336546
X2641600Y2094230
X2654300
X2667000
X2679700
X2692400
X2667000Y2170430
Y2157730
Y2145030
Y2132330
X2679700Y2183130
Y2170430
Y2157730
Y2145030
Y2132330
Y2106930
X2692400
X2955290Y2198624
X2692654Y2208784
X2705100Y2221230
X2772156Y2216150
X2865628Y2214372
X2883916Y2222500
X2944114Y2198878
X2922778Y2201926
X2769870Y2140204
X2802382Y2123948
X2864104Y2188464
X2854706Y2185416
X2844800Y2182368
X2834894Y2179066
X2824988Y2175764
X2815336Y2172716
X2805176Y2168906
X2900426Y2098040
X2822956Y2112772
X2890774Y2108962
Y2178304
X2815590Y2098294
X2641600Y2246630
X2654300
X2679700
X2795270Y2332736
X2806700Y2347468
X2806192Y2363470
X2838196Y2355850
X2838450Y2371090
X2845562Y2325878
X2853436Y2309114
X2867406Y2294382
X2860040Y2301494
X2873756Y2285492
X2887218Y2264156
X2880868Y2273808
X2923032Y2237232
X2915158Y2244598
X2906014Y2251202
X2895854Y2255520
X2838704Y2336800
X2770886Y2304542
X2666746Y2344166
X2652522Y2137664
X2646934Y2128520
X2755900Y2135378
X2773934Y2122170
X2788412Y2100072
X2753614Y2110232
X2646172Y2307590
X3005582Y2121916
X2667000Y2106930
X2646934Y2118106
X2654300Y2106930
X2832100Y2273300
X2641600Y2081530
X2654300
X2667000
X2679700
X2692400
X2710180Y1997202
X2998724Y1731772
X2692146Y2068830
X2948432Y2076450
X2955290Y2085594
X2941574Y2067306
X2902712Y2085340
X2903982Y2070862
X2903220Y2058416
X2903728Y2044954
X2710180Y1985010
X2995168Y1908556
X2892298Y1898904
X3001772
X2900934Y1892300
X2892298Y1885696
X2900426Y1878838
X2979420Y1868424
X2907538Y1850644
X2983230Y1856740
X2944114Y1892300
X2854706Y2021332
X2832862Y2033524
X2935478Y1919732
X2997962Y1805940
X3027426Y1868170
X3004566Y1816100
X3025648Y1856232
X3011932Y1806956
X3026410Y1845818
X2950718Y1875282
X2957576Y1861058
X2956052Y1885696
X2902966Y1865630
X2916682Y1857248
X2870708Y1885696
X2838958Y1764284
X2818130Y1751330
X2837942Y1801114
X2826004Y1774190
X2713228Y1963674
X2688336Y1948434
X2678176Y1938528
X2652014Y2003552
X2641854Y1986280
X2739644Y1775968
X2744978Y1903222
X2736596Y1896618
X2728976Y1890268
X2719832Y1886966
X2785364Y1800860
X2726944Y1723644
X2733040Y1731264
X2705100Y2081530
X2704846Y2068830
X2782062Y2081276
X2788920Y2065274
X2802128Y2082292
X2824988Y2053590
X2795270Y1962658
X2887218Y1762252
X2919730Y1760474
X2774442Y2088388
X2900934Y1905508
X2917698Y1925828
X2931160Y1879600
X2908554Y1939544
X3022092Y2040382
X2779268Y1725168
X2779776Y1735328
X2804668Y1742186
X2705100Y1741678
X2975864Y1915160
X2726944Y1519428
X2727198Y1529334
X2737104Y1529080
X2734818Y1540510
X2727198Y1553972
X2726944Y1576070
Y1633220
X2729738Y1620774
X2726944Y1653286
X2727706Y1498854
Y1508760
X2683510Y1535938
X2929636Y1614424
X2904744Y1550162
X2840736Y1640078
X2925064Y1496060
X2913380Y1522730
X2901442Y1503426
X2850642Y1561592
X2906014Y1640586
X2893060Y1626362
X2906776Y1606550
X2848102Y1588262
X2834640Y1596898
X2851658Y1541780
X2848356Y1528826
X2879344Y1481836
X2758948Y1540510
X2668524Y1643380
X2658618Y1648206
X2827274Y1628902
X2809748
X2736088Y1610614
X2748788Y1577848
X2758186Y1617726
X2827782Y1618488
X2802890Y1670304
X2795524Y1631696
X2801620Y1639824
X2837434Y1629918
X2831084Y1642872
X2812796Y1638300
X2796540Y1662938
X2851912Y1648714
X2851404Y1658620
X2838958Y1649984
X2809240Y1662176
X2823210Y1676908
X2832608Y1679956
X2815844Y1670304
X2830322Y1656842
X3003296Y1718818
X2995930Y1710944
X2647950Y1616964
X2736850Y1653032
X2755900Y1648460
X2753106Y1663954
X2746756Y1672336
X2736596Y1675638
X2990596Y1702054
X2831084Y1720596
X2896108Y1513840
X2931160Y1522222
X2786380Y1433830
X2793238Y1444244
X2851150Y1511808
X2894076Y1549908
X2899156Y1588262
X2851150Y1614678
X2896616Y1702816
X2889758Y1691132
X2900426Y1656842
X2892806Y1650238
X2900172Y1689100
X2684526Y1610360
X2683256Y1575562
X2685288Y1587754
X2683002Y1555496
X2682748Y1515872
X2672842Y1550162
X2678430Y1643126
X2667000Y1675638
X2675636Y1660144
X2685796Y1661668
X2700020Y1431544
X2683002Y1620266
X2892044Y1581150
X2893060Y1563878
X2973070Y992886
X2682240Y1271270
X2634234Y1174750
X2633980Y1130300
X2633472Y1085850
X2874010Y1140460
X2875026Y1198880
X2752090Y1015238
X2819908Y1011174
X2727960Y1034542
X2703830Y1035812
X2684780Y1012444
X2665730Y1036574
X2647442Y1013968
X2705100Y1085850
X2704084Y1130300
X2703322Y1174750
X2682240Y1213612
X2702814Y1253490
X2740660
X2759710Y1237996
X2835910Y1228090
X2801620Y1198880
X2837942Y1168400
X2801112Y1140460
X2835656Y1111250
X2835402Y1094740
X2800858Y1064260
X2868930
X2835910Y1028700
X2702814Y1051560
X2738628
X2906522Y851916
X2904236Y891540
X2874264Y898398
X2996184Y948690
X2998724Y970026
X3052826Y917448
X3072130Y920750
X2819400Y977900
X2955290Y673608
X3053080Y881126
X2998170Y336250
X2961894Y439420
Y426720
Y414020
Y401320
X2867533Y350520
Y363220
Y375920
Y388620
Y401320
Y426720
X2824099Y337820
Y414020
Y439420
X2919730Y388620
Y375920
Y464820
X2790444Y450850
X3052572Y381508
X2919222Y363220
X2656840Y559054
Y521462
M30
