G04 SilkscreenBottomRefs *
G04 Layout PcMotherBoard.pcb *
G04 Designed with PCB elegance 3.50 *
G04 *
G04 *
%FSLAX34Y34*%
%MOMM*%
G75*
G01*
%IPPOS*%
%ADD100C,0.2032*%
G54D100*
X254000Y254000D02*
Y2464054D01*
X3103880Y254000D02*
X254000D01*
Y2464054D02*
X3103880D01*
Y254000D01*
G54D100*
X254000Y177800D02*
Y208280D01*
X270933D01*
X274320Y204893D01*
Y198120D01*
X270933Y194733D01*
X254000D01*
X304800D02*
X301413Y198120D01*
X291253D01*
X287867Y194733D01*
Y181187D01*
X291253Y177800D01*
X301413D01*
X304800Y181187D01*
X314960Y177800D02*
Y208280D01*
X325120Y198120D01*
X335280Y208280D01*
Y177800D01*
X348827Y181187D02*
Y194733D01*
X352213Y198120D01*
X362373D01*
X365760Y194733D01*
Y181187D01*
X362373Y177800D01*
X352213D01*
X348827Y181187D01*
X386080Y204893D02*
Y181187D01*
X389467Y177800D01*
X379307Y198120D02*
X392853D01*
X409787Y208280D02*
Y177800D01*
Y198120D02*
X423333D01*
X426720Y194733D01*
Y177800D01*
X457200Y181187D02*
X453813Y177800D01*
X443653D01*
X440267Y181187D01*
Y194733D01*
X443653Y198120D01*
X453813D01*
X457200Y194733D01*
Y191347D01*
X453813Y187960D01*
X440267D01*
X470747Y177800D02*
Y198120D01*
Y194733D01*
X474133Y198120D01*
X484293D01*
X487680Y194733D01*
X497840Y208280D02*
X514773D01*
X518160Y204893D01*
Y198120D01*
X514773Y194733D01*
X501227D01*
X514773D01*
X518160Y191347D01*
Y181187D01*
X514773Y177800D01*
X497840D01*
X501227D02*
Y208280D01*
X531707Y181187D02*
Y194733D01*
X535093Y198120D01*
X545253D01*
X548640Y194733D01*
Y181187D01*
X545253Y177800D01*
X535093D01*
X531707Y181187D01*
X579120Y198120D02*
Y177800D01*
Y181187D01*
X575733Y177800D01*
X565573D01*
X562187Y181187D01*
Y194733D01*
X565573Y198120D01*
X575733D01*
X579120Y194733D01*
X592667Y177800D02*
Y198120D01*
Y194733D01*
X596053Y198120D01*
X606213D01*
X609600Y194733D01*
X640080Y208280D02*
Y177800D01*
X626533D01*
X623147Y181187D01*
Y191347D01*
X626533Y194733D01*
X640080D01*
X254000Y130387D02*
X257387Y127000D01*
X270933D01*
X274320Y130387D01*
Y140547D01*
X270933Y143933D01*
X257387D01*
X254000Y147320D01*
Y154093D01*
X257387Y157480D01*
X270933D01*
X274320Y154093D01*
X294640D02*
D01*
Y147320D02*
Y127000D01*
X325120Y157480D02*
Y127000D01*
X321733D02*
X328507D01*
X348827Y157480D02*
Y127000D01*
X362373Y147320D02*
X352213Y137160D01*
X362373Y127000D02*
X348827Y140547D01*
X375920Y130387D02*
X379307Y127000D01*
X392853D01*
X396240Y130387D01*
Y133773D01*
X392853Y137160D01*
X379307D01*
X375920Y140547D01*
Y143933D01*
X379307Y147320D01*
X392853D01*
X396240Y143933D01*
X426720D02*
X423333Y147320D01*
X413173D01*
X409787Y143933D01*
Y130387D01*
X413173Y127000D01*
X423333D01*
X426720Y130387D01*
X440267Y127000D02*
Y147320D01*
Y143933D01*
X443653Y147320D01*
X453813D01*
X457200Y143933D01*
X487680Y130387D02*
X484293Y127000D01*
X474133D01*
X470747Y130387D01*
Y143933D01*
X474133Y147320D01*
X484293D01*
X487680Y143933D01*
Y140547D01*
X484293Y137160D01*
X470747D01*
X518160Y130387D02*
X514773Y127000D01*
X504613D01*
X501227Y130387D01*
Y143933D01*
X504613Y147320D01*
X514773D01*
X518160Y143933D01*
Y140547D01*
X514773Y137160D01*
X501227D01*
X531707Y127000D02*
Y147320D01*
Y143933D01*
X535093Y147320D01*
X545253D01*
X548640Y143933D01*
Y127000D01*
X592667Y157480D02*
Y127000D01*
X606213D01*
X609600Y130387D01*
Y140547D01*
X606213Y143933D01*
X592667D01*
X623147Y130387D02*
Y143933D01*
X626533Y147320D01*
X636693D01*
X640080Y143933D01*
Y130387D01*
X636693Y127000D01*
X626533D01*
X623147Y130387D01*
X660400Y154093D02*
Y130387D01*
X663787Y127000D01*
X653627Y147320D02*
X667173D01*
X690880Y154093D02*
Y130387D01*
X694267Y127000D01*
X684107Y147320D02*
X697653D01*
X714587Y130387D02*
Y143933D01*
X717973Y147320D01*
X728133D01*
X731520Y143933D01*
Y130387D01*
X728133Y127000D01*
X717973D01*
X714587Y130387D01*
X741680Y127000D02*
Y147320D01*
X748453D01*
X751840Y143933D01*
X755227Y147320D01*
X758613D01*
X762000Y143933D01*
Y127000D01*
X751840Y143933D02*
Y130387D01*
X816187Y157480D02*
X809413Y150707D01*
Y133773D01*
X816187Y127000D01*
X836507D02*
Y147320D01*
Y143933D01*
X839893Y147320D01*
X850053D01*
X853440Y143933D01*
X883920Y130387D02*
X880533Y127000D01*
X870373D01*
X866987Y130387D01*
Y143933D01*
X870373Y147320D01*
X880533D01*
X883920Y143933D01*
Y140547D01*
X880533Y137160D01*
X866987D01*
X911013Y154093D02*
X907627Y157480D01*
X900853D01*
X897467Y154093D01*
Y127000D01*
X894080Y143933D02*
X900853D01*
X894080Y127000D02*
X900853D01*
X924560Y130387D02*
X927947Y127000D01*
X941493D01*
X944880Y130387D01*
Y133773D01*
X941493Y137160D01*
X927947D01*
X924560Y140547D01*
Y143933D01*
X927947Y147320D01*
X941493D01*
X944880Y143933D01*
X965200Y157480D02*
X971973Y150707D01*
Y133773D01*
X965200Y127000D01*
X254000Y76200D02*
Y96520D01*
X264160Y106680D01*
X274320Y96520D01*
Y89747D01*
X254000D01*
X274320D01*
Y76200D01*
X287867Y66040D02*
Y96520D01*
Y93133D01*
X291253Y96520D01*
X301413D01*
X304800Y93133D01*
Y79587D01*
X301413Y76200D01*
X291253D01*
X287867Y79587D01*
X318347Y76200D02*
Y96520D01*
Y93133D01*
X321733Y96520D01*
X331893D01*
X335280Y93133D01*
X355600Y103293D02*
D01*
Y96520D02*
Y76200D01*
X386080Y106680D02*
Y76200D01*
X382693D02*
X389467D01*
X440267Y99907D02*
X447040Y106680D01*
Y76200D01*
X440267D01*
X453813D01*
X480907Y93133D02*
X470747D01*
X467360Y96520D01*
Y103293D01*
X470747Y106680D01*
X480907D01*
X484293Y103293D01*
Y96520D01*
X480907Y93133D01*
X484293Y89747D01*
Y79587D01*
X480907Y76200D01*
X470747D01*
X467360Y79587D01*
Y89747D01*
X470747Y93133D01*
X508000Y69427D02*
X511387Y72813D01*
Y79587D01*
X508000D01*
Y76200D01*
X511387D01*
X558800Y103293D02*
X562187Y106680D01*
X572347D01*
X575733Y103293D01*
Y99907D01*
X558800Y82973D01*
Y76200D01*
X575733D01*
X609600Y103293D02*
Y79587D01*
X606213Y76200D01*
X592667D01*
X589280Y79587D01*
Y103293D01*
X592667Y106680D01*
X606213D01*
X609600Y103293D01*
Y99907D01*
X589280Y79587D01*
X623147Y99907D02*
X629920Y106680D01*
Y76200D01*
X623147D01*
X636693D01*
X650240Y103293D02*
X653627Y106680D01*
X663787D01*
X667173Y103293D01*
Y99907D01*
X650240Y82973D01*
Y76200D01*
X667173D01*
X714587Y99907D02*
X721360Y106680D01*
Y76200D01*
X714587D01*
X728133D01*
X745067D02*
X751840D01*
X758613Y82973D01*
Y103293D01*
X755227Y106680D01*
X745067D01*
X741680Y103293D01*
Y96520D01*
X745067Y93133D01*
X758613D01*
X785707Y96520D02*
Y99907D01*
X782320D01*
Y96520D01*
X785707D01*
Y82973D02*
Y86360D01*
X782320D01*
Y82973D01*
X785707D01*
X802640Y103293D02*
X806027Y106680D01*
X816187D01*
X819573Y103293D01*
Y93133D01*
X809413D01*
X819573D01*
Y79587D01*
X816187Y76200D01*
X806027D01*
X802640Y79587D01*
X836507Y99907D02*
X843280Y106680D01*
Y76200D01*
X836507D01*
X850053D01*
X877147Y96520D02*
Y99907D01*
X873760D01*
Y96520D01*
X877147D01*
Y82973D02*
Y86360D01*
X873760D01*
Y82973D01*
X877147D01*
X897467Y99907D02*
X904240Y106680D01*
Y76200D01*
X897467D01*
X911013D01*
X924560Y103293D02*
X927947Y106680D01*
X938107D01*
X941493Y103293D01*
Y93133D01*
X931333D01*
X941493D01*
Y79587D01*
X938107Y76200D01*
X927947D01*
X924560Y79587D01*
M02*
