G04 SilkscreenBottomRefs *
G04 Layout cdio.pcb *
G04 Designed with PCB elegance 3.50 *
G04 *
G04 *
%FSLAX34Y34*%
%MOMM*%
G75*
G01*
%IPPOS*%
%ADD100C,0.2032*%
G54D100*
X254000Y254000D02*
Y1066800D01*
Y254000D02*
X736600D01*
X254000Y1066800D02*
X1828800D01*
X787400Y254000D02*
X1600200D01*
X736600D02*
Y320040D01*
X746760Y330200D02*
X777240D01*
X787400Y320040D02*
Y254000D01*
X746760Y330200D02*
G03X736600Y320040I0J-10160D01*
X787400Y320040D02*
G03X777240Y330200I-10160J0D01*
G01X1600200Y254000D02*
Y320040D01*
X1828800Y330200D02*
X1610360D01*
D02*
G03X1600200Y320040I0J-10160D01*
G01X1828800Y1066800D02*
Y330200D01*
G54D100*
X273050Y193463D02*
X269663Y196850D01*
X259503D01*
X256117Y193463D01*
Y179917D01*
X259503Y176530D01*
X269663D01*
X273050Y179917D01*
X303530Y207010D02*
Y176530D01*
X289983D01*
X286597Y179917D01*
Y190077D01*
X289983Y193463D01*
X303530D01*
X323850Y203623D02*
D01*
Y196850D02*
Y176530D01*
X347557Y179917D02*
Y193463D01*
X350943Y196850D01*
X361103D01*
X364490Y193463D01*
Y179917D01*
X361103Y176530D01*
X350943D01*
X347557Y179917D01*
X252730Y129117D02*
X256117Y125730D01*
X269663D01*
X273050Y129117D01*
Y139277D01*
X269663Y142663D01*
X256117D01*
X252730Y146050D01*
Y152823D01*
X256117Y156210D01*
X269663D01*
X273050Y152823D01*
X293370D02*
D01*
Y146050D02*
Y125730D01*
X323850Y156210D02*
Y125730D01*
X320463D02*
X327237D01*
X347557Y156210D02*
Y125730D01*
X361103Y146050D02*
X350943Y135890D01*
X361103Y125730D02*
X347557Y139277D01*
X374650Y129117D02*
X378037Y125730D01*
X391583D01*
X394970Y129117D01*
Y132503D01*
X391583Y135890D01*
X378037D01*
X374650Y139277D01*
Y142663D01*
X378037Y146050D01*
X391583D01*
X394970Y142663D01*
X425450D02*
X422063Y146050D01*
X411903D01*
X408517Y142663D01*
Y129117D01*
X411903Y125730D01*
X422063D01*
X425450Y129117D01*
X438997Y125730D02*
Y146050D01*
Y142663D01*
X442383Y146050D01*
X452543D01*
X455930Y142663D01*
X486410Y129117D02*
X483023Y125730D01*
X472863D01*
X469477Y129117D01*
Y142663D01*
X472863Y146050D01*
X483023D01*
X486410Y142663D01*
Y139277D01*
X483023Y135890D01*
X469477D01*
X516890Y129117D02*
X513503Y125730D01*
X503343D01*
X499957Y129117D01*
Y142663D01*
X503343Y146050D01*
X513503D01*
X516890Y142663D01*
Y139277D01*
X513503Y135890D01*
X499957D01*
X530437Y125730D02*
Y146050D01*
Y142663D01*
X533823Y146050D01*
X543983D01*
X547370Y142663D01*
Y125730D01*
X591397Y156210D02*
Y125730D01*
X604943D01*
X608330Y129117D01*
Y139277D01*
X604943Y142663D01*
X591397D01*
X621877Y129117D02*
Y142663D01*
X625263Y146050D01*
X635423D01*
X638810Y142663D01*
Y129117D01*
X635423Y125730D01*
X625263D01*
X621877Y129117D01*
X659130Y152823D02*
Y129117D01*
X662517Y125730D01*
X652357Y146050D02*
X665903D01*
X689610Y152823D02*
Y129117D01*
X692997Y125730D01*
X682837Y146050D02*
X696383D01*
X713317Y129117D02*
Y142663D01*
X716703Y146050D01*
X726863D01*
X730250Y142663D01*
Y129117D01*
X726863Y125730D01*
X716703D01*
X713317Y129117D01*
X740410Y125730D02*
Y146050D01*
X747183D01*
X750570Y142663D01*
X753957Y146050D01*
X757343D01*
X760730Y142663D01*
Y125730D01*
X750570Y142663D02*
Y129117D01*
X814917Y156210D02*
X808143Y149437D01*
Y132503D01*
X814917Y125730D01*
X835237D02*
Y146050D01*
Y142663D01*
X838623Y146050D01*
X848783D01*
X852170Y142663D01*
X882650Y129117D02*
X879263Y125730D01*
X869103D01*
X865717Y129117D01*
Y142663D01*
X869103Y146050D01*
X879263D01*
X882650Y142663D01*
Y139277D01*
X879263Y135890D01*
X865717D01*
X909743Y152823D02*
X906357Y156210D01*
X899583D01*
X896197Y152823D01*
Y125730D01*
X892810Y142663D02*
X899583D01*
X892810Y125730D02*
X899583D01*
X923290Y129117D02*
X926677Y125730D01*
X940223D01*
X943610Y129117D01*
Y132503D01*
X940223Y135890D01*
X926677D01*
X923290Y139277D01*
Y142663D01*
X926677Y146050D01*
X940223D01*
X943610Y142663D01*
X963930Y156210D02*
X970703Y149437D01*
Y132503D01*
X963930Y125730D01*
X252730Y74930D02*
Y95250D01*
X262890Y105410D01*
X273050Y95250D01*
Y88477D01*
X252730D01*
X273050D01*
Y74930D01*
X286597Y64770D02*
Y95250D01*
Y91863D01*
X289983Y95250D01*
X300143D01*
X303530Y91863D01*
Y78317D01*
X300143Y74930D01*
X289983D01*
X286597Y78317D01*
X317077Y74930D02*
Y95250D01*
Y91863D01*
X320463Y95250D01*
X330623D01*
X334010Y91863D01*
X354330Y102023D02*
D01*
Y95250D02*
Y74930D01*
X384810Y105410D02*
Y74930D01*
X381423D02*
X388197D01*
X438997Y98637D02*
X445770Y105410D01*
Y74930D01*
X438997D01*
X452543D01*
X479637Y91863D02*
X469477D01*
X466090Y95250D01*
Y102023D01*
X469477Y105410D01*
X479637D01*
X483023Y102023D01*
Y95250D01*
X479637Y91863D01*
X483023Y88477D01*
Y78317D01*
X479637Y74930D01*
X469477D01*
X466090Y78317D01*
Y88477D01*
X469477Y91863D01*
X506730Y68157D02*
X510117Y71543D01*
Y78317D01*
X506730D01*
Y74930D01*
X510117D01*
X557530Y102023D02*
X560917Y105410D01*
X571077D01*
X574463Y102023D01*
Y98637D01*
X557530Y81703D01*
Y74930D01*
X574463D01*
X608330Y102023D02*
Y78317D01*
X604943Y74930D01*
X591397D01*
X588010Y78317D01*
Y102023D01*
X591397Y105410D01*
X604943D01*
X608330Y102023D01*
Y98637D01*
X588010Y78317D01*
X621877Y98637D02*
X628650Y105410D01*
Y74930D01*
X621877D01*
X635423D01*
X648970Y102023D02*
X652357Y105410D01*
X662517D01*
X665903Y102023D01*
Y98637D01*
X648970Y81703D01*
Y74930D01*
X665903D01*
X713317Y98637D02*
X720090Y105410D01*
Y74930D01*
X713317D01*
X726863D01*
X743797D02*
X750570D01*
X757343Y81703D01*
Y102023D01*
X753957Y105410D01*
X743797D01*
X740410Y102023D01*
Y95250D01*
X743797Y91863D01*
X757343D01*
X784437Y95250D02*
Y98637D01*
X781050D01*
Y95250D01*
X784437D01*
Y81703D02*
Y85090D01*
X781050D01*
Y81703D01*
X784437D01*
X801370Y102023D02*
X804757Y105410D01*
X814917D01*
X818303Y102023D01*
Y98637D01*
X801370Y81703D01*
Y74930D01*
X818303D01*
X845397Y91863D02*
X835237D01*
X831850Y95250D01*
Y102023D01*
X835237Y105410D01*
X845397D01*
X848783Y102023D01*
Y95250D01*
X845397Y91863D01*
X848783Y88477D01*
Y78317D01*
X845397Y74930D01*
X835237D01*
X831850Y78317D01*
Y88477D01*
X835237Y91863D01*
X875877Y95250D02*
Y98637D01*
X872490D01*
Y95250D01*
X875877D01*
Y81703D02*
Y85090D01*
X872490D01*
Y81703D01*
X875877D01*
X892810Y102023D02*
X896197Y105410D01*
X906357D01*
X909743Y102023D01*
Y91863D01*
X899583D01*
X909743D01*
Y78317D01*
X906357Y74930D01*
X896197D01*
X892810Y78317D01*
X926677Y74930D02*
X933450D01*
X940223Y81703D01*
Y102023D01*
X936837Y105410D01*
X926677D01*
X923290Y102023D01*
Y95250D01*
X926677Y91863D01*
X940223D01*
M02*
