G04 Top_1 *
G04 Layout cdio.pcb *
G04 Designed with PCB elegance 3.50 *
G04 *
G04 *
%FSLAX34Y34*%
%MOMM*%
G75*
G01*
%IPPOS*%
%ADD100C,0.2032*%
%ADD101C,0.6350*%
%ADD102C,0.5080*%
%ADD103C,1.2700*%
%ADD104C,1.5240*%
%ADD105C,1.0160*%
%ADD200C,1.3970*%
%ADD201C,1.5240*%
%ADD202C,1.4224*%
%ADD203C,3.0480*%
%ADD204C,1.0160*%
%ADD400R,4.5720X1.6764*%
%ADD401R,1.0160X1.4224*%
%ADD402R,1.4224X1.0160*%
%ADD403R,2.4892X0.6096*%
%ADD404R,1.3970X1.3970*%
%ADD405R,2.0320X2.3876*%
%ADD406R,0.6096X2.4892*%
%ADD407R,1.4224X1.4224*%
%ADD408R,2.3876X2.0320*%
%ADD409R,1.5240X0.6096*%
%ADD410R,1.5240X7.1120*%
G54D400*
X524510Y378460D03*
Y544830D03*
X609600D03*
Y378460D03*
G54D401*
X608330Y506730D03*
X627380D03*
X791210Y461010D03*
X810260D03*
X1249680Y882650D03*
X1230630D03*
X1384300Y511810D03*
X1365250D03*
X1671320Y966470D03*
X1690370D03*
X1671320Y938530D03*
X1690370D03*
X1671320Y910590D03*
X1690370D03*
X1663700Y781050D03*
X1682750D03*
G54D402*
X477520Y485140D03*
Y466090D03*
X502920Y485140D03*
Y466090D03*
X477520Y435610D03*
Y416560D03*
X502920Y435610D03*
Y416560D03*
X303530Y533400D03*
Y552450D03*
X439420Y727710D03*
Y746760D03*
X457200Y971550D03*
Y990600D03*
X590550Y970280D03*
Y989330D03*
X591820Y727710D03*
Y746760D03*
X615950Y438150D03*
Y419100D03*
X641350D03*
Y438150D03*
Y485140D03*
Y466090D03*
X615950D03*
Y485140D03*
X900430Y741680D03*
Y760730D03*
X1191260Y742950D03*
Y762000D03*
X1612900Y590550D03*
Y609600D03*
X1537970Y721360D03*
Y740410D03*
X1409700Y722630D03*
Y741680D03*
X1407160Y890270D03*
Y909320D03*
Y873760D03*
Y854710D03*
X1584960Y996950D03*
Y977900D03*
X1409700Y1004570D03*
Y985520D03*
X1682750Y742950D03*
Y723900D03*
X1638300Y590550D03*
Y609600D03*
Y571500D03*
Y552450D03*
G54D403*
X494919Y654050D03*
Y641350D03*
Y628650D03*
Y615950D03*
Y603250D03*
Y590550D03*
X342519Y654050D03*
Y641350D03*
Y628650D03*
Y615950D03*
Y603250D03*
Y590550D03*
X438150D03*
Y603250D03*
Y615950D03*
Y628650D03*
Y641350D03*
Y654050D03*
X496189Y793750D03*
Y781050D03*
X360299Y793750D03*
Y781050D03*
X455930D03*
Y793750D03*
X494919Y704850D03*
Y692150D03*
Y679450D03*
Y666750D03*
X342519Y704850D03*
Y692150D03*
Y679450D03*
Y666750D03*
X438150D03*
Y679450D03*
Y692150D03*
Y704850D03*
X496189Y933450D03*
Y920750D03*
Y908050D03*
Y895350D03*
Y882650D03*
Y869950D03*
Y857250D03*
Y844550D03*
Y831850D03*
Y819150D03*
Y806450D03*
X360299Y933450D03*
Y920750D03*
Y908050D03*
Y895350D03*
Y882650D03*
Y869950D03*
Y857250D03*
Y844550D03*
Y831850D03*
Y819150D03*
Y806450D03*
X455930D03*
Y819150D03*
Y831850D03*
Y844550D03*
Y857250D03*
Y869950D03*
Y882650D03*
Y895350D03*
Y908050D03*
Y920750D03*
Y933450D03*
X496189Y946150D03*
X360299D03*
X455930D03*
X591820Y933450D03*
Y946150D03*
Y793750D03*
Y806450D03*
Y819150D03*
Y831850D03*
Y844550D03*
Y857250D03*
Y869950D03*
Y882650D03*
Y895350D03*
Y908050D03*
Y920750D03*
Y781050D03*
X590550Y666750D03*
Y679450D03*
Y692150D03*
Y704850D03*
Y590550D03*
Y603250D03*
Y615950D03*
Y628650D03*
Y641350D03*
Y654050D03*
X1282319Y996950D03*
Y984250D03*
Y971550D03*
Y958850D03*
Y946150D03*
Y933450D03*
Y920750D03*
Y908050D03*
Y895350D03*
Y882650D03*
Y869950D03*
Y857250D03*
Y844550D03*
Y831850D03*
X1298829Y698500D03*
Y685800D03*
Y673100D03*
Y660400D03*
Y647700D03*
Y635000D03*
Y622300D03*
Y609600D03*
Y596900D03*
Y584200D03*
X1394460D03*
Y596900D03*
Y609600D03*
Y622300D03*
Y635000D03*
Y647700D03*
Y660400D03*
X1441069D03*
Y647700D03*
Y635000D03*
Y622300D03*
Y609600D03*
Y596900D03*
Y584200D03*
X1536700D03*
Y596900D03*
Y609600D03*
Y622300D03*
Y635000D03*
Y647700D03*
Y660400D03*
X1394460Y673100D03*
Y685800D03*
Y698500D03*
X1441069D03*
Y685800D03*
Y673100D03*
X1536700D03*
Y685800D03*
Y698500D03*
X1453769Y933450D03*
Y920750D03*
Y908050D03*
Y895350D03*
Y882650D03*
Y869950D03*
Y857250D03*
X1549400D03*
Y869950D03*
Y882650D03*
Y895350D03*
Y908050D03*
Y920750D03*
Y933450D03*
X1377950Y831850D03*
Y844550D03*
Y857250D03*
Y869950D03*
Y882650D03*
Y895350D03*
Y908050D03*
Y920750D03*
Y933450D03*
X1453769Y996950D03*
Y984250D03*
Y971550D03*
Y958850D03*
Y946150D03*
X1549400D03*
Y958850D03*
Y971550D03*
Y984250D03*
Y996950D03*
X1377950Y946150D03*
Y958850D03*
Y971550D03*
Y984250D03*
Y996950D03*
G54D200*
X1765300Y558800D03*
Y584200D03*
Y609600D03*
G54D404*
Y533400D03*
G54D201*
X1727200Y622300D03*
Y520700D03*
G54D405*
X744220Y369570D03*
X775970D03*
X1614170Y361950D03*
X1645920D03*
G54D406*
X304800Y412369D03*
X317500D03*
X330200D03*
X342900D03*
X355600D03*
X368300D03*
X381000D03*
X393700D03*
X406400D03*
X419100D03*
Y508000D03*
X406400D03*
X393700D03*
X381000D03*
X368300D03*
X355600D03*
X342900D03*
X330200D03*
X317500D03*
X304800D03*
X1410970Y413639D03*
X1423670D03*
X1436370D03*
X1449070D03*
X1461770D03*
X1474470D03*
X1487170D03*
X1499870D03*
X1512570D03*
X1525270D03*
Y509270D03*
X1512570D03*
X1499870D03*
X1487170D03*
X1474470D03*
X1461770D03*
X1449070D03*
X1436370D03*
X1423670D03*
X1410970D03*
G54D407*
X712470Y1003300D03*
X838200Y381000D03*
X1002030Y1003300D03*
G54D202*
X712470Y977900D03*
Y952500D03*
Y927100D03*
Y901700D03*
Y876300D03*
Y850900D03*
Y825500D03*
Y800100D03*
Y774700D03*
Y749300D03*
Y723900D03*
Y698500D03*
Y673100D03*
Y647700D03*
Y622300D03*
Y596900D03*
Y571500D03*
Y546100D03*
Y520700D03*
X863600Y381000D03*
X889000D03*
X914400D03*
X939800D03*
X965200D03*
X990600D03*
X1016000D03*
X1041400D03*
X1066800D03*
Y457200D03*
X1041400D03*
X1016000D03*
X990600D03*
X965200D03*
X939800D03*
X838200D03*
X863600D03*
X889000D03*
X914400D03*
X864870Y520700D03*
X1002030D03*
X864870Y546100D03*
Y571500D03*
Y596900D03*
Y622300D03*
Y647700D03*
X1002030D03*
Y622300D03*
Y596900D03*
Y571500D03*
Y546100D03*
X864870Y673100D03*
Y698500D03*
Y723900D03*
Y749300D03*
Y774700D03*
Y800100D03*
X1002030D03*
Y774700D03*
Y749300D03*
Y723900D03*
Y698500D03*
Y673100D03*
X864870Y927100D03*
Y901700D03*
Y876300D03*
Y850900D03*
Y825500D03*
X1002030Y927100D03*
Y901700D03*
Y876300D03*
Y850900D03*
Y825500D03*
X864870Y1003300D03*
Y977900D03*
Y952500D03*
X1002030Y977900D03*
Y952500D03*
X1154430Y1003300D03*
Y977900D03*
Y952500D03*
Y927100D03*
Y800100D03*
Y901700D03*
Y876300D03*
Y850900D03*
Y825500D03*
Y673100D03*
Y698500D03*
Y723900D03*
Y749300D03*
Y774700D03*
Y520700D03*
Y546100D03*
Y571500D03*
Y596900D03*
Y622300D03*
Y647700D03*
X1117600Y457200D03*
X1092200D03*
Y381000D03*
X1117600D03*
G54D408*
X937260Y744220D03*
Y775970D03*
G54D409*
X531495Y492760D03*
Y480060D03*
Y467360D03*
Y454660D03*
Y441960D03*
Y429260D03*
Y416560D03*
X587375D03*
Y429260D03*
Y441960D03*
Y454660D03*
Y467360D03*
Y480060D03*
Y492760D03*
G54D410*
X533400Y294640D03*
X508000D03*
X482600D03*
X457200D03*
X431800D03*
X406400D03*
X381000D03*
X355600D03*
X330200D03*
X304800D03*
X279400D03*
X711200D03*
X685800D03*
X660400D03*
X635000D03*
X609600D03*
X584200D03*
X558800D03*
X1066800D03*
X1041400D03*
X1016000D03*
X990600D03*
X965200D03*
X939800D03*
X914400D03*
X889000D03*
X863600D03*
X838200D03*
X812800D03*
X1346200D03*
X1320800D03*
X1295400D03*
X1270000D03*
X1244600D03*
X1219200D03*
X1193800D03*
X1168400D03*
X1143000D03*
X1117600D03*
X1092200D03*
X1574800D03*
X1549400D03*
X1524000D03*
X1498600D03*
X1473200D03*
X1447800D03*
X1422400D03*
X1397000D03*
X1371600D03*
G54D203*
X1718310Y939800D03*
Y990600D03*
X1805940Y939800D03*
X1718310Y889000D03*
Y781050D03*
Y831850D03*
X1805940Y781050D03*
X1718310Y730250D03*
G54D100*
X279400Y294640D02*
Y350520D01*
X317500Y388620D02*
Y412369D01*
X304800Y294640D02*
Y353060D01*
X330200Y378460D02*
Y412369D01*
Y294640D02*
Y353060D01*
X342900Y365760D02*
Y412369D01*
X355600Y294640D02*
Y412369D01*
X381000Y294640D02*
Y353060D01*
X368300Y365760D02*
Y412369D01*
X406400Y294640D02*
Y351790D01*
X381000Y377190D02*
Y412369D01*
X431800Y294640D02*
Y350520D01*
X393700Y388620D02*
Y412369D01*
X457200Y294640D02*
Y346710D01*
X515620Y378460D02*
X527050D01*
X502920Y339090D02*
X666750D01*
X457200Y353060D02*
X488950D01*
X368300Y365760D02*
X381000Y353060D01*
Y377190D02*
X406400Y351790D01*
X393700Y388620D02*
X431800Y350520D01*
X406400Y397510D02*
X457200Y346710D01*
X488950Y405130D02*
X515620Y378460D01*
X412750Y397510D02*
X457200Y353060D01*
X488950D02*
X502920Y339090D01*
X279400Y350520D02*
X317500Y388620D01*
X304800Y353060D02*
X330200Y378460D01*
Y353060D02*
X342900Y365760D01*
X254000Y254000D02*
Y1066800D01*
Y254000D02*
X736600D01*
X406400Y397510D02*
Y412369D01*
X393700Y507619D02*
Y541020D01*
X406400Y507619D02*
Y547370D01*
X419100Y507619D02*
Y558800D01*
X488950Y405130D02*
Y435610D01*
X368300Y521970D02*
Y528320D01*
X342900Y492760D02*
Y537210D01*
X441960Y497840D02*
Y554990D01*
X368300Y490220D02*
Y521970D01*
X461010Y510540D02*
Y543560D01*
X304800Y412369D02*
Y427990D01*
X317500Y485140D02*
Y508381D01*
X472440Y515620D02*
Y548640D01*
X381000Y507619D02*
Y541020D01*
X355600Y508381D02*
Y552450D01*
X330200Y508381D02*
Y546100D01*
X412750Y397510D02*
Y429260D01*
X477520Y485140D02*
X508000D01*
X525780Y467360D02*
X543560D01*
X514350Y454660D02*
X548640D01*
X477520Y435610D02*
X525145D01*
X502920Y416560D02*
X509270D01*
X521970Y429260D02*
X547370D01*
X356870Y478790D02*
X429260D01*
X374650Y483870D02*
X427990D01*
X330200Y472440D02*
X429260D01*
X312420Y435610D02*
X406400D01*
X508000Y485140D02*
X525780Y467360D01*
X524510Y530860D02*
X553720Y501650D01*
X502920Y466090D02*
X514350Y454660D01*
X342900Y492760D02*
X356870Y478790D01*
X368300Y490220D02*
X374650Y483870D01*
X317500Y485140D02*
X330200Y472440D01*
X406400Y435610D02*
X412750Y429260D01*
X525145Y435610D02*
X531495Y441960D01*
X509270Y416560D02*
X521970Y429260D01*
X429260Y478790D02*
X461010Y510540D01*
X427990Y483870D02*
X441960Y497840D01*
X304800Y427990D02*
X312420Y435610D01*
X429260Y472440D02*
X472440Y515620D01*
X415290Y581660D02*
Y623570D01*
X420370Y584200D02*
Y612140D01*
X473710Y635000D02*
Y651510D01*
X523240Y631190D02*
Y722630D01*
X473710Y657860D02*
Y745490D01*
X468630Y656590D02*
Y736600D01*
X389890Y566420D02*
Y624840D01*
X370840Y551180D02*
Y562610D01*
X365760D02*
Y628650D01*
X360680Y576580D02*
Y626110D01*
X373380Y568960D02*
Y640080D01*
X374650Y566420D02*
Y567690D01*
X379730Y554990D02*
Y556260D01*
X524510Y530860D02*
Y544830D01*
X468630Y621030D02*
Y650240D01*
X462280Y595630D02*
Y614680D01*
X408940Y654050D02*
X438531D01*
X406400Y641350D02*
X438531D01*
X342519Y654050D02*
X359410D01*
X342519Y641350D02*
X353060D01*
X420370Y628650D02*
X437769D01*
X424180Y615950D02*
X437769D01*
X396240Y647700D02*
X458470D01*
X477520Y654050D02*
X494919D01*
X495300Y571500D02*
X678180D01*
X480060Y628650D02*
X519430D01*
X494919Y641350D02*
X523240D01*
X342519Y628650D02*
X358140D01*
X437769Y590550D02*
X443230D01*
X437769Y603250D02*
X448310D01*
X474980Y576580D02*
X537210D01*
X476250Y581660D02*
X535940D01*
X394970Y558800D02*
X406400Y547370D01*
X415290Y562610D02*
X419100Y558800D01*
X389890Y673100D02*
X408940Y654050D01*
X415290Y581660D02*
X441960Y554990D01*
X420370Y584200D02*
X461010Y543560D01*
X473710Y635000D02*
X480060Y628650D01*
X364490Y679450D02*
X396240Y647700D01*
X519430Y628650D02*
X541020Y607060D01*
X523240Y631190D02*
X537210Y617220D01*
X473710Y657860D02*
X477520Y654050D01*
X468630Y656590D02*
X473710Y651510D01*
X359410Y654050D02*
X373380Y640080D01*
X370840Y551180D02*
X381000Y541020D01*
X353060Y641350D02*
X365760Y628650D01*
X358140D02*
X360680Y626110D01*
X373380Y568960D02*
X374650Y567690D01*
X379730Y554990D02*
X393700Y541020D01*
X443230Y590550D02*
X454660Y579120D01*
X448310Y603250D02*
X474980Y576580D01*
X462280Y595630D02*
X476250Y581660D01*
X452120Y666750D02*
X468630Y650240D01*
X415290Y623570D02*
X420370Y628650D01*
Y612140D02*
X424180Y615950D01*
X472440Y548640D02*
X495300Y571500D01*
X355600Y552450D02*
X359410Y556260D01*
X389890Y624840D02*
X406400Y641350D01*
X379730Y556260D02*
X389890Y566420D01*
X359410Y556260D02*
X365760Y562610D01*
X330200Y546100D02*
X360680Y576580D01*
X370840Y562610D02*
X374650Y566420D01*
X462280Y614680D02*
X468630Y621030D01*
X342519Y679450D02*
Y692150D01*
X377190Y748030D02*
Y791210D01*
X382270Y739140D02*
Y802640D01*
X402590Y723900D02*
Y811530D01*
X407670Y689610D02*
Y797560D01*
X389890Y673100D02*
Y808990D01*
X426720Y728980D02*
Y787400D01*
X412750Y751840D02*
Y783590D01*
X478790Y668020D02*
Y811530D01*
X523240Y736600D02*
Y798830D01*
X518160Y727710D02*
Y792480D01*
X473710Y769620D02*
Y815340D01*
X450850Y741680D02*
Y756920D01*
X458470Y746760D02*
Y754380D01*
X494919Y679450D02*
Y692150D01*
X514350Y697230D02*
Y717550D01*
X320040Y673100D02*
Y690880D01*
X375920Y713740D02*
Y732790D01*
X450850Y756920D02*
Y775589D01*
X463550Y695960D02*
Y720090D01*
X433070Y793750D02*
X456311D01*
X480060Y666750D02*
X494919D01*
X496189Y793750D02*
X516890D01*
X326390Y666750D02*
X342519D01*
Y679450D02*
X364490D01*
X438531Y666750D02*
X452120D01*
X494919Y692150D02*
X509270D01*
X327660Y698500D02*
X360680D01*
X438531Y692150D02*
X459740D01*
X360299Y793750D02*
X374650D01*
X412750Y751840D02*
X417830Y746760D01*
X478790Y668020D02*
X480060Y666750D01*
X516890Y793750D02*
X518160Y792480D01*
X320040Y673100D02*
X326390Y666750D01*
X450850Y741680D02*
X455930Y736600D01*
X505460Y726440D02*
X514350Y717550D01*
X518160Y727710D02*
X523240Y722630D01*
Y736600D02*
X528320Y731520D01*
X468630Y750570D02*
X473710Y745490D01*
X458470Y746760D02*
X468630Y736600D01*
X459740Y723900D02*
X463550Y720090D01*
X374650Y793750D02*
X377190Y791210D01*
X361950Y732790D02*
X377190Y748030D01*
X412750Y783590D02*
X435610Y806450D01*
X398780Y720090D02*
X402590Y723900D01*
X455930Y736600D02*
X456311Y736981D01*
X426720Y787400D02*
X433070Y793750D01*
X422910Y725170D02*
X426720Y728980D01*
X458470Y754380D02*
X473710Y769620D01*
X509270Y692150D02*
X514350Y697230D01*
X320040Y690880D02*
X327660Y698500D01*
X375920Y732790D02*
X382270Y739140D01*
X360680Y698500D02*
X375920Y713740D01*
X450850Y775589D02*
X456311Y781050D01*
X459740Y692150D02*
X463550Y695960D01*
X325120Y853440D02*
Y934720D01*
X422910Y831850D02*
X456311D01*
X435610Y806450D02*
X456311D01*
X429260Y819150D02*
X456311D01*
X427863Y927100D02*
X472313D01*
X427863Y914400D02*
X472313D01*
X478663Y920750D02*
X496062D01*
X427863Y901700D02*
X472313D01*
X478663Y908050D02*
X496062D01*
X427863Y889000D02*
X472313D01*
X478663Y895350D02*
X496062D01*
X427863Y876300D02*
X472313D01*
X427863Y863600D02*
X472313D01*
X427863Y850900D02*
X472313D01*
X427863Y838200D02*
X472313D01*
X478663Y844550D02*
X496062D01*
X456184Y920750D02*
X472313D01*
X456184Y908050D02*
X472313D01*
X478663Y914400D02*
X554101D01*
X456184Y895350D02*
X472313D01*
X456184Y882650D02*
X472313D01*
X456184Y857250D02*
X472313D01*
X456184Y844550D02*
X472313D01*
X478663Y850900D02*
X554101D01*
X478663Y889000D02*
X511810D01*
X496189Y895350D02*
X521970D01*
X478663Y901700D02*
X530860D01*
X496189Y908050D02*
X539750D01*
X478663Y927100D02*
X513080D01*
X496189Y920750D02*
X520700D01*
X478663Y863600D02*
X513080D01*
X516890Y883920D02*
X528320D01*
X478663Y882650D02*
X510540D01*
X513080Y863600D02*
X513461D01*
X518160Y875030D02*
X528320D01*
X478663Y869950D02*
X515620D01*
X519430Y866140D02*
X533400D01*
X516001Y861060D02*
X535940D01*
X478663Y857250D02*
X514350D01*
X515620Y855980D02*
X544830D01*
X496189Y844550D02*
X547370D01*
X496189Y831850D02*
X537210D01*
X477520Y819150D02*
X496189D01*
X480060Y812800D02*
X543560D01*
X496189Y806450D02*
X515620D01*
X427990Y869950D02*
X456311D01*
X335280Y876300D02*
X421640D01*
X360299Y920750D02*
X421513D01*
X360299Y908050D02*
X421513D01*
X360299Y895350D02*
X421513D01*
X360299Y882650D02*
X421513D01*
X360299Y869950D02*
X421513D01*
X360299Y857250D02*
X421513D01*
X360299Y844550D02*
X421513D01*
X346710Y831850D02*
X360299D01*
Y819150D02*
X379730D01*
X360299Y806450D02*
X378460D01*
X521970Y895350D02*
X524510Y892810D01*
X511810Y889000D02*
X516890Y883920D01*
X510540Y882650D02*
X518160Y875030D01*
X515620Y869950D02*
X519430Y866140D01*
X513461Y863600D02*
X516001Y861060D01*
X514350Y857250D02*
X515620Y855980D01*
Y806450D02*
X523240Y798830D01*
X421640Y876300D02*
X427990Y869950D01*
X421513Y933450D02*
X427863Y927100D01*
X421513Y920750D02*
X427863Y914400D01*
X421513Y908050D02*
X427863Y901700D01*
X421513Y895350D02*
X427863Y889000D01*
X421513Y882650D02*
X427863Y876300D01*
X421513Y869950D02*
X427863Y863600D01*
X421513Y857250D02*
X427863Y850900D01*
X421513Y844550D02*
X427863Y838200D01*
X325120Y853440D02*
X346710Y831850D01*
X379730Y819150D02*
X389890Y808990D01*
X378460Y806450D02*
X382270Y802640D01*
X407670Y797560D02*
X429260Y819150D01*
X402590Y811530D02*
X422910Y831850D01*
X472313Y927100D02*
X478663Y933450D01*
X472313Y914400D02*
X478663Y920750D01*
X472313Y901700D02*
X478663Y908050D01*
X472313Y889000D02*
X478663Y895350D01*
X472313Y876300D02*
X478663Y882650D01*
X472313Y863600D02*
X478663Y869950D01*
X472313Y850900D02*
X478663Y857250D01*
X472313Y838200D02*
X478663Y844550D01*
X472313Y920750D02*
X478663Y927100D01*
X472313Y908050D02*
X478663Y914400D01*
X472313Y895350D02*
X478663Y901700D01*
X472313Y882650D02*
X478663Y889000D01*
X472313Y857250D02*
X478663Y863600D01*
X472313Y844550D02*
X478663Y850900D01*
X513080Y927100D02*
X519430Y933450D01*
X520700Y920750D02*
X524510Y924560D01*
X473710Y815340D02*
X477520Y819150D01*
X478790Y811530D02*
X480060Y812800D01*
X360299Y946150D02*
X421640D01*
X427990Y939800D02*
X472440D01*
X456311Y933450D02*
X472440D01*
X478790Y946150D02*
X499110D01*
X513080Y960120D02*
X561340D01*
X478790Y939800D02*
X511810D01*
X478663Y933450D02*
X513080D01*
X523240Y951230D02*
X542798D01*
X521970Y942340D02*
X532130D01*
X519430Y933450D02*
X534670D01*
X350520Y960120D02*
X422910D01*
X360299Y933450D02*
X421513D01*
X421640Y946150D02*
X427990Y939800D01*
X422910Y960120D02*
X433070Y949960D01*
X472440Y939800D02*
X478790Y946150D01*
X472440Y933450D02*
X478790Y939800D01*
X499110Y946150D02*
X513080Y960120D01*
X511810Y939800D02*
X523240Y951230D01*
X513080Y933450D02*
X521970Y942340D01*
X325120Y934720D02*
X350520Y960120D01*
X254000Y1066800D02*
X1828800D01*
X640080Y935990D02*
Y951230D01*
X651510Y925830D02*
Y972820D01*
X570230Y944880D02*
Y970280D01*
X617220Y949960D02*
Y962660D01*
X673100Y947420D02*
Y967740D01*
X560578Y933450D02*
X610870D01*
X575310Y939800D02*
X607060D01*
X626110Y948690D02*
X627380D01*
X637540Y982980D02*
X657860D01*
X542798Y951230D02*
X560578Y933450D01*
X570230Y944880D02*
X575310Y939800D01*
X657860Y982980D02*
X673100Y967740D01*
Y947420D02*
X693420Y927100D01*
X534670Y933450D02*
X541020Y927100D01*
X612140Y908050D02*
X640080Y935990D01*
X610870Y933450D02*
X626110Y948690D01*
X607060Y939800D02*
X617220Y949960D01*
Y962660D02*
X637540Y982980D01*
X751840Y889000D02*
X829310Y966470D01*
X572770Y862330D02*
Y869950D01*
X648970Y844550D02*
Y858520D01*
X540512Y873252D02*
Y877824D01*
X640080Y838200D02*
Y843280D01*
X687070Y863600D02*
Y875030D01*
X560451Y908050D02*
X592074D01*
X537210Y895350D02*
X592074D01*
X560451Y920750D02*
X592201D01*
Y908050D02*
X612140D01*
X592201Y895350D02*
X621030D01*
X534670Y890270D02*
X568960D01*
X552450Y877570D02*
X565150D01*
X592201Y831850D02*
X613410D01*
X560451Y844550D02*
X614680D01*
X689610Y810260D02*
X829310D01*
X685800Y815340D02*
X849630D01*
X642620Y802640D02*
X664210D01*
X701040Y839470D02*
X850900D01*
X706120Y864870D02*
X791210D01*
X642620Y816610D02*
X657860D01*
X576580Y882650D02*
X624840D01*
X577850Y857250D02*
X613410D01*
X549910Y819150D02*
X608330D01*
X565150Y806450D02*
X612140D01*
X693420Y927100D02*
X712470D01*
X541020D02*
X554101D01*
X592201Y869950D02*
X613410D01*
X645160Y825500D02*
X648970D01*
X642620Y835660D02*
X659130D01*
X701040Y889000D02*
X751840D01*
X554101Y914400D02*
X560451Y908050D01*
X554101Y850900D02*
X560451Y844550D01*
X530860Y901700D02*
X537210Y895350D01*
X539750Y908050D02*
X542290Y905510D01*
X554101Y927100D02*
X560451Y920750D01*
X568960Y890270D02*
X576580Y882650D01*
X565150Y877570D02*
X572770Y869950D01*
Y862330D02*
X577850Y857250D01*
X547370Y844550D02*
X553720Y838200D01*
X612140Y806450D02*
X638810Y779780D01*
X608330Y819150D02*
X642620Y784860D01*
X613410Y831850D02*
X642620Y802640D01*
X614680Y844550D02*
X642620Y816610D01*
X624840Y882650D02*
X648970Y858520D01*
X613410Y869950D02*
X640080Y843280D01*
X613410Y857250D02*
X645160Y825500D01*
X640080Y838200D02*
X642620Y835660D01*
X621030Y895350D02*
X651510Y925830D01*
X528320Y883920D02*
X534670Y890270D01*
X544830Y855980D02*
X557530Y868680D01*
X537210Y831850D02*
X541020Y835660D01*
X659130Y779780D02*
X689610Y810260D01*
X655320Y784860D02*
X685800Y815340D01*
X664210Y802640D02*
X701040Y839470D01*
X657860Y816610D02*
X706120Y864870D01*
X543560Y812800D02*
X549910Y819150D01*
X528320Y769620D02*
X565150Y806450D01*
X533400Y866140D02*
X540512Y873252D01*
X535940Y861060D02*
X552450Y877570D01*
X659130Y835660D02*
X687070Y863600D01*
Y875030D02*
X701040Y889000D01*
X528320Y740410D02*
Y769620D01*
X565150Y737870D02*
Y754380D01*
Y726440D02*
Y737870D01*
X551180Y703580D02*
Y749300D01*
X528320Y662940D02*
Y731520D01*
X533400Y664210D02*
Y735330D01*
X627380Y774700D02*
X671830D01*
X687070Y789940D02*
X798830D01*
X638810Y779780D02*
X659130D01*
X642620Y784860D02*
X655320D01*
X570230Y793750D02*
X608330D01*
X592201Y781050D02*
X604520D01*
X622300Y763270D02*
X787400D01*
X574040D02*
X604520D01*
X670560Y687070D02*
X853440D01*
X534670Y758190D02*
X537210D01*
X562610Y692150D02*
X621030D01*
X642620Y713740D02*
X755650D01*
X562610Y666750D02*
X590931D01*
X632460Y735330D02*
X768350D01*
X542290Y679450D02*
X549910D01*
X798830Y789940D02*
X864870Y723900D01*
X608330Y793750D02*
X627380Y774700D01*
X604520Y781050D02*
X622300Y763270D01*
X787400D02*
X852170Y698500D01*
X604520Y763270D02*
X632460Y735330D01*
X551180Y703580D02*
X562610Y692150D01*
X528320Y662940D02*
X575310Y615950D01*
X533400Y664210D02*
X556260Y641350D01*
X528320Y740410D02*
X533400Y735330D01*
X549910Y679450D02*
X562610Y666750D01*
X671830Y774700D02*
X687070Y789940D01*
X565150Y754380D02*
X574040Y763270D01*
X612140Y628650D02*
X670560Y687070D01*
X534670Y758190D02*
X570230Y793750D01*
X621030Y692150D02*
X642620Y713740D01*
X755650D02*
X764540Y722630D01*
X768350Y735330D02*
X782320Y749300D01*
X617220Y486410D02*
Y537210D01*
X556260Y641350D02*
X590931D01*
X590169Y590550D02*
X680720D01*
X763270Y647700D02*
X864870D01*
X590169Y628650D02*
X612140D01*
X638810Y637540D02*
X753110D01*
X563880Y609600D02*
X626110D01*
X648970Y632460D02*
X754380D01*
X563880Y603250D02*
X687070D01*
X697230Y607060D02*
X764540D01*
X695960Y612140D02*
X763270D01*
X788670Y637540D02*
X839470D01*
X692150Y585470D02*
X808990D01*
X590931Y654050D02*
X613410D01*
X789940Y632460D02*
X812800D01*
X764540Y642620D02*
X842010D01*
X575310Y615950D02*
X617220D01*
X537210Y617220D02*
X557530D01*
X609600Y544830D02*
X617220Y537210D01*
X537210Y576580D02*
X563880Y603250D01*
X535940Y581660D02*
X563880Y609600D01*
X753110Y637540D02*
X763270Y647700D01*
X617220Y615950D02*
X638810Y637540D01*
X626110Y609600D02*
X648970Y632460D01*
X754380D02*
X764540Y642620D01*
X680720Y590550D02*
X697230Y607060D01*
X687070Y603250D02*
X695960Y612140D01*
X764540Y607060D02*
X789940Y632460D01*
X763270Y612140D02*
X788670Y637540D01*
X678180Y571500D02*
X692150Y585470D01*
X711200Y294640D02*
Y440690D01*
X553720Y477520D02*
Y501650D01*
X615950Y384810D02*
Y419100D01*
X706120Y378460D02*
Y448310D01*
X701040Y387350D02*
Y450850D01*
X567690Y473710D02*
X600710D01*
X615950Y419100D02*
X641350D01*
X553720Y435610D02*
X613410D01*
X749300Y478790D02*
X862330D01*
X741680Y483870D02*
X876300D01*
X739140Y488950D02*
X829310D01*
X618490Y485140D02*
X641350D01*
X732790Y495300D02*
X811530D01*
X627380Y449580D02*
X687070D01*
X608330Y466090D02*
X618490D01*
X629920Y454660D02*
X685800D01*
X732790Y501650D02*
X787400D01*
X600710Y473710D02*
X608330Y466090D01*
X617220Y486410D02*
X618490Y485140D01*
Y466090D02*
X629920Y454660D01*
X543560Y467360D02*
X553720Y477520D01*
X548640Y454660D02*
X567690Y473710D01*
X547370Y429260D02*
X553720Y435610D01*
X662940Y349250D02*
X701040Y387350D01*
X711200Y440690D02*
X749300Y478790D01*
X706120Y448310D02*
X741680Y483870D01*
X701040Y450850D02*
X739140Y488950D01*
X787400Y501650D02*
X803910Y518160D01*
X615950Y485140D02*
X617220Y486410D01*
X613410Y435610D02*
X627380Y449580D01*
X687070D02*
X732790Y495300D01*
X685800Y454660D02*
X732790Y501650D01*
X609600Y378460D02*
X615950Y384810D01*
X666750Y339090D02*
X706120Y378460D01*
X787400Y254000D02*
X1600200D01*
X736600D02*
Y320040D01*
X746760Y330200D02*
X777240D01*
X787400Y320040D02*
Y254000D01*
X746760Y330200D02*
G03X736600Y320040I0J-10160D01*
X787400Y320040D02*
G03X777240Y330200I-10160J0D01*
G01X838200Y294640D02*
Y381000D01*
X863600Y294640D02*
Y381000D01*
X889000Y294640D02*
Y381000D01*
X914400Y294640D02*
Y381000D01*
X939800Y294640D02*
Y381000D01*
X965200Y294640D02*
Y381000D01*
X990600Y294640D02*
Y381000D01*
X1016000Y294640D02*
Y381000D01*
X812800Y294640D02*
Y392430D01*
X1041400Y294640D02*
Y381000D01*
X1054100Y419100D02*
X1092200Y381000D01*
X1066800Y457200D02*
Y469900D01*
X1002030Y519430D02*
Y520700D01*
X873760Y440690D02*
Y467360D01*
X878840Y441960D02*
Y481330D01*
X833120Y516890D02*
Y518160D01*
X842010Y501650D02*
Y567690D01*
X824230Y403860D02*
Y464820D01*
X895350Y419100D02*
X1054100D01*
X1008380Y474980D02*
X1052830D01*
X989330Y481330D02*
X1052830D01*
X891540Y429260D02*
X1013460D01*
X1066800Y434340D02*
X1139190D01*
X803910Y518160D02*
X811530D01*
X833120Y473710D02*
X847090D01*
X873760Y440690D02*
X895350Y419100D01*
X878840Y441960D02*
X891540Y429260D01*
X1055370Y445770D02*
X1066800Y434340D01*
X862330Y478790D02*
X873760Y467360D01*
X876300Y483870D02*
X878840Y481330D01*
X847090Y473710D02*
X863600Y457200D01*
X1066800Y469900D02*
X1117600Y520700D01*
X990600Y457200D02*
X1008380Y474980D01*
X1052830D02*
X1149350Y571500D01*
X965200Y457200D02*
X989330Y481330D01*
X1052830D02*
X1132840Y561340D01*
X939800Y457200D02*
X1002030Y519430D01*
X914400Y457200D02*
X1002030Y544830D01*
X889000Y457200D02*
X1002030Y570230D01*
X1013460Y429260D02*
X1130300Y546100D01*
X811530Y495300D02*
X833120Y516890D01*
X829310Y488950D02*
X842010Y501650D01*
X812800Y392430D02*
X824230Y403860D01*
Y464820D02*
X833120Y473710D01*
X1002030Y544830D02*
Y546100D01*
Y570230D02*
Y571500D01*
X924560Y627380D02*
Y648970D01*
X937260Y637540D02*
Y650240D01*
X880110Y642620D02*
Y648970D01*
X904240Y615950D02*
Y675640D01*
X896620Y626110D02*
Y674370D01*
X858520Y584200D02*
X963930D01*
X864870Y571500D02*
X974090D01*
X989330Y586740D02*
X1084580D01*
X885190Y566420D02*
X976630D01*
X991870Y581660D02*
X1098550D01*
X990600Y647700D02*
X1002030D01*
X1040130Y632460D02*
X1176020D01*
X946150Y659130D02*
X975360D01*
X980440Y657860D02*
X1173480D01*
X948690Y646430D02*
X969010D01*
X830580Y607060D02*
X949960D01*
X847090Y637540D02*
X875030D01*
X833120Y612140D02*
X882650D01*
X844550Y632460D02*
X878840D01*
X883920Y637540D02*
X887730D01*
X812800Y632460D02*
X833120Y612140D01*
X839470Y637540D02*
X844550Y632460D01*
X842010Y642620D02*
X847090Y637540D01*
X842010Y567690D02*
X858520Y584200D01*
X963930D02*
X1002030Y622300D01*
X974090Y571500D02*
X989330Y586740D01*
X864870Y546100D02*
X885190Y566420D01*
X976630D02*
X991870Y581660D01*
X1032510Y624840D02*
X1040130Y632460D01*
X924560Y648970D02*
X939800Y664210D01*
X975360Y659130D02*
X979170Y662940D01*
X937260Y650240D02*
X946150Y659130D01*
X969010Y646430D02*
X980440Y657860D01*
X947420Y645160D02*
X948690Y646430D01*
X808990Y585470D02*
X830580Y607060D01*
X949960D02*
X990600Y647700D01*
X875030Y637540D02*
X880110Y642620D01*
X882650Y612140D02*
X896620Y626110D01*
X878840Y632460D02*
X883920Y637540D01*
X849630Y745490D02*
Y756920D01*
X883920Y768350D02*
Y781050D01*
X989330Y708660D02*
X1193800D01*
X852170Y698500D02*
X864870D01*
X988060Y688340D02*
X1178560D01*
X979170Y662940D02*
X1178560D01*
X932180Y685800D02*
X966470D01*
X989330Y683260D02*
X1170940D01*
X918210Y673100D02*
X972820D01*
X939800Y664210D02*
X970280D01*
X858520Y736600D02*
X885190D01*
X854710Y762000D02*
X877570D01*
X984250Y713740D02*
X1207770D01*
X924560Y695960D02*
X966470D01*
X923290Y701040D02*
X965200D01*
X988060Y723900D02*
X1002030D01*
X892810Y728980D02*
X956310D01*
X963930Y736600D02*
X1132840D01*
X829310Y810260D02*
X864870Y774700D01*
X849630Y815340D02*
X883920Y781050D01*
X885190Y736600D02*
X892810Y728980D01*
X849630Y745490D02*
X858520Y736600D01*
X853440Y687070D02*
X864870Y698500D01*
X966470Y685800D02*
X989330Y708660D01*
X972820Y673100D02*
X988060Y688340D01*
X970280Y664210D02*
X989330Y683260D01*
X849630Y756920D02*
X854710Y762000D01*
X877570D02*
X883920Y768350D01*
X966470Y695960D02*
X984250Y713740D01*
X904240Y675640D02*
X924560Y695960D01*
X896620Y674370D02*
X923290Y701040D01*
X965200D02*
X988060Y723900D01*
X956310Y728980D02*
X963930Y736600D01*
X1023620Y977900D02*
X1087120Y914400D01*
X850900Y839470D02*
X864870Y825500D01*
X829310Y966470D02*
Y1051560D01*
X1002030Y977900D02*
X1023620D01*
X1087120Y985520D02*
Y1007110D01*
X1347470Y962660D02*
Y976630D01*
X1135380Y927100D02*
Y979170D01*
X1318260Y810260D02*
Y932180D01*
X1323340Y814070D02*
Y935990D01*
X1328420Y817880D02*
Y941070D01*
X1333500Y821690D02*
Y944880D01*
X1245870Y922020D02*
Y1004570D01*
X1282319Y933450D02*
X1309370D01*
X1125220Y1032510D02*
X1465580D01*
X1118870Y1038860D02*
X1469390D01*
X1154430Y977900D02*
X1176020D01*
X1149350Y993140D02*
X1179830D01*
X1282319Y946150D02*
X1304290D01*
X1282319Y958850D02*
X1300480D01*
X1282319Y971550D02*
X1297940D01*
X1282319Y984250D02*
X1294130D01*
X1137920Y1026160D02*
X1460500D01*
X1207770Y1021080D02*
X1391920D01*
X1257300Y1016000D02*
X1385570D01*
X1347470Y962660D02*
X1357630Y952500D01*
X1176020Y977900D02*
X1264920Y889000D01*
X1309370Y933450D02*
X1313180Y929640D01*
X1304290Y946150D02*
X1318260Y932180D01*
X1300480Y958850D02*
X1323340Y935990D01*
X1297940Y971550D02*
X1328420Y941070D01*
X1294130Y984250D02*
X1333500Y944880D01*
X1111250Y999490D02*
X1137920Y1026160D01*
X1097280Y1004570D02*
X1125220Y1032510D01*
X1087120Y1007110D02*
X1118870Y1038860D01*
X1347470Y976630D02*
X1355090Y984250D01*
X1135380Y979170D02*
X1149350Y993140D01*
X1179830D02*
X1207770Y1021080D01*
X1245870Y1004570D02*
X1257300Y1016000D01*
X1304290Y873760D02*
Y883920D01*
X1313180Y806450D02*
Y929640D01*
X1272540Y895350D02*
X1282319D01*
Y869950D02*
X1300480D01*
X1264920Y889000D02*
X1299210D01*
X1249680Y882650D02*
X1282319D01*
X1223010Y857250D02*
X1282319D01*
X1087120Y914400D02*
X1165860D01*
X1211580Y844550D02*
X1282319D01*
X1154430Y800100D02*
X1248410D01*
X1299210Y889000D02*
X1304290Y883920D01*
X1165860Y914400D02*
X1223010Y857250D01*
X1154430Y901700D02*
X1211580Y844550D01*
X1245870Y922020D02*
X1272540Y895350D01*
X1333500Y821690D02*
X1353820Y801370D01*
X1328420Y817880D02*
X1351280Y795020D01*
X1323340Y814070D02*
X1347470Y789940D01*
X1318260Y810260D02*
X1343660Y784860D01*
X1313180Y806450D02*
X1339850Y779780D01*
X1248410Y800100D02*
X1287780Y760730D01*
X1300480Y869950D02*
X1304290Y873760D01*
X1342390Y685800D02*
Y687070D01*
Y704850D02*
X1363980D01*
X1235710Y685800D02*
X1329690D01*
X1343660Y699770D02*
X1362710D01*
X1229360Y673100D02*
X1367663D01*
X1206500Y660400D02*
X1314450D01*
X1342390Y687070D02*
X1362710D01*
X1320800Y666750D02*
X1327023D01*
X1346200Y660400D02*
X1394841D01*
X1347470Y789940D02*
X1549400D01*
X1343660Y784860D02*
X1548130D01*
X1339850Y779780D02*
X1546860D01*
X1154430Y723900D02*
X1209040D01*
X1240790Y755650D02*
X1482090D01*
X1287780Y760730D02*
X1483360D01*
X1207770Y713740D02*
X1235710Y685800D01*
X1193800Y708660D02*
X1229360Y673100D01*
X1178560Y688340D02*
X1206500Y660400D01*
X1170940Y683260D02*
X1206500Y647700D01*
X1178560Y662940D02*
X1206500Y635000D01*
X1309370Y737870D02*
X1342390Y704850D01*
X1327023Y666750D02*
X1339723Y654050D01*
X1342390Y664210D02*
X1346200Y660400D01*
X1329690Y685800D02*
X1343660Y699770D01*
X1314450Y660400D02*
X1320800Y666750D01*
X1209040Y723900D02*
X1240790Y755650D01*
X1132840Y561340D02*
Y580390D01*
X1281430Y504190D02*
Y567690D01*
X1154430Y622300D02*
X1169670D01*
X1149350Y571500D02*
X1154430D01*
X1149350Y596900D02*
X1154430D01*
X1206500Y609600D02*
X1353693D01*
X1211580Y596900D02*
X1353693D01*
X1209040Y622300D02*
X1318133D01*
X1324483Y615950D02*
X1414653D01*
X1206500Y635000D02*
X1318133D01*
X1332103Y621030D02*
X1371600D01*
X1206500Y647700D02*
X1315720D01*
X1337310Y626110D02*
X1351280D01*
X1328420Y647700D02*
X1394841D01*
X1216660Y575310D02*
X1273810D01*
X1123950Y607060D02*
X1163320D01*
X1109980Y612140D02*
X1173480D01*
X1219200Y551180D02*
X1235710D01*
X1221740Y563880D02*
X1270000D01*
X1339723Y654050D02*
X1414653D01*
X1130300Y546100D02*
X1206500D01*
X1173480Y657860D02*
X1209040Y622300D01*
X1176020Y632460D02*
X1211580Y596900D01*
X1318133Y622300D02*
X1324483Y615950D01*
X1318133Y635000D02*
X1332103Y621030D01*
X1315720Y647700D02*
X1337310Y626110D01*
X1322070Y654050D02*
X1328420Y647700D01*
X1169670Y622300D02*
X1216660Y575310D01*
X1163320Y607060D02*
X1219200Y551180D01*
X1173480Y612140D02*
X1221740Y563880D01*
X1270000D02*
X1271270Y562610D01*
X1206500Y546100D02*
X1212850Y539750D01*
X1172210Y643890D02*
X1206500Y609600D01*
X1212850Y539750D02*
X1338961Y413639D01*
X1273810Y575310D02*
X1281430Y567690D01*
X1132840Y580390D02*
X1149350Y596900D01*
X1084580Y586740D02*
X1109980Y612140D01*
X1098550Y581660D02*
X1123950Y607060D01*
X1092200Y455930D02*
Y457200D01*
X1104900Y443230D02*
X1153160D01*
X1117600Y457200D02*
X1164590D01*
X1117600Y520700D02*
X1154430D01*
X1338961Y413639D02*
X1410970D01*
X1318260Y467360D02*
X1394460D01*
X1092200Y455930D02*
X1104900Y443230D01*
X1153160D02*
X1244600Y351790D01*
X1164590Y457200D02*
X1270000Y351790D01*
X1139190Y434340D02*
X1236980Y336550D01*
X1281430Y504190D02*
X1318260Y467360D01*
X1320800Y294640D02*
Y331470D01*
X1346200Y294640D02*
Y345440D01*
X1236980Y336550D02*
X1315720D01*
X1320800Y331470D01*
X1346200Y345440D02*
X1355090Y354330D01*
X1371600Y294640D02*
Y336550D01*
X1423670Y388620D02*
Y413639D01*
X1397000Y294640D02*
Y342900D01*
X1436370Y382270D02*
Y413639D01*
X1422400Y294640D02*
Y351790D01*
X1449070Y378460D02*
Y413639D01*
X1447800Y294640D02*
Y340360D01*
X1461770Y354330D02*
Y413639D01*
X1473200Y294640D02*
Y412369D01*
X1498600Y294640D02*
Y335280D01*
X1487170Y346710D02*
Y413639D01*
X1524000Y294640D02*
Y335280D01*
X1499870Y359410D02*
Y413639D01*
X1549400Y294640D02*
Y332740D01*
X1512570Y369570D02*
Y413639D01*
X1417320Y388620D02*
Y444500D01*
X1355090Y354330D02*
X1383030D01*
X1487170Y346710D02*
X1498600Y335280D01*
X1499870Y359410D02*
X1524000Y335280D01*
X1512570Y369570D02*
X1549400Y332740D01*
X1371600Y336550D02*
X1423670Y388620D01*
X1397000Y342900D02*
X1436370Y382270D01*
X1422400Y351790D02*
X1449070Y378460D01*
X1447800Y340360D02*
X1461770Y354330D01*
X1383030D02*
X1417320Y388620D01*
X1600200Y254000D02*
Y320040D01*
X1828800Y330200D02*
X1610360D01*
D02*
G03X1600200Y320040I0J-10160D01*
G01X1579880Y469900D02*
Y562610D01*
X1436370Y467360D02*
Y509651D01*
X1574800Y471170D02*
Y561340D01*
X1449070Y461010D02*
Y509651D01*
X1569720Y472440D02*
Y553720D01*
X1461770Y478790D02*
Y509651D01*
X1564640Y473710D02*
Y549910D01*
X1474470Y486410D02*
Y509651D01*
X1559560Y477520D02*
Y546100D01*
X1487170Y485140D02*
Y508889D01*
X1499870Y488950D02*
Y508889D01*
X1549400Y491490D02*
Y532130D01*
X1512570Y486410D02*
Y508889D01*
X1525270D02*
Y524510D01*
X1423670Y509651D02*
Y539750D01*
X1554480Y482600D02*
Y538480D01*
X1450340Y453390D02*
X1563370D01*
X1451610Y458470D02*
X1562100D01*
X1477010Y463550D02*
X1560830D01*
X1492250Y468630D02*
X1559560D01*
X1498600Y473710D02*
X1555750D01*
X1510030Y478790D02*
X1550670D01*
X1515110Y483870D02*
X1541780D01*
X1436370Y467360D02*
X1450340Y453390D01*
X1449070Y461010D02*
X1451610Y458470D01*
X1461770Y478790D02*
X1477010Y463550D01*
X1474470Y486410D02*
X1492250Y468630D01*
X1487170Y485140D02*
X1498600Y473710D01*
X1499870Y488950D02*
X1510030Y478790D01*
X1512570Y486410D02*
X1515110Y483870D01*
X1518920Y530860D02*
X1525270Y524510D01*
X1394460Y467360D02*
X1417320Y444500D01*
X1473200Y412369D02*
X1474470Y413639D01*
X1563370Y453390D02*
X1579880Y469900D01*
X1562100Y458470D02*
X1574800Y471170D01*
X1560830Y463550D02*
X1569720Y472440D01*
X1559560Y468630D02*
X1564640Y473710D01*
X1555750D02*
X1559560Y477520D01*
X1550670Y478790D02*
X1554480Y482600D01*
X1541780Y483870D02*
X1549400Y491490D01*
X1577340Y637540D02*
Y774700D01*
X1572260Y638810D02*
Y773430D01*
X1567180Y655320D02*
Y772160D01*
X1478280Y546100D02*
Y585470D01*
X1483360Y562610D02*
Y589280D01*
X1493520Y568960D02*
Y631190D01*
X1498600Y571500D02*
Y641350D01*
X1503680Y574040D02*
Y656590D01*
X1508760Y576580D02*
Y662940D01*
X1513840Y580390D02*
Y675640D01*
X1518920Y588010D02*
Y681990D01*
X1488440Y566420D02*
Y609600D01*
X1582420Y632460D02*
Y775970D01*
X1588770Y626110D02*
Y775970D01*
X1612900Y590550D02*
X1758950D01*
X1536319Y622300D02*
X1562100D01*
X1537081Y635000D02*
X1568450D01*
X1537081Y647700D02*
X1559560D01*
X1537081Y660400D02*
X1555750D01*
X1536319Y609600D02*
X1559560D01*
X1536319Y596900D02*
X1559560D01*
X1421003Y660400D02*
X1440942D01*
X1360043Y603250D02*
X1414653D01*
X1360043Y590550D02*
X1414653D01*
X1521460Y572770D02*
X1569720D01*
X1517650Y567690D02*
X1568450D01*
X1441069Y660400D02*
X1499870D01*
X1515110Y562610D02*
X1560830D01*
X1421003Y647700D02*
X1492250D01*
X1513840Y556260D02*
X1558290D01*
X1421003Y635000D02*
X1489710D01*
X1512570Y549910D02*
X1555750D01*
X1510030Y544830D02*
X1548130D01*
X1506220Y539750D02*
X1541780D01*
X1421003Y596900D02*
X1466850D01*
X1493520Y530860D02*
X1518920D01*
X1421003Y609600D02*
X1463040D01*
X1394079D02*
X1414780D01*
X1421130Y615950D02*
X1469390D01*
X1522730Y584200D02*
X1536319D01*
X1421003Y622300D02*
X1475740D01*
X1421130Y628650D02*
X1482090D01*
X1394079Y622300D02*
X1414780D01*
X1374140Y584200D02*
X1394079D01*
X1379220Y628650D02*
X1414653D01*
X1372870Y635000D02*
X1394841D01*
X1366520Y641350D02*
X1414653D01*
X1353693Y609600D02*
X1360043Y603250D01*
X1353693Y596900D02*
X1360043Y590550D01*
X1569720Y572770D02*
X1579880Y562610D01*
X1568450Y567690D02*
X1574800Y561340D01*
X1560830Y562610D02*
X1569720Y553720D01*
X1558290Y556260D02*
X1564640Y549910D01*
X1555750D02*
X1559560Y546100D01*
X1541780Y539750D02*
X1549400Y532130D01*
X1466850Y596900D02*
X1478280Y585470D01*
Y546100D02*
X1493520Y530860D01*
X1483360Y562610D02*
X1506220Y539750D01*
X1463040Y609600D02*
X1483360Y589280D01*
X1488440Y566420D02*
X1510030Y544830D01*
X1493520Y568960D02*
X1512570Y549910D01*
X1489710Y635000D02*
X1493520Y631190D01*
X1498600Y571500D02*
X1513840Y556260D01*
X1492250Y647700D02*
X1498600Y641350D01*
X1503680Y574040D02*
X1515110Y562610D01*
X1499870Y660400D02*
X1503680Y656590D01*
X1508760Y576580D02*
X1517650Y567690D01*
X1513840Y580390D02*
X1521460Y572770D01*
X1518920Y588010D02*
X1522730Y584200D01*
X1469390Y615950D02*
X1479550Y605790D01*
X1475740Y622300D02*
X1488440Y609600D01*
X1482090Y628650D02*
X1484630Y626110D01*
X1548130Y544830D02*
X1554480Y538480D01*
X1562100Y622300D02*
X1577340Y637540D01*
X1568450Y635000D02*
X1572260Y638810D01*
X1559560Y647700D02*
X1567180Y655320D01*
X1555750Y660400D02*
X1562100Y666750D01*
X1559560Y609600D02*
X1582420Y632460D01*
X1559560Y596900D02*
X1588770Y626110D01*
X1414653Y654050D02*
X1421003Y660400D01*
X1414653Y641350D02*
X1421003Y647700D01*
X1414653Y628650D02*
X1421003Y635000D01*
X1414653Y615950D02*
X1421003Y622300D01*
X1414653Y603250D02*
X1421003Y609600D01*
X1414653Y590550D02*
X1421003Y596900D01*
X1414780Y609600D02*
X1421130Y615950D01*
X1414780Y622300D02*
X1421130Y628650D01*
X1369060Y579120D02*
X1374140Y584200D01*
X1371600Y621030D02*
X1379220Y628650D01*
X1367790Y629920D02*
X1372870Y635000D01*
X1351280Y626110D02*
X1366520Y641350D01*
X1562100Y666750D02*
Y770890D01*
X1557020Y678180D02*
Y769620D01*
X1611630Y762000D02*
Y788670D01*
X1375410Y683260D02*
Y687070D01*
X1597660Y742950D02*
Y773430D01*
X1510030Y690880D02*
Y727710D01*
X1515110Y694690D02*
Y728980D01*
X1616710Y723900D02*
X1682750D01*
X1537081Y673100D02*
X1551940D01*
X1421130Y685800D02*
X1503680D01*
X1421003Y673100D02*
X1498600D01*
X1524000Y685800D02*
X1537081D01*
X1383030D02*
X1394841D01*
X1379220Y679450D02*
X1414780D01*
X1376680Y673100D02*
X1394841D01*
X1374013Y666750D02*
X1414653D01*
X1351280Y795020D02*
X1550670D01*
X1611630Y762000D02*
X1639570Y734060D01*
X1498600Y673100D02*
X1508760Y662940D01*
X1503680Y685800D02*
X1513840Y675640D01*
X1597660Y742950D02*
X1616710Y723900D01*
X1363980Y704850D02*
X1383030Y685800D01*
X1362710Y699770D02*
X1375410Y687070D01*
Y683260D02*
X1379220Y679450D01*
X1367663Y673100D02*
X1374013Y666750D01*
X1362710Y687070D02*
X1376680Y673100D01*
X1515110Y694690D02*
X1524000Y685800D01*
X1510030Y690880D02*
X1518920Y681990D01*
X1482090Y755650D02*
X1510030Y727710D01*
X1483360Y760730D02*
X1515110Y728980D01*
X1554480Y816610D02*
X1597660Y773430D01*
X1553210Y811530D02*
X1588770Y775970D01*
X1551940Y806450D02*
X1582420Y775970D01*
X1550670Y801370D02*
X1577340Y774700D01*
X1550670Y795020D02*
X1572260Y773430D01*
X1549400Y789940D02*
X1567180Y772160D01*
X1548130Y784860D02*
X1562100Y770890D01*
X1546860Y779780D02*
X1557020Y769620D01*
X1551940Y673100D02*
X1557020Y678180D01*
X1414780Y679450D02*
X1421130Y685800D01*
X1414653Y666750D02*
X1421003Y673100D01*
X1611630Y788670D02*
X1671320Y848360D01*
X1490980Y927100D02*
Y1017270D01*
X1407160Y873760D02*
Y890270D01*
Y908050D02*
Y909320D01*
X1432560Y835660D02*
Y946150D01*
X1427480Y834390D02*
Y941070D01*
X1422400Y833120D02*
Y938530D01*
X1526540Y895350D02*
X1549781D01*
X1453769Y920750D02*
X1468120D01*
X1453769Y908050D02*
X1471930D01*
X1378331Y844550D02*
X1393190D01*
X1383411Y900430D02*
X1399540D01*
X1451610Y816610D02*
X1554480D01*
X1450340Y811530D02*
X1553210D01*
X1449070Y806450D02*
X1551940D01*
X1353820Y801370D02*
X1550670D01*
X1393190Y844550D02*
X1414780Y822960D01*
X1432560Y835660D02*
X1451610Y816610D01*
X1427480Y834390D02*
X1450340Y811530D01*
X1422400Y833120D02*
X1449070Y806450D01*
X1468120Y920750D02*
X1483360Y935990D01*
X1471930Y908050D02*
X1490980Y927100D01*
X1378331Y895350D02*
X1383411Y900430D01*
X1399540D02*
X1407160Y908050D01*
X1478280Y939800D02*
Y1008380D01*
X1483360Y935990D02*
Y1014730D01*
X1394460Y966470D02*
Y1007110D01*
X1399540Y971550D02*
Y1013460D01*
X1357630Y952500D02*
X1408430D01*
X1355090Y984250D02*
X1378331D01*
Y958850D02*
X1409700D01*
X1549781Y946150D02*
X1640840D01*
X1453769Y933450D02*
X1471930D01*
X1357630Y971550D02*
X1378331D01*
X1397000Y963930D02*
X1414780D01*
X1440180Y946150D02*
X1453769D01*
X1402080Y969010D02*
X1417320D01*
X1460500Y1026160D02*
X1478280Y1008380D01*
X1465580Y1032510D02*
X1483360Y1014730D01*
X1469390Y1038860D02*
X1490980Y1017270D01*
X1414780Y963930D02*
X1432560Y946150D01*
X1394460Y966470D02*
X1397000Y963930D01*
X1417320Y969010D02*
X1440180Y946150D01*
X1399540Y971550D02*
X1402080Y969010D01*
X1409700Y958850D02*
X1427480Y941070D01*
X1408430Y952500D02*
X1422400Y938530D01*
X1391920Y1021080D02*
X1399540Y1013460D01*
X1385570Y1016000D02*
X1394460Y1007110D01*
X1471930Y933450D02*
X1478280Y939800D01*
X1690370Y938530D02*
Y966470D01*
X1671320Y930910D02*
Y938530D01*
X1690370D02*
X1717040D01*
X1671320Y930910D02*
X1690370Y911860D01*
X1640840Y946150D02*
X1671320Y915670D01*
X1717040Y938530D02*
X1718310Y939800D01*
X1828800Y1066800D02*
Y330200D01*
X1690370Y910590D02*
Y911860D01*
X1671320Y848360D02*
Y915670D01*
X1682750Y742950D02*
Y781050D01*
X1700530Y685800D02*
Y725170D01*
X1639570Y734060D02*
X1691640D01*
X1682750Y781050D02*
X1718310D01*
X1691640Y734060D02*
X1700530Y725170D01*
Y685800D02*
X1750060Y636270D01*
X1638300Y571500D02*
Y590550D01*
X1765300Y609600D02*
Y636270D01*
X1638300Y552450D02*
X1758950D01*
X1750060Y636270D02*
X1765300D01*
X1758950Y590550D02*
X1765300Y584200D01*
X1758950Y552450D02*
X1765300Y558800D01*
X1633220Y452120D02*
X1630680Y454660D01*
X1628140D01*
X1625600Y452120D01*
Y445770D01*
X1628140Y443230D01*
X1630680D01*
X1633220Y445770D01*
X1637030Y454660D02*
X1642110D01*
X1644650Y452120D01*
Y445770D01*
X1642110Y443230D01*
X1637030D01*
X1638300Y454660D02*
Y443230D01*
X1651000D02*
X1653540D01*
X1652270D02*
Y454660D01*
X1651000D02*
X1653540D01*
X1659890Y444500D02*
X1661160Y443230D01*
X1666240D01*
X1667510Y444500D01*
Y453390D01*
X1666240Y454660D01*
X1661160D01*
X1659890Y453390D01*
Y444500D01*
X1625600Y431800D02*
X1633220D01*
X1629410D02*
Y420370D01*
X1638300Y421640D02*
Y426720D01*
X1639570Y427990D01*
X1643380D01*
X1644650Y426720D01*
Y421640D01*
X1643380Y420370D01*
X1639570D01*
X1638300Y421640D01*
X1649730Y416560D02*
Y427990D01*
Y426720D01*
X1651000Y427990D01*
X1654810D01*
X1656080Y426720D01*
Y421640D01*
X1654810Y420370D01*
X1651000D01*
X1649730Y421640D01*
X1675130Y431800D02*
Y420370D01*
X1673860D02*
X1676400D01*
X1690370Y427990D02*
Y420370D01*
Y421640D01*
X1689100Y420370D01*
X1685290D01*
X1684020Y421640D01*
Y426720D01*
X1685290Y427990D01*
X1689100D01*
X1690370Y426720D01*
X1695450Y427990D02*
Y421640D01*
X1696720Y420370D01*
X1701800D01*
Y427990D01*
Y417830D01*
X1700530Y416560D01*
X1696720D01*
X1713230Y421640D02*
X1711960Y420370D01*
X1708150D01*
X1706880Y421640D01*
Y426720D01*
X1708150Y427990D01*
X1711960D01*
X1713230Y426720D01*
Y425450D01*
X1711960Y424180D01*
X1706880D01*
X1718310Y420370D02*
Y427990D01*
Y426720D01*
X1719580Y427990D01*
X1723390D01*
X1724660Y426720D01*
X1775460Y430530D02*
X1776730Y431800D01*
X1780540D01*
X1781810Y430530D01*
Y426720D01*
X1778000D01*
X1781810D01*
Y421640D01*
X1780540Y420370D01*
X1776730D01*
X1775460Y421640D01*
X1786890Y430530D02*
X1788160Y431800D01*
X1791970D01*
X1793240Y430530D01*
Y429260D01*
X1786890Y422910D01*
Y420370D01*
X1793240D01*
X1799590D02*
X1802130D01*
X1804670Y422910D01*
Y430530D01*
X1803400Y431800D01*
X1799590D01*
X1798320Y430530D01*
Y427990D01*
X1799590Y426720D01*
X1804670D01*
X1814830D02*
X1811020D01*
X1809750Y427990D01*
Y430530D01*
X1811020Y431800D01*
X1814830D01*
X1816100Y430530D01*
Y427990D01*
X1814830Y426720D01*
X1816100Y425450D01*
Y421640D01*
X1814830Y420370D01*
X1811020D01*
X1809750Y421640D01*
Y425450D01*
X1811020Y426720D01*
X1764030Y378460D02*
X1766570D01*
X1769110Y381000D01*
Y388620D01*
X1767840Y389890D01*
X1764030D01*
X1762760Y388620D01*
Y386080D01*
X1764030Y384810D01*
X1769110D01*
X1780540Y383540D02*
X1774190D01*
Y384810D01*
X1779270Y389890D01*
Y378460D01*
X1785620Y389890D02*
Y382270D01*
X1789430Y378460D01*
X1793240Y382270D01*
Y389890D01*
X1798320Y383540D02*
X1804670D01*
X1816100Y388620D02*
Y379730D01*
X1814830Y378460D01*
X1809750D01*
X1808480Y379730D01*
Y388620D01*
X1809750Y389890D01*
X1814830D01*
X1816100Y388620D01*
Y387350D01*
X1808480Y379730D01*
X1625600Y466090D02*
Y477520D01*
X1631950D01*
X1633220Y476250D01*
Y473710D01*
X1631950Y472440D01*
X1625600D01*
X1644650Y474980D02*
X1642110Y477520D01*
X1639570D01*
X1637030Y474980D01*
Y468630D01*
X1639570Y466090D01*
X1642110D01*
X1644650Y468630D01*
X1648460Y477520D02*
X1654810D01*
X1656080Y476250D01*
Y473710D01*
X1654810Y472440D01*
X1649730D01*
X1654810D01*
X1656080Y471170D01*
Y467360D01*
X1654810Y466090D01*
X1648460D01*
X1649730D02*
Y477520D01*
X1678940D02*
X1671320D01*
Y466090D01*
X1678940D01*
X1671320Y472440D02*
X1676400D01*
X1686560Y477520D02*
Y466090D01*
X1685290D02*
X1687830D01*
X1701800Y467360D02*
X1700530Y466090D01*
X1696720D01*
X1695450Y467360D01*
Y472440D01*
X1696720Y473710D01*
X1700530D01*
X1701800Y472440D01*
Y471170D01*
X1700530Y469900D01*
X1695450D01*
X1706880Y463550D02*
X1708150Y462280D01*
X1711960D01*
X1713230Y463550D01*
Y473710D01*
X1708150D01*
X1706880Y472440D01*
Y467360D01*
X1708150Y466090D01*
X1713230D01*
X1724660Y473710D02*
Y466090D01*
Y467360D01*
X1723390Y466090D01*
X1719580D01*
X1718310Y467360D01*
Y472440D01*
X1719580Y473710D01*
X1723390D01*
X1724660Y472440D01*
X1729740Y466090D02*
Y473710D01*
Y472440D01*
X1731010Y473710D01*
X1734820D01*
X1736090Y472440D01*
Y466090D01*
X1747520Y472440D02*
X1746250Y473710D01*
X1742440D01*
X1741170Y472440D01*
Y467360D01*
X1742440Y466090D01*
X1746250D01*
X1747520Y467360D01*
X1758950D02*
X1757680Y466090D01*
X1753870D01*
X1752600Y467360D01*
Y472440D01*
X1753870Y473710D01*
X1757680D01*
X1758950Y472440D01*
Y471170D01*
X1757680Y469900D01*
X1752600D01*
G54D101*
X901700Y340360D02*
Y403860D01*
X876300Y340360D02*
Y403860D01*
X838200Y441960D02*
Y457200D01*
Y441960D02*
X876300Y403860D01*
G54D102*
X449580Y373380D02*
Y381889D01*
X419100Y412369D02*
X449580Y381889D01*
X303530Y509651D02*
Y533400D01*
X419100Y412369D02*
Y455930D01*
X453390Y433070D02*
Y476250D01*
X467360Y416560D02*
X477520D01*
X454660Y466090D02*
X477520D01*
X303530Y509651D02*
X304800Y508381D01*
X453390Y430530D02*
X467360Y416560D01*
X453390Y467360D02*
X454660Y466090D01*
X419100Y455930D02*
X421640Y458470D01*
X452120Y431800D02*
X453390Y433070D01*
X494919Y603250D02*
X520700D01*
X285750D02*
X342519D01*
X283210Y533400D02*
X303530D01*
X306070Y584200D02*
X336169D01*
X265430Y568960D02*
X287020D01*
X481330Y590550D02*
X494919D01*
X283210Y605790D02*
X285750Y603250D01*
X287020Y568960D02*
X303530Y552450D01*
X472440Y599440D02*
X481330Y590550D01*
X290830Y568960D02*
X306070Y584200D01*
X336169D02*
X342519Y590550D01*
Y704850D02*
Y716661D01*
X439420Y746760D02*
Y758190D01*
X496570Y768350D02*
Y780669D01*
X494919Y704850D02*
Y713359D01*
X438531Y704850D02*
Y726821D01*
Y704850D02*
X454660D01*
X337058Y781050D02*
X360299D01*
X300990D02*
X337058D01*
X335280Y723900D02*
X342519Y716661D01*
X496189Y781050D02*
X496570Y780669D01*
X494919Y713359D02*
X495300Y713740D01*
X438531Y726821D02*
X439420Y727710D01*
X487680Y984250D02*
Y1028700D01*
X457200Y947039D02*
Y971550D01*
X474980D01*
X441960Y990600D02*
X457200D01*
X474980Y971550D02*
X487680Y984250D01*
X456311Y946150D02*
X457200Y947039D01*
X614680Y977900D02*
Y1028700D01*
X590550Y947801D02*
Y970280D01*
X607060D01*
X558800Y989330D02*
X590550D01*
Y947801D02*
X592201Y946150D01*
X537210Y1010920D02*
X558800Y989330D01*
X607060Y970280D02*
X614680Y977900D01*
X590931Y704850D02*
Y726821D01*
X576580Y746760D02*
X591820D01*
X567690Y704850D02*
X590931D01*
X712470Y774700D02*
X792480D01*
X855980Y711200D01*
X590931Y726821D02*
X591820Y727710D01*
X608330Y505460D02*
Y506730D01*
X563880Y373380D02*
Y405130D01*
X669290Y466090D02*
Y487680D01*
X568960Y492760D02*
X595630D01*
X641350Y438150D02*
X666750D01*
X531495Y416560D02*
X552450D01*
X641350Y466090D02*
X669290D01*
X627380Y506730D02*
X650240D01*
X666750Y438150D02*
X676910Y427990D01*
X552450Y416560D02*
X563880Y405130D01*
X650240Y506730D02*
X669290Y487680D01*
X595630Y492760D02*
X608330Y505460D01*
X810260Y438150D02*
Y461010D01*
X803910Y431800D02*
X810260Y438150D01*
X969010Y755650D02*
Y1027430D01*
X864870Y749300D02*
X882650D01*
X890270Y741680D02*
X934720D01*
X937260Y744220D02*
X957580D01*
X915670Y775970D02*
X957580D01*
X855980Y711200D02*
X957580D01*
X1002030Y774700D02*
X1112520D01*
X882650Y749300D02*
X890270Y741680D01*
X957580Y775970D02*
X958850Y774700D01*
X934720Y741680D02*
X937260Y744220D01*
X957580D02*
X969010Y755650D01*
X900430Y760730D02*
X915670Y775970D01*
X957580Y711200D02*
X969010Y722630D01*
X1348740Y925830D02*
Y947420D01*
X1328420Y967740D02*
Y1004570D01*
X1254760Y932180D02*
Y994410D01*
X1270000Y1009650D02*
X1323340D01*
X1328420Y967740D02*
X1348740Y947420D01*
X1323340Y1009650D02*
X1328420Y1004570D01*
X1254760Y932180D02*
X1266190Y920750D01*
X1254760Y994410D02*
X1270000Y1009650D01*
X1230630Y882650D02*
Y897890D01*
X1266190Y920750D02*
X1282319D01*
Y908050D02*
X1303020D01*
X1348740Y925830D02*
X1353820Y920750D01*
X1296670Y700659D02*
Y741680D01*
X1304290Y749300D02*
X1402080D01*
X1277620Y698500D02*
X1298829D01*
X1154430Y749300D02*
X1165860D01*
X1172210Y742950D02*
X1191260D01*
X1125220Y762000D02*
X1191260D01*
X1296670Y700659D02*
X1298829Y698500D01*
X1165860Y749300D02*
X1172210Y742950D01*
X1112520Y774700D02*
X1125220Y762000D01*
X1296670Y741680D02*
X1304290Y749300D01*
X1298829Y540131D02*
Y584200D01*
X1278890D02*
X1298829D01*
Y540131D02*
X1327150Y511810D01*
X1277620Y585470D02*
X1278890Y584200D01*
X1327150Y511810D02*
X1365250D01*
X1525270Y381000D02*
Y413639D01*
X1410970Y485140D02*
Y509651D01*
X1365250Y511810D02*
Y541020D01*
X1386459Y509651D02*
X1410970D01*
X1384300Y511810D02*
X1386459Y509651D01*
X1612900Y609600D02*
Y618490D01*
X1441069Y569849D02*
Y584200D01*
X1384300Y560070D02*
X1431290D01*
X1441069Y569849D01*
X1365250Y541020D02*
X1384300Y560070D01*
X1612900Y618490D02*
X1620520Y626110D01*
X1536700Y698881D02*
Y720090D01*
X1394841Y698500D02*
Y702691D01*
X1440180Y699389D02*
Y708660D01*
X1412240Y720090D02*
X1499870D01*
X1409700Y741680D02*
X1440180D01*
X1442720Y773430D02*
X1504950D01*
X1536700Y698881D02*
X1537081Y698500D01*
X1402080Y749300D02*
X1409700Y741680D01*
X1440180Y699389D02*
X1441069Y698500D01*
X1504950Y773430D02*
X1537970Y740410D01*
X1536700Y720090D02*
X1537970Y721360D01*
X1394841Y702691D02*
X1412240Y720090D01*
X1440180Y770890D02*
X1442720Y773430D01*
X1492250Y857250D02*
Y890270D01*
X1518920Y916940D02*
Y999490D01*
X1549019Y847471D02*
Y869950D01*
X1407160Y843280D02*
Y854710D01*
X1378331Y933450D02*
Y946150D01*
Y857250D02*
Y869950D01*
X1353820Y920750D02*
X1378331D01*
X1453769Y857250D02*
X1549019D01*
X1518920Y933450D02*
X1549781D01*
X1378331D02*
X1395730D01*
X1355090Y908050D02*
X1378331D01*
X1357630Y857250D02*
X1378331D01*
X1529080Y920750D02*
X1623060D01*
X1549019Y847471D02*
X1549400Y847090D01*
X1492250Y890270D02*
X1518920Y916940D01*
X1453769Y958850D02*
Y971550D01*
Y984250D02*
Y997331D01*
X1409700Y985520D02*
X1423670D01*
X1437640Y971550D02*
X1453769D01*
X1409700Y1004570D02*
X1446530D01*
X1527810Y1008380D02*
X1573530D01*
X1534160Y996950D02*
X1549781D01*
X1584960Y977900D02*
X1623060D01*
X1423670Y985520D02*
X1437640Y971550D01*
X1446530Y1004570D02*
X1453769Y997331D01*
X1573530Y1008380D02*
X1584960Y996950D01*
X1436370Y1004570D02*
X1437640Y1005840D01*
X1518920Y999490D02*
X1527810Y1008380D01*
X1529080Y991870D02*
X1534160Y996950D01*
X1659890Y966470D02*
X1671320D01*
X1645920Y781050D02*
X1663700D01*
X1638300Y609600D02*
Y635000D01*
G54D103*
X452120Y431800D02*
Y458470D01*
X300990D02*
X452120D01*
Y431800D02*
X453390Y430530D01*
X279400Y436880D02*
X300990Y458470D01*
X721360Y351790D02*
Y421640D01*
X760730Y461010D02*
X791210D01*
X721360Y421640D02*
X760730Y461010D01*
X731520Y341630D02*
X781050D01*
X721360Y351790D02*
X731520Y341630D01*
X781050D02*
X796290Y356870D01*
X937260Y775970D02*
Y1052830D01*
X1587500Y361950D02*
X1614170D01*
G54D104*
X487680Y1028700D02*
X795020D01*
X745490Y370840D02*
Y401320D01*
X775970Y431800D02*
X803910D01*
X745490Y401320D02*
X775970Y431800D01*
X788670Y356870D02*
X796290D01*
X775970Y369570D02*
X788670Y356870D01*
X744220Y369570D02*
X745490Y370840D01*
X1294130Y386080D02*
Y426720D01*
X1614170Y361950D02*
Y381000D01*
X1568450Y426720D02*
X1614170Y381000D01*
X1645920Y361950D02*
Y389890D01*
G54D105*
X283210Y605790D02*
Y711200D01*
X295910Y723900D02*
X335280D01*
X283210Y711200D02*
X295910Y723900D01*
G54D204*
X449580Y373380D03*
X368300Y528320D03*
X453390Y430530D03*
X279400Y436880D03*
X453390Y476250D03*
X394970Y558800D03*
X415290Y562610D03*
X330200Y547370D03*
X342900Y537210D03*
X458470Y647700D03*
X520700Y603250D03*
X379730Y556260D03*
X359410D03*
X374650Y567690D03*
X283210Y605790D03*
Y533400D03*
X265430Y568960D03*
X454660Y579120D03*
X472440Y599440D03*
X361950Y732790D03*
X375920D03*
X389890D03*
X398780Y720090D03*
X407670Y689610D03*
X422910Y725170D03*
X455930Y736600D03*
X417830Y746760D03*
X468630Y750570D03*
X505460Y726440D03*
X300990Y781050D03*
X439420Y758190D03*
X496570Y768350D03*
X495300Y713740D03*
X454660Y704850D03*
X459740Y723900D03*
X524510Y892810D03*
Y924560D03*
X528320Y875030D03*
X335280Y876300D03*
X532130Y942340D03*
X433070Y949960D03*
X441960Y990600D03*
X640080Y951230D03*
X651510Y972820D03*
X561340Y960120D03*
X627380Y948690D03*
X795020Y1028700D03*
X546100Y927100D03*
X537210Y1010920D03*
X542290Y905510D03*
X791210Y864870D03*
X557530Y868680D03*
X553720Y838200D03*
X541020Y835660D03*
X648970Y844550D03*
X618490Y825500D03*
X540512Y877824D03*
X648970Y825500D03*
X551180Y749300D03*
X565150Y726440D03*
X537210Y758190D03*
X764540Y722630D03*
X782320Y749300D03*
X576580Y746760D03*
X542290Y679450D03*
X567690Y704850D03*
X613410Y654050D03*
X541020Y607060D03*
X557530Y617220D03*
X568960Y492760D03*
X745490Y403860D03*
X721360Y421640D03*
X676910Y427990D03*
X669290Y466090D03*
X662940Y349250D03*
X796290Y356870D03*
X563880Y373380D03*
X901700Y340360D03*
X876300D03*
X1055370Y445770D03*
X833120Y518160D03*
X811530D03*
X901700Y403860D03*
X876300D03*
X1032510Y624840D03*
X947420Y645160D03*
X937260Y637540D03*
X924560Y627380D03*
X880110Y648970D03*
X904240Y615950D03*
X887730Y637540D03*
X918210Y673100D03*
X932180Y685800D03*
X958850Y774700D03*
X969010Y722630D03*
Y1027430D03*
X937260Y1052830D03*
X829310Y1051560D03*
X1111250Y999490D03*
X1097280Y1004570D03*
X1087120Y985520D03*
X1135380Y927100D03*
X1328420Y1000760D03*
X1303020Y908050D03*
X1230630Y897890D03*
X1309370Y737870D03*
X1342390Y685800D03*
Y664210D03*
X1132840Y736600D03*
X1277620Y698500D03*
X1322070Y654050D03*
X1271270Y562610D03*
X1172210Y643890D03*
X1277620Y585470D03*
X1233170Y551180D03*
X1294130Y386080D03*
Y426720D03*
X1324610Y511810D03*
X1244600Y351790D03*
X1270000D03*
X1587500Y361950D03*
X1525270Y381000D03*
X1568450Y426720D03*
X1410970Y485140D03*
X1479550Y605790D03*
X1484630Y626110D03*
X1423670Y539750D03*
X1369060Y579120D03*
X1367790Y629920D03*
X1620520Y626110D03*
X1536700Y709930D03*
X1499870Y720090D03*
X1440180Y741680D03*
Y708660D03*
Y770890D03*
X1414780Y822960D03*
X1527810Y895350D03*
X1549400Y847090D03*
X1407160Y843280D03*
X1529080Y920750D03*
X1395730Y933450D03*
X1355090Y908050D03*
X1357630Y857250D03*
X1623060Y920750D03*
X1357630Y971550D03*
X1423670Y985520D03*
X1437640Y1005840D03*
X1518920Y960120D03*
X1529080Y991870D03*
X1623060Y977900D03*
X1659890Y966470D03*
X1645920Y781050D03*
X1638300Y635000D03*
X1645920Y389890D03*
G54D100*
X273050Y193463D02*
X269663Y196850D01*
X259503D01*
X256117Y193463D01*
Y179917D01*
X259503Y176530D01*
X269663D01*
X273050Y179917D01*
X303530Y207010D02*
Y176530D01*
X289983D01*
X286597Y179917D01*
Y190077D01*
X289983Y193463D01*
X303530D01*
X323850Y203623D02*
D01*
Y196850D02*
Y176530D01*
X347557Y179917D02*
Y193463D01*
X350943Y196850D01*
X361103D01*
X364490Y193463D01*
Y179917D01*
X361103Y176530D01*
X350943D01*
X347557Y179917D01*
X252730Y156210D02*
Y125730D01*
X273050D01*
X303530Y146050D02*
Y125730D01*
Y129117D01*
X300143Y125730D01*
X289983D01*
X286597Y129117D01*
Y142663D01*
X289983Y146050D01*
X300143D01*
X303530Y142663D01*
X317077Y146050D02*
Y129117D01*
X320463Y125730D01*
X334010D01*
Y146050D01*
Y118957D01*
X330623Y115570D01*
X320463D01*
X364490Y129117D02*
X361103Y125730D01*
X350943D01*
X347557Y129117D01*
Y142663D01*
X350943Y146050D01*
X361103D01*
X364490Y142663D01*
Y139277D01*
X361103Y135890D01*
X347557D01*
X378037Y125730D02*
Y146050D01*
Y142663D01*
X381423Y146050D01*
X391583D01*
X394970Y142663D01*
X438997Y149437D02*
X445770Y156210D01*
Y125730D01*
X438997D01*
X452543D01*
X510117Y156210D02*
X503343Y149437D01*
Y132503D01*
X510117Y125730D01*
X527050Y156210D02*
X547370D01*
X537210D02*
Y125730D01*
X560917Y129117D02*
Y142663D01*
X564303Y146050D01*
X574463D01*
X577850Y142663D01*
Y129117D01*
X574463Y125730D01*
X564303D01*
X560917Y129117D01*
X591397Y115570D02*
Y146050D01*
Y142663D01*
X594783Y146050D01*
X604943D01*
X608330Y142663D01*
Y129117D01*
X604943Y125730D01*
X594783D01*
X591397Y129117D01*
X628650Y156210D02*
X635423Y149437D01*
Y132503D01*
X628650Y125730D01*
X252730Y74930D02*
Y95250D01*
X262890Y105410D01*
X273050Y95250D01*
Y88477D01*
X252730D01*
X273050D01*
Y74930D01*
X286597Y64770D02*
Y95250D01*
Y91863D01*
X289983Y95250D01*
X300143D01*
X303530Y91863D01*
Y78317D01*
X300143Y74930D01*
X289983D01*
X286597Y78317D01*
X317077Y74930D02*
Y95250D01*
Y91863D01*
X320463Y95250D01*
X330623D01*
X334010Y91863D01*
X354330Y102023D02*
D01*
Y95250D02*
Y74930D01*
X384810Y105410D02*
Y74930D01*
X381423D02*
X388197D01*
X438997Y98637D02*
X445770Y105410D01*
Y74930D01*
X438997D01*
X452543D01*
X479637Y91863D02*
X469477D01*
X466090Y95250D01*
Y102023D01*
X469477Y105410D01*
X479637D01*
X483023Y102023D01*
Y95250D01*
X479637Y91863D01*
X483023Y88477D01*
Y78317D01*
X479637Y74930D01*
X469477D01*
X466090Y78317D01*
Y88477D01*
X469477Y91863D01*
X506730Y68157D02*
X510117Y71543D01*
Y78317D01*
X506730D01*
Y74930D01*
X510117D01*
X557530Y102023D02*
X560917Y105410D01*
X571077D01*
X574463Y102023D01*
Y98637D01*
X557530Y81703D01*
Y74930D01*
X574463D01*
X608330Y102023D02*
Y78317D01*
X604943Y74930D01*
X591397D01*
X588010Y78317D01*
Y102023D01*
X591397Y105410D01*
X604943D01*
X608330Y102023D01*
Y98637D01*
X588010Y78317D01*
X621877Y98637D02*
X628650Y105410D01*
Y74930D01*
X621877D01*
X635423D01*
X648970Y102023D02*
X652357Y105410D01*
X662517D01*
X665903Y102023D01*
Y98637D01*
X648970Y81703D01*
Y74930D01*
X665903D01*
X713317Y98637D02*
X720090Y105410D01*
Y74930D01*
X713317D01*
X726863D01*
X743797D02*
X750570D01*
X757343Y81703D01*
Y102023D01*
X753957Y105410D01*
X743797D01*
X740410Y102023D01*
Y95250D01*
X743797Y91863D01*
X757343D01*
X784437Y95250D02*
Y98637D01*
X781050D01*
Y95250D01*
X784437D01*
Y81703D02*
Y85090D01*
X781050D01*
Y81703D01*
X784437D01*
X801370Y102023D02*
X804757Y105410D01*
X814917D01*
X818303Y102023D01*
Y98637D01*
X801370Y81703D01*
Y74930D01*
X818303D01*
X845397Y91863D02*
X835237D01*
X831850Y95250D01*
Y102023D01*
X835237Y105410D01*
X845397D01*
X848783Y102023D01*
Y95250D01*
X845397Y91863D01*
X848783Y88477D01*
Y78317D01*
X845397Y74930D01*
X835237D01*
X831850Y78317D01*
Y88477D01*
X835237Y91863D01*
X875877Y95250D02*
Y98637D01*
X872490D01*
Y95250D01*
X875877D01*
Y81703D02*
Y85090D01*
X872490D01*
Y81703D01*
X875877D01*
X892810Y102023D02*
X896197Y105410D01*
X906357D01*
X909743Y102023D01*
Y91863D01*
X899583D01*
X909743D01*
Y78317D01*
X906357Y74930D01*
X896197D01*
X892810Y78317D01*
X926677Y74930D02*
X933450D01*
X940223Y81703D01*
Y102023D01*
X936837Y105410D01*
X926677D01*
X923290Y102023D01*
Y95250D01*
X926677Y91863D01*
X940223D01*
M02*
