G04 Bottom_2 *
G04 Layout preamp.pcb *
G04 Designed with PCB elegance 3.50 *
G04 *
G04 *
%FSLAX34Y34*%
%MOMM*%
G75*
G01*
%IPPOS*%
%ADD100C,0.3048*%
%ADD101C,1.0160*%
%ADD102C,0.2032*%
%ADD200C,1.1176*%
%ADD201C,1.3208*%
%ADD202C,1.1684*%
%ADD203C,1.4732*%
%ADD204C,0.7112*%
%ADD205C,1.4224*%
%ADD206C,1.2700*%
%ADD400R,1.1176X1.1176*%
%ADD401R,1.3208X1.3208*%
%ADD402R,1.1684X1.1684*%
%ADD403R,1.4224X1.4224*%
%LPD*%G36*
X810491Y305364D02*
X809529Y307165D01*
X808936Y309118D01*
X808736Y311150D01*
X808936Y313182D01*
X809529Y315135D01*
X810491Y316936D01*
X811786Y318514D01*
X813364Y319809D01*
X815165Y320771D01*
X817118Y321364D01*
X819150Y321564D01*
X821182Y321364D01*
X823135Y320771D01*
X824936Y319809D01*
X826514Y318514D01*
X827809Y316936D01*
X828771Y315135D01*
X829364Y313182D01*
X829564Y311150D01*
X829364Y309118D01*
X828771Y307165D01*
X828548Y306747D01*
Y304038D01*
X839913D01*
X871188Y335312D01*
X902462Y366587D01*
Y569722D01*
X885463D01*
X884335Y569380D01*
X882650Y569214D01*
X880965Y569380D01*
X879837Y569722D01*
X860063D01*
X858935Y569380D01*
X857250Y569214D01*
X855565Y569380D01*
X853945Y569871D01*
X852452Y570669D01*
X851143Y571743D01*
X850069Y573052D01*
X849271Y574545D01*
X848780Y576165D01*
X848614Y577850D01*
X848780Y579535D01*
X849271Y581155D01*
X850069Y582648D01*
X851143Y583957D01*
X852452Y585031D01*
X853945Y585829D01*
X855565Y586320D01*
X857250Y586486D01*
X858935Y586320D01*
X860063Y585978D01*
X879837D01*
X880965Y586320D01*
X882650Y586486D01*
X884335Y586320D01*
X885463Y585978D01*
X902462D01*
Y805942D01*
X784860D01*
X783274Y806098D01*
X781750Y806561D01*
X780344Y807312D01*
X779113Y808323D01*
X762603Y824833D01*
X761592Y826064D01*
X760841Y827470D01*
X760378Y828994D01*
X760222Y830580D01*
Y835660D01*
X759460D01*
Y836814D01*
X753886Y831240D01*
X753960Y830995D01*
X754126Y829310D01*
X753960Y827625D01*
X753469Y826005D01*
X752671Y824512D01*
X751597Y823203D01*
X750288Y822129D01*
X748795Y821331D01*
X747175Y820840D01*
X745490Y820674D01*
X743805Y820840D01*
X742185Y821331D01*
X740692Y822129D01*
X739383Y823203D01*
X738309Y824512D01*
X737511Y826005D01*
X737020Y827625D01*
X736854Y829310D01*
X736869Y829463D01*
X729673Y822267D01*
X728980Y821698D01*
X728190Y821276D01*
X727332Y821016D01*
X726440Y820928D01*
X688340D01*
X687448Y821016D01*
X686590Y821276D01*
X685800Y821698D01*
X685107Y822267D01*
X669288Y838086D01*
X668583Y837873D01*
X666750Y837692D01*
X664917Y837873D01*
X663154Y838407D01*
X661529Y839276D01*
X660105Y840445D01*
X658936Y841869D01*
X658067Y843494D01*
X657533Y845257D01*
X657352Y847090D01*
X657533Y848923D01*
X658067Y850686D01*
X658936Y852311D01*
X660105Y853735D01*
X661529Y854904D01*
X663154Y855773D01*
X664917Y856307D01*
X666750Y856488D01*
X668583Y856307D01*
X670346Y855773D01*
X671971Y854904D01*
X673395Y853735D01*
X674564Y852311D01*
X675433Y850686D01*
X675967Y848923D01*
X676148Y847090D01*
X675967Y845257D01*
X675754Y844552D01*
X690234Y830072D01*
X724546D01*
X730403Y835929D01*
X730250Y835914D01*
X728565Y836080D01*
X726945Y836571D01*
X725452Y837369D01*
X724143Y838443D01*
X723069Y839752D01*
X722271Y841245D01*
X721780Y842865D01*
X721614Y844550D01*
X721780Y846235D01*
X722271Y847855D01*
X723069Y849348D01*
X724143Y850657D01*
X725452Y851731D01*
X725678Y851851D01*
Y889000D01*
X725766Y889892D01*
X726026Y890750D01*
X726448Y891540D01*
X727017Y892233D01*
X727964Y893180D01*
Y903986D01*
X745236D01*
Y886714D01*
X734822D01*
Y851851D01*
X735048Y851731D01*
X736357Y850657D01*
X737431Y849348D01*
X738229Y847855D01*
X738720Y846235D01*
X738886Y844550D01*
X738871Y844397D01*
X740918Y846444D01*
Y852489D01*
X740692Y852609D01*
X739383Y853683D01*
X738309Y854992D01*
X737511Y856485D01*
X737020Y858105D01*
X736854Y859790D01*
X737020Y861475D01*
X737511Y863095D01*
X738309Y864588D01*
X739383Y865897D01*
X740692Y866971D01*
X742185Y867769D01*
X743805Y868260D01*
X745490Y868426D01*
X747175Y868260D01*
X748795Y867769D01*
X750288Y866971D01*
X751597Y865897D01*
X752348Y864981D01*
Y890270D01*
X752436Y891162D01*
X752696Y892020D01*
X753118Y892810D01*
X753608Y893407D01*
X753530Y893665D01*
X753364Y895350D01*
X753530Y897035D01*
X754021Y898655D01*
X754819Y900148D01*
X755893Y901457D01*
X757202Y902531D01*
X758695Y903329D01*
X760315Y903820D01*
X762000Y903986D01*
X763685Y903820D01*
X765305Y903329D01*
X766798Y902531D01*
X768107Y901457D01*
X769181Y900148D01*
X769979Y898655D01*
X770470Y897035D01*
X770636Y895350D01*
X770470Y893665D01*
X770396Y893420D01*
X801994Y861822D01*
X830612D01*
X830808Y862189D01*
X831914Y863536D01*
X833261Y864642D01*
X834798Y865463D01*
X836466Y865969D01*
X838200Y866140D01*
X839934Y865969D01*
X841602Y865463D01*
X843139Y864642D01*
X844486Y863536D01*
X845592Y862189D01*
X846413Y860652D01*
X846919Y858984D01*
X847090Y857250D01*
X846919Y855516D01*
X846413Y853848D01*
X845592Y852311D01*
X844486Y850964D01*
X843139Y849858D01*
X841602Y849037D01*
X839934Y848531D01*
X838200Y848360D01*
X836466Y848531D01*
X834798Y849037D01*
X833261Y849858D01*
X831914Y850964D01*
X830808Y852311D01*
X830612Y852678D01*
X803264D01*
X797268Y846683D01*
X797389Y846284D01*
X797560Y844550D01*
X797389Y842816D01*
X796883Y841148D01*
X796062Y839611D01*
X794956Y838264D01*
X793609Y837158D01*
X792072Y836337D01*
X790404Y835831D01*
X788670Y835660D01*
X786936Y835831D01*
X785268Y836337D01*
X783731Y837158D01*
X782384Y838264D01*
X781278Y839611D01*
X780457Y841148D01*
X779951Y842816D01*
X779780Y844550D01*
X779951Y846284D01*
X780457Y847952D01*
X781278Y849489D01*
X782384Y850836D01*
X783731Y851942D01*
X785268Y852763D01*
X786936Y853269D01*
X788670Y853440D01*
X790404Y853269D01*
X790803Y853148D01*
X794269Y856615D01*
X763930Y886954D01*
X763685Y886880D01*
X762000Y886714D01*
X761492Y886764D01*
Y853440D01*
X777240D01*
Y835660D01*
X776478D01*
Y833947D01*
X788227Y822198D01*
X830072D01*
Y822960D01*
X829310D01*
Y840740D01*
X847090D01*
Y822960D01*
X846328D01*
Y822198D01*
X902462D01*
Y902143D01*
X846423Y958183D01*
X790383Y1014222D01*
X744728D01*
Y999763D01*
X745070Y998635D01*
X745236Y996950D01*
X745070Y995265D01*
X744579Y993645D01*
X743781Y992152D01*
X742707Y990843D01*
X741398Y989769D01*
X739905Y988971D01*
X738285Y988480D01*
X736600Y988314D01*
X734915Y988480D01*
X733295Y988971D01*
X731802Y989769D01*
X730493Y990843D01*
X729419Y992152D01*
X728621Y993645D01*
X728130Y995265D01*
X727964Y996950D01*
X728130Y998635D01*
X728472Y999763D01*
Y1014222D01*
X526332D01*
X526447Y1014127D01*
X527458Y1012896D01*
X528209Y1011490D01*
X528672Y1009966D01*
X528828Y1008380D01*
Y992378D01*
X574288D01*
X574448Y992463D01*
X576116Y992969D01*
X577850Y993140D01*
X579584Y992969D01*
X581252Y992463D01*
X582789Y991642D01*
X584136Y990536D01*
X585242Y989189D01*
X586063Y987652D01*
X586569Y985984D01*
X586740Y984250D01*
X586569Y982516D01*
X586063Y980848D01*
X585242Y979311D01*
X584136Y977964D01*
X582789Y976858D01*
X581252Y976037D01*
X579584Y975531D01*
X577850Y975360D01*
X576116Y975531D01*
X574448Y976037D01*
X574288Y976122D01*
X528828D01*
Y948247D01*
X586159Y890916D01*
X586332Y890863D01*
X587869Y890042D01*
X589216Y888936D01*
X590322Y887589D01*
X591143Y886052D01*
X591649Y884384D01*
X591820Y882650D01*
X591649Y880916D01*
X591143Y879248D01*
X590322Y877711D01*
X589216Y876364D01*
X587869Y875258D01*
X586332Y874437D01*
X584664Y873931D01*
X582930Y873760D01*
X581196Y873931D01*
X579528Y874437D01*
X577991Y875258D01*
X576644Y876364D01*
X575538Y877711D01*
X574717Y879248D01*
X574664Y879421D01*
X514953Y939133D01*
X513942Y940364D01*
X513191Y941770D01*
X512728Y943294D01*
X512572Y944880D01*
Y984250D01*
Y1000252D01*
X470408D01*
Y903797D01*
X494697Y879507D01*
X495708Y878276D01*
X496459Y876870D01*
X496922Y875346D01*
X497078Y873760D01*
Y840486D01*
X497586D01*
Y823214D01*
X480314D01*
Y840486D01*
X480822D01*
Y870393D01*
X458913Y892302D01*
X351347D01*
X338328Y879283D01*
Y872047D01*
X351347Y859028D01*
X366206D01*
X367244Y859583D01*
X369007Y860117D01*
X370840Y860298D01*
X372673Y860117D01*
X374436Y859583D01*
X375474Y859028D01*
X381000D01*
X382586Y858872D01*
X384110Y858409D01*
X385516Y857658D01*
X386747Y856647D01*
X424847Y818547D01*
X425858Y817316D01*
X426609Y815910D01*
X427072Y814386D01*
X427228Y812800D01*
Y768034D01*
X427548Y767645D01*
X428487Y765888D01*
X429065Y763982D01*
X429114Y763481D01*
X454217Y738378D01*
X480314D01*
Y738886D01*
X497586D01*
Y721614D01*
X481838D01*
Y713486D01*
X497586D01*
Y709422D01*
X499756D01*
X507238Y716904D01*
Y743596D01*
X499756Y751078D01*
X497586D01*
Y747014D01*
X480314D01*
Y751078D01*
X477520D01*
X476628Y751166D01*
X475770Y751426D01*
X474980Y751848D01*
X474287Y752417D01*
X443890Y782814D01*
X443645Y782740D01*
X441960Y782574D01*
X440275Y782740D01*
X438655Y783231D01*
X437162Y784029D01*
X435853Y785103D01*
X434779Y786412D01*
X433981Y787905D01*
X433490Y789525D01*
X433324Y791210D01*
X433490Y792895D01*
X433981Y794515D01*
X434779Y796008D01*
X435853Y797317D01*
X437162Y798391D01*
X438655Y799189D01*
X440275Y799680D01*
X441960Y799846D01*
X443645Y799680D01*
X445265Y799189D01*
X446758Y798391D01*
X448067Y797317D01*
X449141Y796008D01*
X449939Y794515D01*
X450430Y792895D01*
X450596Y791210D01*
X450430Y789525D01*
X450356Y789280D01*
X479414Y760222D01*
X480314D01*
Y764286D01*
X497586D01*
Y760222D01*
X501650D01*
X502542Y760134D01*
X503400Y759874D01*
X504190Y759452D01*
X504883Y758883D01*
X515043Y748723D01*
X515612Y748030D01*
X516034Y747240D01*
X516294Y746382D01*
X516382Y745490D01*
Y715010D01*
X516294Y714118D01*
X516034Y713260D01*
X515612Y712470D01*
X515043Y711777D01*
X504883Y701617D01*
X504190Y701048D01*
X503400Y700626D01*
X502542Y700366D01*
X501650Y700278D01*
X497586D01*
Y696214D01*
X483681D01*
X491809Y688086D01*
X497586D01*
Y670814D01*
X480314D01*
Y676591D01*
X467963Y688943D01*
X466952Y690174D01*
X466201Y691580D01*
X465738Y693104D01*
X465582Y694690D01*
Y722122D01*
X450850D01*
X449264Y722278D01*
X447740Y722741D01*
X446334Y723492D01*
X445103Y724503D01*
X427763Y741842D01*
X428487Y740488D01*
X429065Y738582D01*
X429260Y736600D01*
X429065Y734618D01*
X428712Y733454D01*
X441383Y720783D01*
X441952Y720090D01*
X442374Y719300D01*
X442634Y718442D01*
X442722Y717550D01*
Y658622D01*
X480314D01*
Y662686D01*
X497586D01*
Y645414D01*
X480314D01*
Y649478D01*
X440044D01*
X414796Y624230D01*
X414870Y623985D01*
X415036Y622300D01*
X414870Y620615D01*
X414379Y618995D01*
X413581Y617502D01*
X412507Y616193D01*
X411198Y615119D01*
X410972Y614999D01*
Y605536D01*
X415036D01*
Y588264D01*
X399150D01*
X380492Y569606D01*
Y527674D01*
X390514Y517652D01*
X403352D01*
Y498348D01*
X384048D01*
Y511186D01*
X372687Y522547D01*
X372118Y523240D01*
X371696Y524030D01*
X371436Y524888D01*
X371348Y525780D01*
Y571500D01*
X371436Y572392D01*
X371696Y573250D01*
X372118Y574040D01*
X372687Y574733D01*
X397764Y599810D01*
Y605536D01*
X401828D01*
Y614999D01*
X401602Y615119D01*
X400293Y616193D01*
X399219Y617502D01*
X398421Y618995D01*
X397930Y620615D01*
X397764Y622300D01*
X397930Y623985D01*
X398421Y625605D01*
X399219Y627098D01*
X400293Y628407D01*
X401602Y629481D01*
X403095Y630279D01*
X404715Y630770D01*
X406400Y630936D01*
X408085Y630770D01*
X408330Y630696D01*
X433578Y655944D01*
Y715656D01*
X422246Y726988D01*
X421082Y726635D01*
X419100Y726440D01*
X417118Y726635D01*
X415212Y727213D01*
X413455Y728152D01*
X411916Y729416D01*
X410652Y730955D01*
X409713Y732712D01*
X409135Y734618D01*
X408940Y736600D01*
X409135Y738582D01*
X409713Y740488D01*
X410652Y742245D01*
X411916Y743784D01*
X413455Y745048D01*
X415212Y745987D01*
X417118Y746565D01*
X419100Y746760D01*
X421082Y746565D01*
X422988Y745987D01*
X424342Y745263D01*
X417619Y751986D01*
X417118Y752035D01*
X415212Y752613D01*
X413455Y753552D01*
X411916Y754816D01*
X410652Y756355D01*
X409713Y758112D01*
X409135Y760018D01*
X408940Y762000D01*
X409135Y763982D01*
X409713Y765888D01*
X410652Y767645D01*
X410972Y768034D01*
Y809433D01*
X377633Y842772D01*
X375474D01*
X374436Y842217D01*
X372673Y841683D01*
X370840Y841502D01*
X369007Y841683D01*
X367244Y842217D01*
X366206Y842772D01*
X347980D01*
X346394Y842928D01*
X344870Y843391D01*
X343464Y844142D01*
X342233Y845153D01*
X324453Y862933D01*
X323442Y864164D01*
X322691Y865570D01*
X322228Y867094D01*
X322072Y868680D01*
Y882650D01*
X322228Y884236D01*
X322691Y885760D01*
X323442Y887166D01*
X324453Y888397D01*
X342233Y906177D01*
X343464Y907188D01*
X344870Y907939D01*
X346394Y908402D01*
X347980Y908558D01*
X454152D01*
Y1000252D01*
X446278D01*
Y980713D01*
X446620Y979585D01*
X446786Y977900D01*
X446620Y976215D01*
X446129Y974595D01*
X445331Y973102D01*
X444257Y971793D01*
X442948Y970719D01*
X441455Y969921D01*
X439835Y969430D01*
X438150Y969264D01*
X436465Y969430D01*
X434845Y969921D01*
X433352Y970719D01*
X432043Y971793D01*
X430969Y973102D01*
X430171Y974595D01*
X429680Y976215D01*
X429514Y977900D01*
X429680Y979585D01*
X430022Y980713D01*
Y1000252D01*
X389128D01*
Y986536D01*
X389636D01*
Y969264D01*
X372364D01*
Y986536D01*
X372872D01*
Y1000252D01*
X365317D01*
X325628Y960563D01*
Y955313D01*
X325970Y954185D01*
X326136Y952500D01*
X325970Y950815D01*
X325628Y949687D01*
Y929913D01*
X325970Y928785D01*
X326136Y927100D01*
X325970Y925415D01*
X325479Y923795D01*
X324681Y922302D01*
X323607Y920993D01*
X322298Y919919D01*
X320805Y919121D01*
X320313Y918972D01*
X324496D01*
X351028Y945504D01*
Y970599D01*
X350802Y970719D01*
X349493Y971793D01*
X348419Y973102D01*
X347621Y974595D01*
X347130Y976215D01*
X346964Y977900D01*
X347130Y979585D01*
X347621Y981205D01*
X348419Y982698D01*
X349493Y984007D01*
X350802Y985081D01*
X352295Y985879D01*
X353915Y986370D01*
X355600Y986536D01*
X357285Y986370D01*
X358905Y985879D01*
X360398Y985081D01*
X361707Y984007D01*
X362781Y982698D01*
X363579Y981205D01*
X364070Y979585D01*
X364236Y977900D01*
X364070Y976215D01*
X363579Y974595D01*
X362781Y973102D01*
X361707Y971793D01*
X360398Y970719D01*
X360172Y970599D01*
Y943610D01*
X360084Y942718D01*
X359824Y941860D01*
X359402Y941070D01*
X358833Y940377D01*
X329623Y911167D01*
X328930Y910598D01*
X328140Y910176D01*
X327282Y909916D01*
X326390Y909828D01*
X326136D01*
Y906272D01*
X328306D01*
X397764Y975730D01*
Y986536D01*
X415036D01*
Y969264D01*
X404230D01*
X333433Y898467D01*
X332740Y897898D01*
X331950Y897476D01*
X331092Y897216D01*
X330200Y897128D01*
X326136D01*
Y893064D01*
X309372D01*
Y821248D01*
X310162Y820825D01*
X311625Y819625D01*
X312825Y818162D01*
X313717Y816494D01*
X314267Y814683D01*
X314452Y812800D01*
X314267Y810917D01*
X313717Y809106D01*
X312825Y807438D01*
X311625Y805975D01*
X310162Y804775D01*
X309372Y804352D01*
Y794374D01*
X330893Y772853D01*
X331462Y772160D01*
X331884Y771370D01*
X332144Y770512D01*
X332232Y769620D01*
Y753734D01*
X339754Y746212D01*
X340918Y746565D01*
X342900Y746760D01*
X344882Y746565D01*
X346788Y745987D01*
X348545Y745048D01*
X350084Y743784D01*
X351348Y742245D01*
X352287Y740488D01*
X352298Y740451D01*
Y758149D01*
X352287Y758112D01*
X351348Y756355D01*
X350084Y754816D01*
X348545Y753552D01*
X346788Y752613D01*
X344882Y752035D01*
X342900Y751840D01*
X340918Y752035D01*
X339012Y752613D01*
X337255Y753552D01*
X335716Y754816D01*
X334452Y756355D01*
X333513Y758112D01*
X332935Y760018D01*
X332740Y762000D01*
X332935Y763982D01*
X333513Y765888D01*
X334452Y767645D01*
X335716Y769184D01*
X337255Y770448D01*
X339012Y771387D01*
X340918Y771965D01*
X342900Y772160D01*
X344882Y771965D01*
X346788Y771387D01*
X348545Y770448D01*
X350084Y769184D01*
X351348Y767645D01*
X352287Y765888D01*
X352298Y765851D01*
Y788670D01*
X352386Y789562D01*
X352646Y790420D01*
X353068Y791210D01*
X353637Y791903D01*
X371348Y809614D01*
Y822452D01*
X390652D01*
Y803148D01*
X377814D01*
X361442Y786776D01*
Y730874D01*
X376544Y715772D01*
X410079D01*
X410652Y716845D01*
X411916Y718384D01*
X413455Y719648D01*
X415212Y720587D01*
X417118Y721165D01*
X419100Y721360D01*
X421082Y721165D01*
X422988Y720587D01*
X424745Y719648D01*
X426284Y718384D01*
X427548Y716845D01*
X428487Y715088D01*
X429065Y713182D01*
X429260Y711200D01*
X429065Y709218D01*
X428487Y707312D01*
X427548Y705555D01*
X426284Y704016D01*
X424745Y702752D01*
X422988Y701813D01*
X421082Y701235D01*
X419100Y701040D01*
X417118Y701235D01*
X415212Y701813D01*
X413455Y702752D01*
X411916Y704016D01*
X410972Y705166D01*
Y695960D01*
X429260D01*
Y675640D01*
X410972D01*
Y655001D01*
X411198Y654881D01*
X412507Y653807D01*
X413581Y652498D01*
X414379Y651005D01*
X414870Y649385D01*
X415036Y647700D01*
X414870Y646015D01*
X414379Y644395D01*
X413581Y642902D01*
X412507Y641593D01*
X411198Y640519D01*
X409705Y639721D01*
X408085Y639230D01*
X406400Y639064D01*
X404715Y639230D01*
X403095Y639721D01*
X401602Y640519D01*
X400293Y641593D01*
X399219Y642902D01*
X398421Y644395D01*
X397930Y646015D01*
X397764Y647700D01*
X397930Y649385D01*
X398421Y651005D01*
X399219Y652498D01*
X400293Y653807D01*
X401602Y654881D01*
X401828Y655001D01*
Y706628D01*
X374650D01*
X373758Y706716D01*
X372900Y706976D01*
X372110Y707398D01*
X371417Y707967D01*
X353637Y725747D01*
X353068Y726440D01*
X352646Y727230D01*
X352386Y728088D01*
X352298Y728980D01*
Y732749D01*
X352287Y732712D01*
X351348Y730955D01*
X350084Y729416D01*
X348545Y728152D01*
X346788Y727213D01*
X344882Y726635D01*
X342900Y726440D01*
X340918Y726635D01*
X339012Y727213D01*
X337255Y728152D01*
X335716Y729416D01*
X334452Y730955D01*
X333513Y732712D01*
X332935Y734618D01*
X332740Y736600D01*
X332935Y738582D01*
X333288Y739746D01*
X324427Y748607D01*
X323858Y749300D01*
X323436Y750090D01*
X323176Y750948D01*
X323088Y751840D01*
Y767726D01*
X301567Y789247D01*
X300998Y789940D01*
X300576Y790730D01*
X300316Y791588D01*
X300228Y792480D01*
Y804352D01*
X299438Y804775D01*
X297975Y805975D01*
X296775Y807438D01*
X295883Y809106D01*
X295333Y810917D01*
X295148Y812800D01*
X295333Y814683D01*
X295883Y816494D01*
X296775Y818162D01*
X297975Y819625D01*
X299438Y820825D01*
X300228Y821248D01*
Y909320D01*
X300316Y910212D01*
X300576Y911070D01*
X300998Y911860D01*
X301567Y912553D01*
X306647Y917633D01*
X307340Y918202D01*
X308130Y918624D01*
X308988Y918884D01*
X309880Y918972D01*
X314687D01*
X314195Y919121D01*
X312702Y919919D01*
X311393Y920993D01*
X310319Y922302D01*
X309521Y923795D01*
X309030Y925415D01*
X308864Y927100D01*
X309030Y928785D01*
X309372Y929913D01*
Y949687D01*
X309030Y950815D01*
X308864Y952500D01*
X309030Y954185D01*
X309372Y955313D01*
Y963357D01*
X301625Y955610D01*
X293878Y947863D01*
Y733617D01*
X307659Y719836D01*
X319786D01*
Y719328D01*
X336866D01*
X337255Y719648D01*
X339012Y720587D01*
X340918Y721165D01*
X342900Y721360D01*
X344882Y721165D01*
X346788Y720587D01*
X348545Y719648D01*
X350084Y718384D01*
X351348Y716845D01*
X352287Y715088D01*
X352865Y713182D01*
X353060Y711200D01*
X352865Y709218D01*
X352287Y707312D01*
X351348Y705555D01*
X350084Y704016D01*
X348545Y702752D01*
X346788Y701813D01*
X344882Y701235D01*
X342900Y701040D01*
X340918Y701235D01*
X339012Y701813D01*
X337255Y702752D01*
X336866Y703072D01*
X319786D01*
Y702564D01*
X302514D01*
Y703441D01*
X301690Y703691D01*
X300284Y704442D01*
X299053Y705453D01*
X280003Y724503D01*
X278992Y725734D01*
X278241Y727140D01*
X277778Y728664D01*
X277622Y730250D01*
Y945134D01*
X265431Y933451D01*
Y860173D01*
X266700Y860298D01*
X268533Y860117D01*
X270296Y859583D01*
X271921Y858714D01*
X273345Y857545D01*
X274514Y856121D01*
X275383Y854496D01*
X275917Y852733D01*
X276098Y850900D01*
X275917Y849067D01*
X275383Y847304D01*
X274828Y846266D01*
Y579628D01*
X296164D01*
Y580136D01*
X313436D01*
Y562864D01*
X296164D01*
Y563372D01*
X274828D01*
Y554228D01*
X314687D01*
X315815Y554570D01*
X317500Y554736D01*
X319185Y554570D01*
X320805Y554079D01*
X322298Y553281D01*
X323607Y552207D01*
X324681Y550898D01*
X325479Y549405D01*
X325970Y547785D01*
X326136Y546100D01*
X325970Y544415D01*
X325479Y542795D01*
X324681Y541302D01*
X323607Y539993D01*
X322298Y538919D01*
X320805Y538121D01*
X319185Y537630D01*
X317500Y537464D01*
X315815Y537630D01*
X314687Y537972D01*
X274828D01*
Y489458D01*
X404303D01*
X431133Y516287D01*
X432364Y517298D01*
X433770Y518049D01*
X435294Y518512D01*
X436880Y518668D01*
X469627D01*
X470755Y519010D01*
X472440Y519176D01*
X474125Y519010D01*
X475745Y518519D01*
X477238Y517721D01*
X478547Y516647D01*
X479621Y515338D01*
X480419Y513845D01*
X480910Y512225D01*
X481076Y510540D01*
X480910Y508855D01*
X480419Y507235D01*
X479621Y505742D01*
X478547Y504433D01*
X477238Y503359D01*
X475745Y502561D01*
X474125Y502070D01*
X472440Y501904D01*
X470755Y502070D01*
X469627Y502412D01*
X462082D01*
X463307Y501407D01*
X464381Y500098D01*
X465179Y498605D01*
X465670Y496985D01*
X465836Y495300D01*
X465670Y493615D01*
X465179Y491995D01*
X464381Y490502D01*
X463307Y489193D01*
X461998Y488119D01*
X461772Y487999D01*
Y476250D01*
X461684Y475358D01*
X461424Y474500D01*
X461002Y473710D01*
X460433Y473017D01*
X434086Y446670D01*
Y435864D01*
X416814D01*
Y453136D01*
X427620D01*
X452628Y478144D01*
Y487999D01*
X452402Y488119D01*
X451093Y489193D01*
X450019Y490502D01*
X449221Y491995D01*
X448730Y493615D01*
X448564Y495300D01*
X448730Y496985D01*
X449221Y498605D01*
X450019Y500098D01*
X451093Y501407D01*
X452318Y502412D01*
X440247D01*
X413417Y475583D01*
X412186Y474572D01*
X410780Y473821D01*
X409256Y473358D01*
X407670Y473202D01*
X274828D01*
Y446278D01*
X307588D01*
X307748Y446363D01*
X309416Y446869D01*
X311150Y447040D01*
X312884Y446869D01*
X314552Y446363D01*
X316089Y445542D01*
X317436Y444436D01*
X318542Y443089D01*
X319363Y441552D01*
X319869Y439884D01*
X320040Y438150D01*
X319869Y436416D01*
X319363Y434748D01*
X318542Y433211D01*
X317436Y431864D01*
X316089Y430758D01*
X314552Y429937D01*
X312884Y429431D01*
X311150Y429260D01*
X309416Y429431D01*
X307748Y429937D01*
X307588Y430022D01*
X274828D01*
Y409767D01*
X318699Y365896D01*
X319532Y365814D01*
X321485Y365221D01*
X323286Y364259D01*
X324864Y362964D01*
X326159Y361386D01*
X327121Y359585D01*
X327714Y357632D01*
X327914Y355600D01*
X327714Y353568D01*
X327121Y351615D01*
X326159Y349814D01*
X324864Y348236D01*
X323286Y346941D01*
X321485Y345979D01*
X319532Y345386D01*
X317500Y345186D01*
X315468Y345386D01*
X313515Y345979D01*
X311714Y346941D01*
X310136Y348236D01*
X308841Y349814D01*
X307879Y351615D01*
X307286Y353568D01*
X307204Y354401D01*
X265431Y396174D01*
Y368301D01*
X354331Y279401D01*
X458484D01*
X458470Y279408D01*
X457777Y279977D01*
X422217Y315537D01*
X421648Y316230D01*
X421226Y317020D01*
X420966Y317878D01*
X420878Y318770D01*
Y411799D01*
X420652Y411919D01*
X419343Y412993D01*
X418269Y414302D01*
X417471Y415795D01*
X416980Y417415D01*
X416814Y419100D01*
X416980Y420785D01*
X417471Y422405D01*
X418269Y423898D01*
X419343Y425207D01*
X420652Y426281D01*
X422145Y427079D01*
X423765Y427570D01*
X425450Y427736D01*
X427135Y427570D01*
X428755Y427079D01*
X430248Y426281D01*
X431557Y425207D01*
X432631Y423898D01*
X433429Y422405D01*
X433920Y420785D01*
X434086Y419100D01*
X433920Y417415D01*
X433429Y415795D01*
X432631Y414302D01*
X431557Y412993D01*
X430248Y411919D01*
X430022Y411799D01*
Y373470D01*
X430125Y373662D01*
X431325Y375125D01*
X432788Y376325D01*
X434456Y377217D01*
X436267Y377767D01*
X438150Y377952D01*
X440033Y377767D01*
X440891Y377506D01*
X467868Y404484D01*
Y472759D01*
X467642Y472879D01*
X466333Y473953D01*
X465259Y475262D01*
X464461Y476755D01*
X463970Y478375D01*
X463804Y480060D01*
X463970Y481745D01*
X464461Y483365D01*
X465259Y484858D01*
X466333Y486167D01*
X467642Y487241D01*
X469135Y488039D01*
X470755Y488530D01*
X472440Y488696D01*
X474125Y488530D01*
X475745Y488039D01*
X477238Y487241D01*
X478547Y486167D01*
X479621Y484858D01*
X479741Y484632D01*
X484378D01*
Y543814D01*
X480314D01*
Y561086D01*
X484378D01*
Y569214D01*
X480314D01*
Y573278D01*
X468301D01*
X468210Y572355D01*
X467719Y570735D01*
X466921Y569242D01*
X465847Y567933D01*
X464538Y566859D01*
X463045Y566061D01*
X461425Y565570D01*
X459740Y565404D01*
X459587Y565419D01*
X462973Y562033D01*
X463542Y561340D01*
X463964Y560550D01*
X464224Y559692D01*
X464312Y558800D01*
Y550861D01*
X464538Y550741D01*
X465847Y549667D01*
X466921Y548358D01*
X467719Y546865D01*
X468210Y545245D01*
X468376Y543560D01*
X468210Y541875D01*
X467719Y540255D01*
X466921Y538762D01*
X465847Y537453D01*
X464538Y536379D01*
X463045Y535581D01*
X461425Y535090D01*
X459740Y534924D01*
X458055Y535090D01*
X456435Y535581D01*
X454942Y536379D01*
X453633Y537453D01*
X452559Y538762D01*
X451761Y540255D01*
X451270Y541875D01*
X451104Y543560D01*
X451270Y545245D01*
X451761Y546865D01*
X452559Y548358D01*
X453633Y549667D01*
X454942Y550741D01*
X455168Y550861D01*
Y556906D01*
X453121Y558953D01*
X453136Y558800D01*
X452970Y557115D01*
X452479Y555495D01*
X451681Y554002D01*
X450607Y552693D01*
X449298Y551619D01*
X447805Y550821D01*
X446185Y550330D01*
X444500Y550164D01*
X442815Y550330D01*
X441195Y550821D01*
X439702Y551619D01*
X438393Y552693D01*
X437319Y554002D01*
X437199Y554228D01*
X419100D01*
X418208Y554316D01*
X417350Y554576D01*
X416560Y554998D01*
X415867Y555567D01*
X408330Y563104D01*
X408085Y563030D01*
X406400Y562864D01*
X404715Y563030D01*
X403095Y563521D01*
X401602Y564319D01*
X400293Y565393D01*
X399219Y566702D01*
X398421Y568195D01*
X397930Y569815D01*
X397764Y571500D01*
X397930Y573185D01*
X398421Y574805D01*
X399219Y576298D01*
X400293Y577607D01*
X401602Y578681D01*
X403095Y579479D01*
X404715Y579970D01*
X406400Y580136D01*
X408085Y579970D01*
X409705Y579479D01*
X411198Y578681D01*
X412507Y577607D01*
X413581Y576298D01*
X414379Y574805D01*
X414870Y573185D01*
X415036Y571500D01*
X414870Y569815D01*
X414796Y569570D01*
X420994Y563372D01*
X437199D01*
X437319Y563598D01*
X438393Y564907D01*
X439702Y565981D01*
X441195Y566779D01*
X442815Y567270D01*
X444500Y567436D01*
X444653Y567421D01*
X443807Y568267D01*
X443238Y568960D01*
X442816Y569750D01*
X442556Y570608D01*
X442468Y571500D01*
Y591820D01*
X442556Y592712D01*
X442816Y593570D01*
X443238Y594360D01*
X443807Y595053D01*
X467937Y619183D01*
X468630Y619752D01*
X469420Y620174D01*
X470278Y620434D01*
X471170Y620522D01*
X486137D01*
X485645Y620671D01*
X484152Y621469D01*
X482843Y622543D01*
X481769Y623852D01*
X481649Y624078D01*
X466508D01*
X465859Y622864D01*
X464564Y621286D01*
X462986Y619991D01*
X461185Y619029D01*
X459232Y618436D01*
X457200Y618236D01*
X455168Y618436D01*
X453215Y619029D01*
X451414Y619991D01*
X449836Y621286D01*
X448541Y622864D01*
X447579Y624665D01*
X446986Y626618D01*
X446786Y628650D01*
X446986Y630682D01*
X447579Y632635D01*
X448541Y634436D01*
X449836Y636014D01*
X451414Y637309D01*
X453215Y638271D01*
X455168Y638864D01*
X457200Y639064D01*
X459232Y638864D01*
X461185Y638271D01*
X462986Y637309D01*
X464564Y636014D01*
X465859Y634436D01*
X466508Y633222D01*
X481649D01*
X481769Y633448D01*
X482843Y634757D01*
X484152Y635831D01*
X485645Y636629D01*
X487265Y637120D01*
X488950Y637286D01*
X490635Y637120D01*
X492255Y636629D01*
X493748Y635831D01*
X495057Y634757D01*
X496131Y633448D01*
X496929Y631955D01*
X497420Y630335D01*
X497586Y628650D01*
X497420Y626965D01*
X496929Y625345D01*
X496131Y623852D01*
X495057Y622543D01*
X493748Y621469D01*
X492255Y620671D01*
X491763Y620522D01*
X504836D01*
X566997Y682683D01*
X567690Y683252D01*
X568480Y683674D01*
X569338Y683934D01*
X570230Y684022D01*
X583249D01*
X583369Y684248D01*
X584443Y685557D01*
X585752Y686631D01*
X587245Y687429D01*
X588865Y687920D01*
X590550Y688086D01*
X592235Y687920D01*
X593855Y687429D01*
X595348Y686631D01*
X596657Y685557D01*
X597731Y684248D01*
X597851Y684022D01*
X615950D01*
X616842Y683934D01*
X617700Y683674D01*
X618490Y683252D01*
X619183Y682683D01*
X630544Y671322D01*
X632852D01*
X615326Y688848D01*
X580390D01*
X579498Y688936D01*
X578640Y689196D01*
X577850Y689618D01*
X577157Y690187D01*
X564457Y702887D01*
X563888Y703580D01*
X563466Y704370D01*
X563206Y705228D01*
X563118Y706120D01*
Y724546D01*
X511186Y776478D01*
X497586D01*
Y772414D01*
X480314D01*
Y789686D01*
X497586D01*
Y785622D01*
X513080D01*
X513972Y785534D01*
X514830Y785274D01*
X515620Y784852D01*
X516313Y784283D01*
X570923Y729673D01*
X571492Y728980D01*
X571914Y728190D01*
X572174Y727332D01*
X572262Y726440D01*
Y708014D01*
X582284Y697992D01*
X585359D01*
X584443Y698743D01*
X583369Y700052D01*
X582571Y701545D01*
X582080Y703165D01*
X581914Y704850D01*
X582080Y706535D01*
X582571Y708155D01*
X583369Y709648D01*
X584443Y710957D01*
X585752Y712031D01*
X587245Y712829D01*
X588865Y713320D01*
X590550Y713486D01*
X592235Y713320D01*
X593855Y712829D01*
X595348Y712031D01*
X596657Y710957D01*
X597731Y709648D01*
X597745Y709621D01*
X636847Y748723D01*
X637540Y749292D01*
X638330Y749714D01*
X639188Y749974D01*
X640080Y750062D01*
X835660D01*
X836552Y749974D01*
X837410Y749714D01*
X838200Y749292D01*
X838893Y748723D01*
X855080Y732536D01*
X865886D01*
Y715264D01*
X861822D01*
Y679450D01*
X861734Y678558D01*
X861474Y677700D01*
X861052Y676910D01*
X860483Y676217D01*
X833896Y649630D01*
X833970Y649385D01*
X834136Y647700D01*
X833970Y646015D01*
X833479Y644395D01*
X832681Y642902D01*
X831607Y641593D01*
X830298Y640519D01*
X830072Y640399D01*
Y629601D01*
X830298Y629481D01*
X831607Y628407D01*
X832681Y627098D01*
X833479Y625605D01*
X833970Y623985D01*
X834136Y622300D01*
X833970Y620615D01*
X833479Y618995D01*
X832681Y617502D01*
X831607Y616193D01*
X830298Y615119D01*
X828805Y614321D01*
X827185Y613830D01*
X825500Y613664D01*
X823815Y613830D01*
X823570Y613904D01*
X804672Y595006D01*
Y567821D01*
X805745Y567248D01*
X807284Y565984D01*
X808228Y564834D01*
Y584200D01*
X808316Y585092D01*
X808576Y585950D01*
X808998Y586740D01*
X809567Y587433D01*
X816864Y594730D01*
Y605536D01*
X827670D01*
X870458Y648324D01*
Y766456D01*
X849006Y787908D01*
X779780D01*
X778888Y787996D01*
X778030Y788256D01*
X777240Y788678D01*
X776547Y789247D01*
X758836Y806958D01*
X681990D01*
X681098Y807046D01*
X680240Y807306D01*
X679450Y807728D01*
X678757Y808297D01*
X628040Y859014D01*
X627795Y858940D01*
X626110Y858774D01*
X624425Y858940D01*
X622805Y859431D01*
X621312Y860229D01*
X620003Y861303D01*
X619252Y862219D01*
Y855980D01*
X619164Y855088D01*
X618904Y854230D01*
X618482Y853440D01*
X617913Y852747D01*
X598946Y833780D01*
X599020Y833535D01*
X599186Y831850D01*
X599020Y830165D01*
X598529Y828545D01*
X597731Y827052D01*
X596657Y825743D01*
X595348Y824669D01*
X593855Y823871D01*
X592235Y823380D01*
X590550Y823214D01*
X588865Y823380D01*
X587245Y823871D01*
X585752Y824669D01*
X584443Y825743D01*
X583369Y827052D01*
X582571Y828545D01*
X582080Y830165D01*
X581914Y831850D01*
X582080Y833535D01*
X582571Y835155D01*
X583369Y836648D01*
X584443Y837957D01*
X585752Y839031D01*
X587245Y839829D01*
X588865Y840320D01*
X590550Y840486D01*
X592235Y840320D01*
X592480Y840246D01*
X610108Y857874D01*
Y873760D01*
X594360D01*
Y891540D01*
X605674D01*
X615257Y901123D01*
X615950Y901692D01*
X616740Y902114D01*
X617598Y902374D01*
X618490Y902462D01*
X618809D01*
X618929Y902688D01*
X620003Y903997D01*
X621312Y905071D01*
X621538Y905191D01*
Y945388D01*
X586740D01*
X585848Y945476D01*
X584990Y945736D01*
X584200Y946158D01*
X583507Y946727D01*
X580274Y949960D01*
X568960D01*
Y967740D01*
X586740D01*
Y956426D01*
X588634Y954532D01*
X655639D01*
X655759Y954758D01*
X656833Y956067D01*
X658142Y957141D01*
X659635Y957939D01*
X661255Y958430D01*
X662940Y958596D01*
X664625Y958430D01*
X666245Y957939D01*
X667738Y957141D01*
X669047Y956067D01*
X670121Y954758D01*
X670919Y953265D01*
X671410Y951645D01*
X671576Y949960D01*
X671410Y948275D01*
X671336Y948030D01*
X714433Y904933D01*
X715002Y904240D01*
X715137Y903986D01*
X719836D01*
Y886714D01*
X702564D01*
Y903870D01*
X664870Y941564D01*
X664625Y941490D01*
X662940Y941324D01*
X661255Y941490D01*
X659635Y941981D01*
X658142Y942779D01*
X656833Y943853D01*
X655759Y945162D01*
X655639Y945388D01*
X630682D01*
Y905191D01*
X630908Y905071D01*
X632217Y903997D01*
X633291Y902688D01*
X634089Y901195D01*
X634580Y899575D01*
X634746Y897890D01*
X634580Y896205D01*
X634089Y894585D01*
X633291Y893092D01*
X632217Y891783D01*
X630908Y890709D01*
X629415Y889911D01*
X627795Y889420D01*
X626110Y889254D01*
X624425Y889420D01*
X622805Y889911D01*
X621312Y890709D01*
X620003Y891783D01*
X619483Y892417D01*
X612140Y885074D01*
Y881496D01*
X616527Y885883D01*
X617220Y886452D01*
X618010Y886874D01*
X618868Y887134D01*
X619760Y887222D01*
X634049D01*
X634169Y887448D01*
X635243Y888757D01*
X636552Y889831D01*
X638045Y890629D01*
X639665Y891120D01*
X641350Y891286D01*
X643035Y891120D01*
X644655Y890629D01*
X646148Y889831D01*
X647457Y888757D01*
X648531Y887448D01*
X649329Y885955D01*
X649820Y884335D01*
X649986Y882650D01*
X649820Y880965D01*
X649329Y879345D01*
X648531Y877852D01*
X647457Y876543D01*
X646148Y875469D01*
X644655Y874671D01*
X643035Y874180D01*
X641350Y874014D01*
X639665Y874180D01*
X638045Y874671D01*
X636552Y875469D01*
X635243Y876543D01*
X634169Y877852D01*
X634049Y878078D01*
X621654D01*
X620453Y876877D01*
X619252Y875676D01*
Y872601D01*
X620003Y873517D01*
X621312Y874591D01*
X622805Y875389D01*
X624425Y875880D01*
X626110Y876046D01*
X627795Y875880D01*
X629415Y875389D01*
X630908Y874591D01*
X632217Y873517D01*
X633291Y872208D01*
X634089Y870715D01*
X634580Y869095D01*
X634746Y867410D01*
X634580Y865725D01*
X634506Y865480D01*
X683884Y816102D01*
X760730D01*
X761622Y816014D01*
X762480Y815754D01*
X763270Y815332D01*
X763963Y814763D01*
X781674Y797052D01*
X850900D01*
X851792Y796964D01*
X852650Y796704D01*
X853440Y796282D01*
X854133Y795713D01*
X878263Y771583D01*
X878832Y770890D01*
X879254Y770100D01*
X879514Y769242D01*
X879602Y768350D01*
Y646430D01*
X879514Y645538D01*
X879254Y644680D01*
X878832Y643890D01*
X878263Y643197D01*
X834136Y599070D01*
Y588264D01*
X823330D01*
X817372Y582306D01*
Y568960D01*
X835660D01*
Y548640D01*
X830072D01*
Y547994D01*
X885883Y492183D01*
X886452Y491490D01*
X886874Y490700D01*
X887134Y489842D01*
X887222Y488950D01*
Y484886D01*
X891286D01*
Y467614D01*
X887222D01*
Y458470D01*
X887134Y457578D01*
X886874Y456720D01*
X886452Y455930D01*
X885883Y455237D01*
X846513Y415867D01*
X845820Y415298D01*
X845030Y414876D01*
X844172Y414616D01*
X843280Y414528D01*
X715010D01*
X714118Y414616D01*
X713260Y414876D01*
X712470Y415298D01*
X711777Y415867D01*
X683906Y443738D01*
X638491D01*
X638371Y443512D01*
X637297Y442203D01*
X635988Y441129D01*
X634495Y440331D01*
X632875Y439840D01*
X631190Y439674D01*
X629505Y439840D01*
X627885Y440331D01*
X626392Y441129D01*
X625083Y442203D01*
X624009Y443512D01*
X623211Y445005D01*
X622720Y446625D01*
X622554Y448310D01*
X622720Y449995D01*
X623211Y451615D01*
X624009Y453108D01*
X625083Y454417D01*
X626392Y455491D01*
X627885Y456289D01*
X629505Y456780D01*
X631190Y456946D01*
X632875Y456780D01*
X634495Y456289D01*
X635988Y455491D01*
X637297Y454417D01*
X638371Y453108D01*
X638491Y452882D01*
X685800D01*
X686692Y452794D01*
X687550Y452534D01*
X688340Y452112D01*
X689033Y451543D01*
X716904Y423672D01*
X818272D01*
X796867Y445077D01*
X796298Y445770D01*
X795876Y446560D01*
X795616Y447418D01*
X795528Y448310D01*
Y473579D01*
X794455Y474152D01*
X792916Y475416D01*
X791652Y476955D01*
X790713Y478712D01*
X790135Y480618D01*
X789940Y482600D01*
X790135Y484582D01*
X790713Y486488D01*
X791652Y488245D01*
X792916Y489784D01*
X794455Y491048D01*
X796212Y491987D01*
X798118Y492565D01*
X800100Y492760D01*
X802082Y492565D01*
X803988Y491987D01*
X805745Y491048D01*
X807284Y489784D01*
X808548Y488245D01*
X809487Y486488D01*
X810065Y484582D01*
X810260Y482600D01*
X810065Y480618D01*
X809487Y478712D01*
X808548Y476955D01*
X807284Y475416D01*
X805745Y474152D01*
X804672Y473579D01*
Y450204D01*
X824854Y430022D01*
X838846D01*
X844688Y435864D01*
X829564D01*
Y453136D01*
X833628D01*
Y476566D01*
X832684Y475416D01*
X831145Y474152D01*
X829388Y473213D01*
X827482Y472635D01*
X825500Y472440D01*
X823518Y472635D01*
X821612Y473213D01*
X819855Y474152D01*
X818316Y475416D01*
X817052Y476955D01*
X816113Y478712D01*
X815535Y480618D01*
X815340Y482600D01*
X815535Y484582D01*
X816113Y486488D01*
X817052Y488245D01*
X818316Y489784D01*
X819855Y491048D01*
X821612Y491987D01*
X823518Y492565D01*
X825500Y492760D01*
X827482Y492565D01*
X829388Y491987D01*
X831145Y491048D01*
X832684Y489784D01*
X833628Y488634D01*
Y492136D01*
X809567Y516197D01*
X808998Y516890D01*
X808576Y517680D01*
X808316Y518538D01*
X808228Y519430D01*
Y552766D01*
X807284Y551616D01*
X805745Y550352D01*
X803988Y549413D01*
X802082Y548835D01*
X800100Y548640D01*
X798118Y548835D01*
X796212Y549413D01*
X794455Y550352D01*
X792916Y551616D01*
X791652Y553155D01*
X790713Y554912D01*
X790135Y556818D01*
X789940Y558800D01*
X790135Y560782D01*
X790713Y562688D01*
X791652Y564445D01*
X792916Y565984D01*
X794455Y567248D01*
X795528Y567821D01*
Y596900D01*
X795616Y597792D01*
X795876Y598650D01*
X796298Y599440D01*
X796867Y600133D01*
X817104Y620370D01*
X817030Y620615D01*
X816864Y622300D01*
X817030Y623985D01*
X817521Y625605D01*
X818319Y627098D01*
X819393Y628407D01*
X820702Y629481D01*
X820928Y629601D01*
Y640399D01*
X820702Y640519D01*
X819393Y641593D01*
X818319Y642902D01*
X817521Y644395D01*
X817030Y646015D01*
X816864Y647700D01*
X817030Y649385D01*
X817521Y651005D01*
X818319Y652498D01*
X819393Y653807D01*
X820702Y654881D01*
X822195Y655679D01*
X823815Y656170D01*
X825500Y656336D01*
X827185Y656170D01*
X827430Y656096D01*
X852678Y681344D01*
Y715264D01*
X848614D01*
Y726070D01*
X833766Y740918D01*
X779272D01*
Y707521D01*
X780345Y706948D01*
X781884Y705684D01*
X783148Y704145D01*
X784087Y702388D01*
X784665Y700482D01*
X784860Y698500D01*
X784665Y696518D01*
X784087Y694612D01*
X783148Y692855D01*
X781884Y691316D01*
X780345Y690052D01*
X778588Y689113D01*
X776682Y688535D01*
X774700Y688340D01*
X772718Y688535D01*
X770812Y689113D01*
X769055Y690052D01*
X767516Y691316D01*
X766252Y692855D01*
X765313Y694612D01*
X764735Y696518D01*
X764540Y698500D01*
X764735Y700482D01*
X765313Y702388D01*
X766252Y704145D01*
X767516Y705684D01*
X769055Y706948D01*
X770128Y707521D01*
Y740918D01*
X641974D01*
X602673Y701617D01*
X601980Y701048D01*
X601190Y700626D01*
X600332Y700366D01*
X599440Y700278D01*
X597851D01*
X597731Y700052D01*
X596657Y698743D01*
X595741Y697992D01*
X617220D01*
X618112Y697904D01*
X618970Y697644D01*
X619760Y697222D01*
X620453Y696653D01*
X638164Y678942D01*
X710576D01*
X733367Y701733D01*
X734060Y702302D01*
X734850Y702724D01*
X735708Y702984D01*
X736600Y703072D01*
X740279D01*
X740852Y704145D01*
X742116Y705684D01*
X743655Y706948D01*
X745412Y707887D01*
X747318Y708465D01*
X749300Y708660D01*
X751282Y708465D01*
X753188Y707887D01*
X754945Y706948D01*
X756484Y705684D01*
X757748Y704145D01*
X758687Y702388D01*
X759265Y700482D01*
X759460Y698500D01*
X759265Y696518D01*
X758687Y694612D01*
X757748Y692855D01*
X756484Y691316D01*
X754945Y690052D01*
X753188Y689113D01*
X751282Y688535D01*
X749300Y688340D01*
X747318Y688535D01*
X745412Y689113D01*
X743655Y690052D01*
X742116Y691316D01*
X740852Y692855D01*
X740279Y693928D01*
X738494D01*
X715888Y671322D01*
X766456D01*
X790488Y695354D01*
X790135Y696518D01*
X789940Y698500D01*
X790135Y700482D01*
X790713Y702388D01*
X791652Y704145D01*
X792916Y705684D01*
X794455Y706948D01*
X796212Y707887D01*
X798118Y708465D01*
X800100Y708660D01*
X802082Y708465D01*
X803988Y707887D01*
X805745Y706948D01*
X807284Y705684D01*
X808548Y704145D01*
X809487Y702388D01*
X810065Y700482D01*
X810260Y698500D01*
X810065Y696518D01*
X809487Y694612D01*
X808548Y692855D01*
X807284Y691316D01*
X805745Y690052D01*
X803988Y689113D01*
X802082Y688535D01*
X800100Y688340D01*
X798118Y688535D01*
X796954Y688888D01*
X771583Y663517D01*
X770890Y662948D01*
X770100Y662526D01*
X769242Y662266D01*
X768350Y662178D01*
X628650D01*
X627758Y662266D01*
X626900Y662526D01*
X626110Y662948D01*
X625417Y663517D01*
X614056Y674878D01*
X597851D01*
X597731Y674652D01*
X596657Y673343D01*
X595348Y672269D01*
X593855Y671471D01*
X592235Y670980D01*
X590550Y670814D01*
X588865Y670980D01*
X587245Y671471D01*
X585752Y672269D01*
X584443Y673343D01*
X583369Y674652D01*
X583249Y674878D01*
X572124D01*
X509963Y612717D01*
X509270Y612148D01*
X508480Y611726D01*
X507622Y611466D01*
X506730Y611378D01*
X504463D01*
X504955Y611229D01*
X506448Y610431D01*
X507757Y609357D01*
X508831Y608048D01*
X509629Y606555D01*
X510120Y604935D01*
X510286Y603250D01*
X510120Y601565D01*
X510046Y601320D01*
X528944Y582422D01*
X583249D01*
X583369Y582648D01*
X584443Y583957D01*
X585752Y585031D01*
X587245Y585829D01*
X588865Y586320D01*
X590550Y586486D01*
X592235Y586320D01*
X593855Y585829D01*
X595348Y585031D01*
X596657Y583957D01*
X597731Y582648D01*
X598529Y581155D01*
X599020Y579535D01*
X599186Y577850D01*
X599020Y576165D01*
X598529Y574545D01*
X597731Y573052D01*
X596657Y571743D01*
X595348Y570669D01*
X593855Y569871D01*
X592235Y569380D01*
X590550Y569214D01*
X588865Y569380D01*
X587245Y569871D01*
X585752Y570669D01*
X584443Y571743D01*
X583369Y573052D01*
X583249Y573278D01*
X527050D01*
X526158Y573366D01*
X525300Y573626D01*
X524510Y574048D01*
X523817Y574617D01*
X503580Y594854D01*
X503335Y594780D01*
X501650Y594614D01*
X499965Y594780D01*
X498345Y595271D01*
X496852Y596069D01*
X495543Y597143D01*
X494469Y598452D01*
X493671Y599945D01*
X493180Y601565D01*
X493014Y603250D01*
X493180Y604935D01*
X493671Y606555D01*
X494469Y608048D01*
X495543Y609357D01*
X496852Y610431D01*
X498345Y611229D01*
X498837Y611378D01*
X473064D01*
X451612Y589926D01*
Y576853D01*
X451761Y577345D01*
X452559Y578838D01*
X453633Y580147D01*
X454942Y581221D01*
X456435Y582019D01*
X458055Y582510D01*
X459740Y582676D01*
X461425Y582510D01*
X462331Y582235D01*
X462658Y582334D01*
X463550Y582422D01*
X480314D01*
Y586486D01*
X497586D01*
Y569214D01*
X493522D01*
Y561086D01*
X497586D01*
Y543814D01*
X493522D01*
Y517072D01*
X494312Y517721D01*
X495805Y518519D01*
X497425Y519010D01*
X499110Y519176D01*
X500795Y519010D01*
X502415Y518519D01*
X503908Y517721D01*
X505217Y516647D01*
X506291Y515338D01*
X506411Y515112D01*
X535316D01*
X575887Y555683D01*
X576580Y556252D01*
X577370Y556674D01*
X578228Y556934D01*
X579120Y557022D01*
X583249D01*
X583369Y557248D01*
X584443Y558557D01*
X585752Y559631D01*
X587245Y560429D01*
X588865Y560920D01*
X590550Y561086D01*
X592235Y560920D01*
X593855Y560429D01*
X595348Y559631D01*
X596657Y558557D01*
X597731Y557248D01*
X598529Y555755D01*
X599020Y554135D01*
X599186Y552450D01*
X599020Y550765D01*
X598529Y549145D01*
X597731Y547652D01*
X596657Y546343D01*
X595348Y545269D01*
X595122Y545149D01*
Y508000D01*
X595034Y507108D01*
X594774Y506250D01*
X594352Y505460D01*
X593783Y504767D01*
X573546Y484530D01*
X573620Y484285D01*
X573786Y482600D01*
X573620Y480915D01*
X573129Y479295D01*
X572331Y477802D01*
X571257Y476493D01*
X569948Y475419D01*
X569722Y475299D01*
Y465836D01*
X573786D01*
Y448564D01*
X556514D01*
Y465836D01*
X560578D01*
Y475299D01*
X560352Y475419D01*
X559043Y476493D01*
X557969Y477802D01*
X557171Y479295D01*
X556680Y480915D01*
X556514Y482600D01*
X556680Y484285D01*
X557171Y485905D01*
X557969Y487398D01*
X559043Y488707D01*
X560352Y489781D01*
X561845Y490579D01*
X563465Y491070D01*
X565150Y491236D01*
X566835Y491070D01*
X567080Y490996D01*
X585978Y509894D01*
Y545149D01*
X585752Y545269D01*
X584443Y546343D01*
X583369Y547652D01*
X583249Y547878D01*
X581014D01*
X540443Y507307D01*
X539750Y506738D01*
X538960Y506316D01*
X538102Y506056D01*
X537210Y505968D01*
X506411D01*
X506291Y505742D01*
X505217Y504433D01*
X503908Y503359D01*
X502415Y502561D01*
X500795Y502070D01*
X499110Y501904D01*
X497425Y502070D01*
X495805Y502561D01*
X494312Y503359D01*
X493522Y504008D01*
Y486592D01*
X494312Y487241D01*
X495805Y488039D01*
X497425Y488530D01*
X499110Y488696D01*
X500795Y488530D01*
X502415Y488039D01*
X503908Y487241D01*
X505217Y486167D01*
X506291Y484858D01*
X507089Y483365D01*
X507580Y481745D01*
X507746Y480060D01*
X507580Y478375D01*
X507089Y476755D01*
X506291Y475262D01*
X505217Y473953D01*
X503908Y472879D01*
X502415Y472081D01*
X500795Y471590D01*
X499110Y471424D01*
X497425Y471590D01*
X495805Y472081D01*
X494312Y472879D01*
X493003Y473953D01*
X491929Y475262D01*
X491809Y475488D01*
X479741D01*
X479621Y475262D01*
X478547Y473953D01*
X477238Y472879D01*
X477012Y472759D01*
Y402590D01*
X476924Y401698D01*
X476664Y400840D01*
X476242Y400050D01*
X475673Y399357D01*
X447356Y371041D01*
X447617Y370183D01*
X447802Y368300D01*
X447617Y366417D01*
X447067Y364606D01*
X446175Y362938D01*
X444975Y361475D01*
X443512Y360275D01*
X441844Y359383D01*
X440033Y358833D01*
X438150Y358648D01*
X436267Y358833D01*
X434456Y359383D01*
X432788Y360275D01*
X431325Y361475D01*
X430125Y362938D01*
X430022Y363130D01*
Y320664D01*
X462904Y287782D01*
X469627D01*
X469135Y287931D01*
X467642Y288729D01*
X466333Y289803D01*
X465259Y291112D01*
X464461Y292605D01*
X463970Y294225D01*
X463804Y295910D01*
X463970Y297595D01*
X464461Y299215D01*
X465259Y300708D01*
X466333Y302017D01*
X467642Y303091D01*
X467868Y303211D01*
Y309256D01*
X465821Y311303D01*
X465836Y311150D01*
X465670Y309465D01*
X465179Y307845D01*
X464381Y306352D01*
X463307Y305043D01*
X461998Y303969D01*
X460505Y303171D01*
X458885Y302680D01*
X457200Y302514D01*
X455515Y302680D01*
X453895Y303171D01*
X452402Y303969D01*
X451093Y305043D01*
X450019Y306352D01*
X449221Y307845D01*
X448730Y309465D01*
X448564Y311150D01*
X448730Y312835D01*
X449221Y314455D01*
X450019Y315948D01*
X450088Y316032D01*
Y356870D01*
X450176Y357762D01*
X450436Y358620D01*
X450858Y359410D01*
X451427Y360103D01*
X489458Y398134D01*
Y453390D01*
X489546Y454282D01*
X489806Y455140D01*
X490228Y455930D01*
X490797Y456623D01*
X509778Y475604D01*
Y487999D01*
X509552Y488119D01*
X508243Y489193D01*
X507169Y490502D01*
X506371Y491995D01*
X505880Y493615D01*
X505714Y495300D01*
X505880Y496985D01*
X506371Y498605D01*
X507169Y500098D01*
X508243Y501407D01*
X509552Y502481D01*
X511045Y503279D01*
X512665Y503770D01*
X514350Y503936D01*
X516035Y503770D01*
X517655Y503279D01*
X519148Y502481D01*
X520457Y501407D01*
X521531Y500098D01*
X522329Y498605D01*
X522820Y496985D01*
X522986Y495300D01*
X522820Y493615D01*
X522329Y491995D01*
X521531Y490502D01*
X520457Y489193D01*
X519148Y488119D01*
X518922Y487999D01*
Y473710D01*
X518834Y472818D01*
X518574Y471960D01*
X518152Y471170D01*
X517583Y470477D01*
X498602Y451496D01*
Y396240D01*
X498514Y395348D01*
X498254Y394490D01*
X497832Y393700D01*
X497263Y393007D01*
X459232Y354976D01*
Y346318D01*
X511117Y398203D01*
X511810Y398772D01*
X512600Y399194D01*
X513458Y399454D01*
X514350Y399542D01*
X530236D01*
X534612Y403918D01*
X538988Y408294D01*
Y486410D01*
X539076Y487302D01*
X539336Y488160D01*
X539758Y488950D01*
X540327Y489643D01*
X556754Y506070D01*
X556680Y506315D01*
X556514Y508000D01*
X556680Y509685D01*
X557171Y511305D01*
X557969Y512798D01*
X559043Y514107D01*
X560352Y515181D01*
X561845Y515979D01*
X563465Y516470D01*
X565150Y516636D01*
X566835Y516470D01*
X568455Y515979D01*
X569948Y515181D01*
X571257Y514107D01*
X572331Y512798D01*
X573129Y511305D01*
X573620Y509685D01*
X573786Y508000D01*
X573620Y506315D01*
X573129Y504695D01*
X572331Y503202D01*
X571257Y501893D01*
X569948Y500819D01*
X568455Y500021D01*
X566835Y499530D01*
X565150Y499364D01*
X563465Y499530D01*
X563220Y499604D01*
X548132Y484516D01*
Y408548D01*
X550404Y410820D01*
X550330Y411065D01*
X550164Y412750D01*
X550330Y414435D01*
X550821Y416055D01*
X551619Y417548D01*
X552693Y418857D01*
X554002Y419931D01*
X555495Y420729D01*
X557115Y421220D01*
X558800Y421386D01*
X560485Y421220D01*
X562105Y420729D01*
X563598Y419931D01*
X564907Y418857D01*
X565981Y417548D01*
X566101Y417322D01*
X576899D01*
X577019Y417548D01*
X578093Y418857D01*
X579402Y419931D01*
X580895Y420729D01*
X582515Y421220D01*
X584200Y421386D01*
X585885Y421220D01*
X586130Y421146D01*
X589788Y424804D01*
Y468630D01*
X589876Y469522D01*
X590136Y470380D01*
X590558Y471170D01*
X591127Y471863D01*
X601287Y482023D01*
X601980Y482592D01*
X602770Y483014D01*
X603628Y483274D01*
X604520Y483362D01*
X623889D01*
X624009Y483588D01*
X625083Y484897D01*
X626392Y485971D01*
X627885Y486769D01*
X629505Y487260D01*
X631190Y487426D01*
X632875Y487260D01*
X634495Y486769D01*
X635988Y485971D01*
X637297Y484897D01*
X638371Y483588D01*
X639169Y482095D01*
X639660Y480475D01*
X639826Y478790D01*
X639660Y477105D01*
X639169Y475485D01*
X638371Y473992D01*
X637297Y472683D01*
X635988Y471609D01*
X634495Y470811D01*
X632875Y470320D01*
X631190Y470154D01*
X629505Y470320D01*
X627885Y470811D01*
X626392Y471609D01*
X625083Y472683D01*
X624009Y473992D01*
X623889Y474218D01*
X606414D01*
X598932Y466736D01*
Y422910D01*
X598844Y422018D01*
X598584Y421160D01*
X598162Y420370D01*
X597593Y419677D01*
X592596Y414680D01*
X592670Y414435D01*
X592836Y412750D01*
X592670Y411065D01*
X592179Y409445D01*
X591381Y407952D01*
X590307Y406643D01*
X588998Y405569D01*
X587505Y404771D01*
X585885Y404280D01*
X584200Y404114D01*
X582515Y404280D01*
X580895Y404771D01*
X579402Y405569D01*
X578093Y406643D01*
X577019Y407952D01*
X576899Y408178D01*
X566101D01*
X565981Y407952D01*
X564907Y406643D01*
X563598Y405569D01*
X562105Y404771D01*
X560485Y404280D01*
X558800Y404114D01*
X557115Y404280D01*
X556870Y404354D01*
X524002Y371486D01*
Y358648D01*
X518922D01*
Y341630D01*
X518834Y340738D01*
X518574Y339880D01*
X518152Y339090D01*
X517583Y338397D01*
X507506Y328320D01*
X507580Y328075D01*
X507746Y326390D01*
X507666Y325578D01*
X508378Y325794D01*
X509270Y325882D01*
X541020D01*
X541912Y325794D01*
X542770Y325534D01*
X543560Y325112D01*
X544253Y324543D01*
X550164Y318632D01*
Y319786D01*
X567436D01*
Y304038D01*
X575564D01*
Y319786D01*
X586370D01*
X593667Y327083D01*
X594360Y327652D01*
X595150Y328074D01*
X596008Y328334D01*
X596900Y328422D01*
X632714D01*
Y332486D01*
X649986D01*
Y315214D01*
X632714D01*
Y319278D01*
X612413D01*
X612905Y319129D01*
X614398Y318331D01*
X615707Y317257D01*
X616781Y315948D01*
X617579Y314455D01*
X618070Y312835D01*
X618236Y311150D01*
X618070Y309465D01*
X617728Y308337D01*
Y304038D01*
X664972D01*
Y315214D01*
X664464D01*
Y332486D01*
X681736D01*
Y315214D01*
X681228D01*
Y304038D01*
X709422D01*
Y321310D01*
X708660D01*
Y339090D01*
X726440D01*
Y321310D01*
X725678D01*
Y304038D01*
X811579D01*
X810491Y305364D01*
G37*
%LPC*%G36*
X296163Y649225D02*
Y656337D01*
X303275D01*
Y653289D01*
X299211D01*
Y649225D01*
X296163D01*
G37*
%LPC*%G36*
X313437Y649225D02*
Y656337D01*
X306325D01*
Y653289D01*
X310389D01*
Y649225D01*
X313437D01*
G37*
%LPC*%G36*
X296163Y646175D02*
Y639063D01*
X303275D01*
Y642111D01*
X299211D01*
Y646175D01*
X296163D01*
G37*
%LPC*%G36*
X313437Y646175D02*
Y639063D01*
X306325D01*
Y642111D01*
X310389D01*
Y646175D01*
X313437D01*
G37*
%LPC*%G36*
X309620Y599730D02*
X308752Y600852D01*
X307630Y601720D01*
X306325Y602277D01*
Y605401D01*
X308800Y604555D01*
X310907Y603007D01*
X312455Y600900D01*
X313301Y598425D01*
X310177D01*
X309620Y599730D01*
G37*
%LPC*%G36*
X299980Y599730D02*
X300848Y600852D01*
X301970Y601720D01*
X303275Y602277D01*
Y605401D01*
X300800Y604555D01*
X298693Y603007D01*
X297145Y600900D01*
X296299Y598425D01*
X299423D01*
X299980Y599730D01*
G37*
%LPC*%G36*
X299980Y594070D02*
X300848Y592948D01*
X301970Y592080D01*
X303275Y591523D01*
Y588399D01*
X300800Y589245D01*
X298693Y590793D01*
X297145Y592900D01*
X296299Y595375D01*
X299423D01*
X299980Y594070D01*
G37*
%LPC*%G36*
X309620Y594070D02*
X308752Y592948D01*
X307630Y592080D01*
X306325Y591523D01*
Y588399D01*
X308800Y589245D01*
X310907Y590793D01*
X312455Y592900D01*
X313301Y595375D01*
X310177D01*
X309620Y594070D01*
G37*
%LPC*%G36*
X296163Y623825D02*
Y630937D01*
X303275D01*
Y627889D01*
X299211D01*
Y623825D01*
X296163D01*
G37*
%LPC*%G36*
X313437Y623825D02*
Y630937D01*
X306325D01*
Y627889D01*
X310389D01*
Y623825D01*
X313437D01*
G37*
%LPC*%G36*
X296163Y620775D02*
Y613663D01*
X303275D01*
Y616711D01*
X299211D01*
Y620775D01*
X296163D01*
G37*
%LPC*%G36*
X313437Y620775D02*
Y613663D01*
X306325D01*
Y616711D01*
X310389D01*
Y620775D01*
X313437D01*
G37*
%LPC*%G36*
X385063Y547625D02*
Y554737D01*
X392175D01*
Y551689D01*
X388111D01*
Y547625D01*
X385063D01*
G37*
%LPC*%G36*
X402337Y547625D02*
Y554737D01*
X395225D01*
Y551689D01*
X399289D01*
Y547625D01*
X402337D01*
G37*
%LPC*%G36*
X385063Y544575D02*
Y537463D01*
X392175D01*
Y540511D01*
X388111D01*
Y544575D01*
X385063D01*
G37*
%LPC*%G36*
X402337Y544575D02*
Y537463D01*
X395225D01*
Y540511D01*
X399289D01*
Y544575D01*
X402337D01*
G37*
%LPC*%G36*
X323267Y511220D02*
X322170Y512670D01*
X320720Y513767D01*
X319025Y514427D01*
Y517532D01*
X321889Y516597D01*
X324326Y514826D01*
X326097Y512389D01*
X327032Y509525D01*
X323927D01*
X323267Y511220D01*
G37*
%LPC*%G36*
X311733Y511220D02*
X312830Y512670D01*
X314280Y513767D01*
X315975Y514427D01*
Y517532D01*
X313111Y516597D01*
X310674Y514826D01*
X308903Y512389D01*
X307968Y509525D01*
X311073D01*
X311733Y511220D01*
G37*
%LPC*%G36*
X311733Y504780D02*
X312830Y503330D01*
X314280Y502233D01*
X315975Y501573D01*
Y498468D01*
X313111Y499403D01*
X310674Y501174D01*
X308903Y503611D01*
X307968Y506475D01*
X311073D01*
X311733Y504780D01*
G37*
%LPC*%G36*
X323267Y504780D02*
X322170Y503330D01*
X320720Y502233D01*
X319025Y501573D01*
Y498468D01*
X321889Y499403D01*
X324326Y501174D01*
X326097Y503611D01*
X327032Y506475D01*
X323927D01*
X323267Y504780D01*
G37*
%LPC*%G36*
X327659Y439675D02*
Y447041D01*
X335025D01*
Y443993D01*
X330707D01*
Y439675D01*
X327659D01*
G37*
%LPC*%G36*
X345441Y439675D02*
Y447041D01*
X338075D01*
Y443993D01*
X342393D01*
Y439675D01*
X345441D01*
G37*
%LPC*%G36*
X327659Y436625D02*
Y429259D01*
X335025D01*
Y432307D01*
X330707D01*
Y436625D01*
X327659D01*
G37*
%LPC*%G36*
X345441Y436625D02*
Y429259D01*
X338075D01*
Y432307D01*
X342393D01*
Y436625D01*
X345441D01*
G37*
%LPC*%G36*
X522478Y437199D02*
X522252Y437319D01*
X520943Y438393D01*
X519869Y439702D01*
X519071Y441195D01*
X518580Y442815D01*
X518414Y444500D01*
X518580Y446185D01*
X519071Y447805D01*
X519869Y449298D01*
X520943Y450607D01*
X522252Y451681D01*
X523745Y452479D01*
X525365Y452970D01*
X527050Y453136D01*
X528735Y452970D01*
X530355Y452479D01*
X531848Y451681D01*
X533157Y450607D01*
X534231Y449298D01*
X535029Y447805D01*
X535520Y446185D01*
X535686Y444500D01*
X535520Y442815D01*
X535029Y441195D01*
X534231Y439702D01*
X533157Y438393D01*
X531848Y437319D01*
X531622Y437199D01*
Y427736D01*
X535686D01*
Y410464D01*
X518414D01*
Y427736D01*
X522478D01*
Y437199D01*
G37*
%LPC*%G36*
X605376Y422120D02*
X605798Y422910D01*
X606367Y423603D01*
X611378Y428614D01*
Y456249D01*
X611152Y456369D01*
X609843Y457443D01*
X608769Y458752D01*
X607971Y460245D01*
X607480Y461865D01*
X607314Y463550D01*
X607480Y465235D01*
X607971Y466855D01*
X608769Y468348D01*
X609843Y469657D01*
X611152Y470731D01*
X612645Y471529D01*
X614265Y472020D01*
X615950Y472186D01*
X617635Y472020D01*
X619255Y471529D01*
X620748Y470731D01*
X622057Y469657D01*
X623131Y468348D01*
X623929Y466855D01*
X624420Y465235D01*
X624586Y463550D01*
X624420Y461865D01*
X623929Y460245D01*
X623131Y458752D01*
X622057Y457443D01*
X620748Y456369D01*
X620522Y456249D01*
Y426720D01*
X620434Y425828D01*
X620174Y424970D01*
X619752Y424180D01*
X619183Y423487D01*
X617082Y421386D01*
X618236D01*
Y404114D01*
X600964D01*
Y421386D01*
X605153D01*
X605376Y422120D01*
G37*
%LPC*%G36*
X646170Y402880D02*
X645302Y404002D01*
X644180Y404870D01*
X642875Y405427D01*
Y408551D01*
X645350Y407705D01*
X647457Y406157D01*
X649005Y404050D01*
X649851Y401575D01*
X646727D01*
X646170Y402880D01*
G37*
%LPC*%G36*
X636530Y402880D02*
X637398Y404002D01*
X638520Y404870D01*
X639825Y405427D01*
Y408551D01*
X637350Y407705D01*
X635243Y406157D01*
X633695Y404050D01*
X632849Y401575D01*
X635973D01*
X636530Y402880D01*
G37*
%LPC*%G36*
X636530Y397220D02*
X637398Y396098D01*
X638520Y395230D01*
X639825Y394673D01*
Y391549D01*
X637350Y392395D01*
X635243Y393943D01*
X633695Y396050D01*
X632849Y398525D01*
X635973D01*
X636530Y397220D01*
G37*
%LPC*%G36*
X646170Y397220D02*
X645302Y396098D01*
X644180Y395230D01*
X642875Y394673D01*
Y391549D01*
X645350Y392395D01*
X647457Y393943D01*
X649005Y396050D01*
X649851Y398525D01*
X646727D01*
X646170Y397220D01*
G37*
%LPC*%G36*
X677920Y402880D02*
X677052Y404002D01*
X675930Y404870D01*
X674625Y405427D01*
Y408551D01*
X677100Y407705D01*
X679207Y406157D01*
X680755Y404050D01*
X681601Y401575D01*
X678477D01*
X677920Y402880D01*
G37*
%LPC*%G36*
X668280Y402880D02*
X669148Y404002D01*
X670270Y404870D01*
X671575Y405427D01*
Y408551D01*
X669100Y407705D01*
X666993Y406157D01*
X665445Y404050D01*
X664599Y401575D01*
X667723D01*
X668280Y402880D01*
G37*
%LPC*%G36*
X668280Y397220D02*
X669148Y396098D01*
X670270Y395230D01*
X671575Y394673D01*
Y391549D01*
X669100Y392395D01*
X666993Y393943D01*
X665445Y396050D01*
X664599Y398525D01*
X667723D01*
X668280Y397220D01*
G37*
%LPC*%G36*
X677920Y397220D02*
X677052Y396098D01*
X675930Y395230D01*
X674625Y394673D01*
Y391549D01*
X677100Y392395D01*
X679207Y393943D01*
X680755Y396050D01*
X681601Y398525D01*
X678477D01*
X677920Y397220D01*
G37*
%LPC*%G36*
X722607Y358527D02*
X721682Y359732D01*
X720477Y360657D01*
X719075Y361240D01*
Y364359D01*
X721647Y363491D01*
X723837Y361887D01*
X725441Y359697D01*
X726309Y357125D01*
X723190D01*
X722607Y358527D01*
G37*
%LPC*%G36*
X712493Y358527D02*
X713418Y359732D01*
X714623Y360657D01*
X716025Y361240D01*
Y364359D01*
X713453Y363491D01*
X711263Y361887D01*
X709659Y359697D01*
X708791Y357125D01*
X711910D01*
X712493Y358527D01*
G37*
%LPC*%G36*
X712493Y352673D02*
X713418Y351468D01*
X714623Y350543D01*
X716025Y349960D01*
Y346841D01*
X713453Y347709D01*
X711263Y349313D01*
X709659Y351503D01*
X708791Y354075D01*
X711910D01*
X712493Y352673D01*
G37*
%LPC*%G36*
X722607Y352673D02*
X721682Y351468D01*
X720477Y350543D01*
X719075Y349960D01*
Y346841D01*
X721647Y347709D01*
X723837Y349313D01*
X725441Y351503D01*
X726309Y354075D01*
X723190D01*
X722607Y352673D01*
G37*
%LPC*%G36*
X715263Y649225D02*
Y656337D01*
X722375D01*
Y653289D01*
X718311D01*
Y649225D01*
X715263D01*
G37*
%LPC*%G36*
X732537Y649225D02*
Y656337D01*
X725425D01*
Y653289D01*
X729489D01*
Y649225D01*
X732537D01*
G37*
%LPC*%G36*
X715263Y646175D02*
Y639063D01*
X722375D01*
Y642111D01*
X718311D01*
Y646175D01*
X715263D01*
G37*
%LPC*%G36*
X732537Y646175D02*
Y639063D01*
X725425D01*
Y642111D01*
X729489D01*
Y646175D01*
X732537D01*
G37*
%LPC*%G36*
X677163Y484125D02*
Y491237D01*
X684275D01*
Y488189D01*
X680211D01*
Y484125D01*
X677163D01*
G37*
%LPC*%G36*
X694437Y484125D02*
Y491237D01*
X687325D01*
Y488189D01*
X691389D01*
Y484125D01*
X694437D01*
G37*
%LPC*%G36*
X677163Y481075D02*
Y473963D01*
X684275D01*
Y477011D01*
X680211D01*
Y481075D01*
X677163D01*
G37*
%LPC*%G36*
X694437Y481075D02*
Y473963D01*
X687325D01*
Y477011D01*
X691389D01*
Y481075D01*
X694437D01*
G37*
%LPC*%G36*
X715264Y617728D02*
Y613664D01*
X732536D01*
Y630936D01*
X715264D01*
Y626872D01*
X654050D01*
X653158Y626784D01*
X652300Y626524D01*
X651510Y626102D01*
X650901Y625602D01*
X638048D01*
Y606298D01*
X657352D01*
Y617728D01*
X715264D01*
G37*
%LPC*%G36*
X728356Y969772D02*
X753364Y994780D01*
Y1005586D01*
X770636D01*
Y988314D01*
X759830D01*
X733483Y961967D01*
X732790Y961398D01*
X732000Y960976D01*
X731142Y960716D01*
X730250Y960628D01*
X655001D01*
X654881Y960402D01*
X653807Y959093D01*
X652498Y958019D01*
X651005Y957221D01*
X649385Y956730D01*
X647700Y956564D01*
X646015Y956730D01*
X644395Y957221D01*
X642902Y958019D01*
X641593Y959093D01*
X640519Y960402D01*
X639721Y961895D01*
X639230Y963515D01*
X639064Y965200D01*
X639230Y966885D01*
X639721Y968505D01*
X640519Y969998D01*
X641593Y971307D01*
X642902Y972381D01*
X644395Y973179D01*
X646015Y973670D01*
X647700Y973836D01*
X649385Y973670D01*
X651005Y973179D01*
X652498Y972381D01*
X653807Y971307D01*
X654881Y969998D01*
X655001Y969772D01*
X728356D01*
G37*
%LPC*%G36*
X681344Y992378D02*
X703899D01*
X704019Y992152D01*
X705093Y990843D01*
X706402Y989769D01*
X707895Y988971D01*
X709515Y988480D01*
X711200Y988314D01*
X712885Y988480D01*
X714505Y988971D01*
X715998Y989769D01*
X717307Y990843D01*
X718381Y992152D01*
X719179Y993645D01*
X719670Y995265D01*
X719836Y996950D01*
X719670Y998635D01*
X719179Y1000255D01*
X718381Y1001748D01*
X717307Y1003057D01*
X715998Y1004131D01*
X714505Y1004929D01*
X712885Y1005420D01*
X711200Y1005586D01*
X709515Y1005420D01*
X707895Y1004929D01*
X706402Y1004131D01*
X705093Y1003057D01*
X704019Y1001748D01*
X703899Y1001522D01*
X679450D01*
X678558Y1001434D01*
X677700Y1001174D01*
X676910Y1000752D01*
X676217Y1000183D01*
X664870Y988836D01*
X664625Y988910D01*
X662940Y989076D01*
X661255Y988910D01*
X659635Y988419D01*
X658142Y987621D01*
X656833Y986547D01*
X655759Y985238D01*
X654961Y983745D01*
X654470Y982125D01*
X654304Y980440D01*
X654470Y978755D01*
X654961Y977135D01*
X655759Y975642D01*
X656833Y974333D01*
X658142Y973259D01*
X659635Y972461D01*
X661255Y971970D01*
X662940Y971804D01*
X664625Y971970D01*
X666245Y972461D01*
X667738Y973259D01*
X669047Y974333D01*
X670121Y975642D01*
X670919Y977135D01*
X671410Y978755D01*
X671576Y980440D01*
X671410Y982125D01*
X671336Y982370D01*
X681344Y992378D01*
G37*
%LPC*%G36*
X643128Y700598D02*
X642338Y700175D01*
X640875Y698975D01*
X639675Y697512D01*
X638783Y695844D01*
X638233Y694033D01*
X638048Y692150D01*
X638233Y690267D01*
X638783Y688456D01*
X639675Y686788D01*
X640875Y685325D01*
X642338Y684125D01*
X644006Y683233D01*
X645817Y682683D01*
X647700Y682498D01*
X649583Y682683D01*
X651394Y683233D01*
X653062Y684125D01*
X654525Y685325D01*
X655725Y686788D01*
X656617Y688456D01*
X657167Y690267D01*
X657352Y692150D01*
X657167Y694033D01*
X656617Y695844D01*
X655725Y697512D01*
X654525Y698975D01*
X653062Y700175D01*
X652272Y700598D01*
Y714592D01*
X653486Y715241D01*
X655064Y716536D01*
X656359Y718114D01*
X657321Y719915D01*
X657914Y721868D01*
X658114Y723900D01*
X657914Y725932D01*
X657321Y727885D01*
X656359Y729686D01*
X655064Y731264D01*
X653486Y732559D01*
X651685Y733521D01*
X649732Y734114D01*
X647700Y734314D01*
X645668Y734114D01*
X643715Y733521D01*
X641914Y732559D01*
X640336Y731264D01*
X639041Y729686D01*
X638079Y727885D01*
X637486Y725932D01*
X637286Y723900D01*
X637486Y721868D01*
X638079Y719915D01*
X639041Y718114D01*
X640336Y716536D01*
X641914Y715241D01*
X643128Y714592D01*
Y700598D01*
G37*
%LPC*%G36*
X569213Y604775D02*
Y611887D01*
X576325D01*
Y608839D01*
X572261D01*
Y604775D01*
X569213D01*
G37*
%LPC*%G36*
X586487Y604775D02*
Y611887D01*
X579375D01*
Y608839D01*
X583439D01*
Y604775D01*
X586487D01*
G37*
%LPC*%G36*
X569213Y601725D02*
Y594613D01*
X576325D01*
Y597661D01*
X572261D01*
Y601725D01*
X569213D01*
G37*
%LPC*%G36*
X586487Y601725D02*
Y594613D01*
X579375D01*
Y597661D01*
X583439D01*
Y601725D01*
X586487D01*
G37*
%LPC*%G36*
X515620Y811022D02*
X516512Y810934D01*
X517370Y810674D01*
X518160Y810252D01*
X518853Y809683D01*
X542914Y785622D01*
X583249D01*
X583369Y785848D01*
X584443Y787157D01*
X585752Y788231D01*
X587245Y789029D01*
X588865Y789520D01*
X590550Y789686D01*
X592235Y789520D01*
X593855Y789029D01*
X595348Y788231D01*
X596657Y787157D01*
X597731Y785848D01*
X597851Y785622D01*
X658589D01*
X658936Y786271D01*
X660105Y787695D01*
X661529Y788864D01*
X663154Y789733D01*
X664917Y790267D01*
X666750Y790448D01*
X668583Y790267D01*
X670346Y789733D01*
X671971Y788864D01*
X673395Y787695D01*
X674564Y786271D01*
X675433Y784646D01*
X675967Y782883D01*
X676148Y781050D01*
X675967Y779217D01*
X675433Y777454D01*
X674564Y775829D01*
X673395Y774405D01*
X671971Y773236D01*
X670346Y772367D01*
X668583Y771833D01*
X666750Y771652D01*
X664917Y771833D01*
X663154Y772367D01*
X661529Y773236D01*
X660105Y774405D01*
X658936Y775829D01*
X658589Y776478D01*
X597851D01*
X597731Y776252D01*
X596657Y774943D01*
X595348Y773869D01*
X593855Y773071D01*
X592235Y772580D01*
X590550Y772414D01*
X588865Y772580D01*
X587245Y773071D01*
X585752Y773869D01*
X584443Y774943D01*
X583369Y776252D01*
X583249Y776478D01*
X541020D01*
X540128Y776566D01*
X539270Y776826D01*
X538480Y777248D01*
X537787Y777817D01*
X513726Y801878D01*
X496251D01*
X496131Y801652D01*
X495057Y800343D01*
X493748Y799269D01*
X492255Y798471D01*
X490635Y797980D01*
X488950Y797814D01*
X487265Y797980D01*
X485645Y798471D01*
X484152Y799269D01*
X482843Y800343D01*
X481769Y801652D01*
X480971Y803145D01*
X480480Y804765D01*
X480314Y806450D01*
X480480Y808135D01*
X480971Y809755D01*
X481769Y811248D01*
X482843Y812557D01*
X484152Y813631D01*
X485645Y814429D01*
X487265Y814920D01*
X488950Y815086D01*
X490635Y814920D01*
X492255Y814429D01*
X493748Y813631D01*
X495057Y812557D01*
X496131Y811248D01*
X496251Y811022D01*
X515620D01*
D01*
G37*
%LPC*%G36*
X352865Y687782D02*
X352287Y689688D01*
X351348Y691445D01*
X350084Y692984D01*
X348545Y694248D01*
X346788Y695187D01*
X344882Y695765D01*
X342900Y695960D01*
X340918Y695765D01*
X339012Y695187D01*
X337255Y694248D01*
X335716Y692984D01*
X334452Y691445D01*
X333513Y689688D01*
X332935Y687782D01*
X332740Y685800D01*
X332935Y683818D01*
X333513Y681912D01*
X334452Y680155D01*
X335716Y678616D01*
X337255Y677352D01*
X339012Y676413D01*
X340918Y675835D01*
X342900Y675640D01*
X344882Y675835D01*
X346788Y676413D01*
X348545Y677352D01*
X350084Y678616D01*
X351348Y680155D01*
X352287Y681912D01*
X352865Y683818D01*
X353060Y685800D01*
X352865Y687782D01*
G37*
%LPC*%G36*
X364236Y880872D02*
Y884936D01*
X346964D01*
Y867664D01*
X364236D01*
Y871728D01*
X373699D01*
X373819Y871502D01*
X374893Y870193D01*
X376202Y869119D01*
X377695Y868321D01*
X379315Y867830D01*
X381000Y867664D01*
X382685Y867830D01*
X382930Y867904D01*
X432377Y818457D01*
X433070Y817888D01*
X433860Y817466D01*
X434591Y817244D01*
X434779Y816892D01*
X435853Y815583D01*
X437162Y814509D01*
X438655Y813711D01*
X440275Y813220D01*
X441960Y813054D01*
X443645Y813220D01*
X445265Y813711D01*
X446758Y814509D01*
X448067Y815583D01*
X449141Y816892D01*
X449939Y818385D01*
X450430Y820005D01*
X450596Y821690D01*
X450430Y823375D01*
X449939Y824995D01*
X449141Y826488D01*
X448067Y827797D01*
X446758Y828871D01*
X445265Y829669D01*
X443645Y830160D01*
X441960Y830326D01*
X440275Y830160D01*
X438655Y829669D01*
X437162Y828871D01*
X435917Y827849D01*
X389396Y874370D01*
X389470Y874615D01*
X389636Y876300D01*
X389470Y877985D01*
X388979Y879605D01*
X388181Y881098D01*
X387107Y882407D01*
X385798Y883481D01*
X384305Y884279D01*
X382685Y884770D01*
X381000Y884936D01*
X379315Y884770D01*
X377695Y884279D01*
X376202Y883481D01*
X374893Y882407D01*
X373819Y881098D01*
X373699Y880872D01*
X364236D01*
G37*
%LPC*%G36*
X452628Y823606D02*
Y813751D01*
X452402Y813631D01*
X451093Y812557D01*
X450019Y811248D01*
X449221Y809755D01*
X448730Y808135D01*
X448564Y806450D01*
X448730Y804765D01*
X449221Y803145D01*
X450019Y801652D01*
X451093Y800343D01*
X452402Y799269D01*
X453895Y798471D01*
X455515Y797980D01*
X457200Y797814D01*
X458885Y797980D01*
X460505Y798471D01*
X461998Y799269D01*
X463307Y800343D01*
X464381Y801652D01*
X465179Y803145D01*
X465670Y804765D01*
X465836Y806450D01*
X465670Y808135D01*
X465179Y809755D01*
X464381Y811248D01*
X463307Y812557D01*
X461998Y813631D01*
X461772Y813751D01*
Y825500D01*
X461684Y826392D01*
X461424Y827250D01*
X461002Y828040D01*
X460433Y828733D01*
X414796Y874370D01*
X414870Y874615D01*
X415036Y876300D01*
X414870Y877985D01*
X414379Y879605D01*
X413581Y881098D01*
X412507Y882407D01*
X411198Y883481D01*
X409705Y884279D01*
X408085Y884770D01*
X406400Y884936D01*
X404715Y884770D01*
X403095Y884279D01*
X401602Y883481D01*
X400293Y882407D01*
X399219Y881098D01*
X398421Y879605D01*
X397930Y877985D01*
X397764Y876300D01*
X397930Y874615D01*
X398421Y872995D01*
X399219Y871502D01*
X400293Y870193D01*
X401602Y869119D01*
X403095Y868321D01*
X404715Y867830D01*
X406400Y867664D01*
X408085Y867830D01*
X408330Y867904D01*
X452628Y823606D01*
G37*
%LPC*%G36*
X429513Y928625D02*
Y935737D01*
X436625D01*
Y932689D01*
X432561D01*
Y928625D01*
X429513D01*
G37*
%LPC*%G36*
X446787Y928625D02*
Y935737D01*
X439675D01*
Y932689D01*
X443739D01*
Y928625D01*
X446787D01*
G37*
%LPC*%G36*
X429513Y925575D02*
Y918463D01*
X436625D01*
Y921511D01*
X432561D01*
Y925575D01*
X429513D01*
G37*
%LPC*%G36*
X446787Y925575D02*
Y918463D01*
X439675D01*
Y921511D01*
X443739D01*
Y925575D01*
X446787D01*
G37*
%LPC*%G36*
X595122Y637286D02*
X599186D01*
Y626480D01*
X615373Y610293D01*
X615942Y609600D01*
X616364Y608810D01*
X616624Y607952D01*
X616712Y607060D01*
Y554344D01*
X631883Y539173D01*
X632452Y538480D01*
X632874Y537690D01*
X633134Y536832D01*
X633222Y535940D01*
Y529336D01*
X637286D01*
Y518530D01*
X663633Y492183D01*
X664202Y491490D01*
X664624Y490700D01*
X664846Y489969D01*
X665198Y489781D01*
X666507Y488707D01*
X667581Y487398D01*
X668379Y485905D01*
X668870Y484285D01*
X669036Y482600D01*
X668870Y480915D01*
X668379Y479295D01*
X667581Y477802D01*
X666507Y476493D01*
X665198Y475419D01*
X663705Y474621D01*
X662085Y474130D01*
X660400Y473964D01*
X658715Y474130D01*
X657095Y474621D01*
X655602Y475419D01*
X654293Y476493D01*
X653219Y477802D01*
X652421Y479295D01*
X651930Y480915D01*
X651764Y482600D01*
X651930Y484285D01*
X652421Y485905D01*
X653219Y487398D01*
X654241Y488643D01*
X630820Y512064D01*
X620014D01*
Y529336D01*
X624078D01*
Y534046D01*
X608907Y549217D01*
X608338Y549910D01*
X607916Y550700D01*
X607656Y551558D01*
X607568Y552450D01*
Y605166D01*
X592720Y620014D01*
X581914D01*
Y637286D01*
X585978D01*
Y646749D01*
X585752Y646869D01*
X584443Y647943D01*
X583369Y649252D01*
X582571Y650745D01*
X582080Y652365D01*
X581914Y654050D01*
X582080Y655735D01*
X582571Y657355D01*
X583369Y658848D01*
X584443Y660157D01*
X585752Y661231D01*
X587245Y662029D01*
X588865Y662520D01*
X590550Y662686D01*
X592235Y662520D01*
X593855Y662029D01*
X595348Y661231D01*
X596657Y660157D01*
X597731Y658848D01*
X598529Y657355D01*
X599020Y655735D01*
X599186Y654050D01*
X599020Y652365D01*
X598529Y650745D01*
X597731Y649252D01*
X596657Y647943D01*
X595348Y646869D01*
X595122Y646749D01*
Y637286D01*
G37*
%LPC*%G36*
X315970Y764830D02*
X315102Y765952D01*
X313980Y766820D01*
X312675Y767377D01*
Y770501D01*
X315150Y769655D01*
X317257Y768107D01*
X318805Y766000D01*
X319651Y763525D01*
X316527D01*
X315970Y764830D01*
G37*
%LPC*%G36*
X306330Y764830D02*
X307198Y765952D01*
X308320Y766820D01*
X309625Y767377D01*
Y770501D01*
X307150Y769655D01*
X305043Y768107D01*
X303495Y766000D01*
X302649Y763525D01*
X305773D01*
X306330Y764830D01*
G37*
%LPC*%G36*
X306330Y759170D02*
X307198Y758048D01*
X308320Y757180D01*
X309625Y756623D01*
Y753499D01*
X307150Y754345D01*
X305043Y755893D01*
X303495Y758000D01*
X302649Y760475D01*
X305773D01*
X306330Y759170D01*
G37*
%LPC*%G36*
X315970Y759170D02*
X315102Y758048D01*
X313980Y757180D01*
X312675Y756623D01*
Y753499D01*
X315150Y754345D01*
X317257Y755893D01*
X318805Y758000D01*
X319651Y760475D01*
X316527D01*
X315970Y759170D01*
G37*
%LPC*%G36*
X862070Y752130D02*
X861202Y753252D01*
X860080Y754120D01*
X858775Y754677D01*
Y757801D01*
X861250Y756955D01*
X863357Y755407D01*
X864905Y753300D01*
X865751Y750825D01*
X862627D01*
X862070Y752130D01*
G37*
%LPC*%G36*
X852430Y752130D02*
X853298Y753252D01*
X854420Y754120D01*
X855725Y754677D01*
Y757801D01*
X853250Y756955D01*
X851143Y755407D01*
X849595Y753300D01*
X848749Y750825D01*
X851873D01*
X852430Y752130D01*
G37*
%LPC*%G36*
X852430Y746470D02*
X853298Y745348D01*
X854420Y744480D01*
X855725Y743923D01*
Y740799D01*
X853250Y741645D01*
X851143Y743193D01*
X849595Y745300D01*
X848749Y747775D01*
X851873D01*
X852430Y746470D01*
G37*
%LPC*%G36*
X862070Y746470D02*
X861202Y745348D01*
X860080Y744480D01*
X858775Y743923D01*
Y740799D01*
X861250Y741645D01*
X863357Y743193D01*
X864905Y745300D01*
X865751Y747775D01*
X862627D01*
X862070Y746470D01*
G37*
%LPC*%G36*
X734706Y592328D02*
X731201D01*
X731081Y592102D01*
X730007Y590793D01*
X728698Y589719D01*
X727205Y588921D01*
X725585Y588430D01*
X723900Y588264D01*
X722215Y588430D01*
X720595Y588921D01*
X719102Y589719D01*
X717793Y590793D01*
X716719Y592102D01*
X715921Y593595D01*
X715430Y595215D01*
X715264Y596900D01*
X715430Y598585D01*
X715921Y600205D01*
X716719Y601698D01*
X717793Y603007D01*
X719102Y604081D01*
X720595Y604879D01*
X722215Y605370D01*
X723900Y605536D01*
X725585Y605370D01*
X727205Y604879D01*
X728698Y604081D01*
X730007Y603007D01*
X731081Y601698D01*
X731201Y601472D01*
X736600D01*
X737492Y601384D01*
X738350Y601124D01*
X739140Y600702D01*
X739833Y600133D01*
X771554Y568412D01*
X772718Y568765D01*
X774700Y568960D01*
X776682Y568765D01*
X778588Y568187D01*
X780345Y567248D01*
X781884Y565984D01*
X783148Y564445D01*
X784087Y562688D01*
X784665Y560782D01*
X784860Y558800D01*
X784665Y556818D01*
X784087Y554912D01*
X783148Y553155D01*
X781884Y551616D01*
X780345Y550352D01*
X778588Y549413D01*
X776682Y548835D01*
X774700Y548640D01*
X772718Y548835D01*
X770812Y549413D01*
X769055Y550352D01*
X767516Y551616D01*
X766252Y553155D01*
X765313Y554912D01*
X764735Y556818D01*
X764540Y558800D01*
X764735Y560782D01*
X765088Y561946D01*
X734706Y592328D01*
G37*
%LPC*%G36*
X759265Y560782D02*
X758687Y562688D01*
X757748Y564445D01*
X756484Y565984D01*
X754945Y567248D01*
X753188Y568187D01*
X751282Y568765D01*
X749300Y568960D01*
X747318Y568765D01*
X745412Y568187D01*
X743655Y567248D01*
X742116Y565984D01*
X740852Y564445D01*
X739913Y562688D01*
X739335Y560782D01*
X739140Y558800D01*
X739335Y556818D01*
X739913Y554912D01*
X740852Y553155D01*
X742116Y551616D01*
X743655Y550352D01*
X745412Y549413D01*
X747318Y548835D01*
X749300Y548640D01*
X751282Y548835D01*
X753188Y549413D01*
X754945Y550352D01*
X756484Y551616D01*
X757748Y553155D01*
X758687Y554912D01*
X759265Y556818D01*
X759460Y558800D01*
X759265Y560782D01*
G37*
%LPC*%G36*
X753872Y457200D02*
X753784Y456308D01*
X753524Y455450D01*
X753102Y454660D01*
X752533Y453967D01*
X744996Y446430D01*
X745070Y446185D01*
X745236Y444500D01*
X745070Y442815D01*
X744579Y441195D01*
X743781Y439702D01*
X742707Y438393D01*
X741398Y437319D01*
X739905Y436521D01*
X738285Y436030D01*
X736600Y435864D01*
X734915Y436030D01*
X733295Y436521D01*
X731802Y437319D01*
X730493Y438393D01*
X729419Y439702D01*
X728621Y441195D01*
X728130Y442815D01*
X727964Y444500D01*
X728130Y446185D01*
X728621Y447805D01*
X729419Y449298D01*
X730493Y450607D01*
X731802Y451681D01*
X733295Y452479D01*
X734915Y452970D01*
X736600Y453136D01*
X738285Y452970D01*
X738530Y452896D01*
X744728Y459094D01*
Y473579D01*
X743655Y474152D01*
X742116Y475416D01*
X740852Y476955D01*
X739913Y478712D01*
X739335Y480618D01*
X739140Y482600D01*
X739335Y484582D01*
X739913Y486488D01*
X740852Y488245D01*
X742116Y489784D01*
X743655Y491048D01*
X745412Y491987D01*
X747318Y492565D01*
X749300Y492760D01*
X751282Y492565D01*
X753188Y491987D01*
X754945Y491048D01*
X756484Y489784D01*
X757748Y488245D01*
X758687Y486488D01*
X759265Y484582D01*
X759460Y482600D01*
X759265Y480618D01*
X758687Y478712D01*
X757748Y476955D01*
X756484Y475416D01*
X754945Y474152D01*
X753872Y473579D01*
Y457200D01*
D01*
G37*
%LPC*%G36*
X779272Y495300D02*
X779184Y496192D01*
X778924Y497050D01*
X778502Y497840D01*
X777933Y498533D01*
X694196Y582270D01*
X694270Y582515D01*
X694436Y584200D01*
X694270Y585885D01*
X693779Y587505D01*
X692981Y588998D01*
X691907Y590307D01*
X690598Y591381D01*
X690372Y591501D01*
Y597629D01*
X691021Y597976D01*
X692445Y599145D01*
X693614Y600569D01*
X694483Y602194D01*
X695017Y603957D01*
X695198Y605790D01*
X695017Y607623D01*
X694483Y609386D01*
X693614Y611011D01*
X692445Y612435D01*
X691021Y613604D01*
X689396Y614473D01*
X687633Y615007D01*
X685800Y615188D01*
X683967Y615007D01*
X682204Y614473D01*
X680579Y613604D01*
X679155Y612435D01*
X677986Y611011D01*
X677117Y609386D01*
X676583Y607623D01*
X676402Y605790D01*
X676583Y603957D01*
X677117Y602194D01*
X677986Y600569D01*
X679155Y599145D01*
X680579Y597976D01*
X681228Y597629D01*
Y591501D01*
X681002Y591381D01*
X679693Y590307D01*
X678619Y588998D01*
X678499Y588772D01*
X669036D01*
Y592836D01*
X651764D01*
Y588772D01*
X641350D01*
X640458Y588684D01*
X639600Y588424D01*
X638810Y588002D01*
X638117Y587433D01*
X630580Y579896D01*
X630335Y579970D01*
X628650Y580136D01*
X626965Y579970D01*
X625345Y579479D01*
X623852Y578681D01*
X622543Y577607D01*
X621469Y576298D01*
X620671Y574805D01*
X620180Y573185D01*
X620014Y571500D01*
X620180Y569815D01*
X620671Y568195D01*
X621469Y566702D01*
X622543Y565393D01*
X623852Y564319D01*
X625345Y563521D01*
X626965Y563030D01*
X628650Y562864D01*
X630335Y563030D01*
X631955Y563521D01*
X633448Y564319D01*
X634757Y565393D01*
X635831Y566702D01*
X636629Y568195D01*
X637120Y569815D01*
X637286Y571500D01*
X637120Y573185D01*
X637046Y573430D01*
X643244Y579628D01*
X651764D01*
Y575564D01*
X669036D01*
Y579628D01*
X678499D01*
X678619Y579402D01*
X679693Y578093D01*
X681002Y577019D01*
X682495Y576221D01*
X684115Y575730D01*
X685800Y575564D01*
X687485Y575730D01*
X687730Y575804D01*
X770128Y493406D01*
Y491621D01*
X769055Y491048D01*
X767516Y489784D01*
X766252Y488245D01*
X765313Y486488D01*
X764735Y484582D01*
X764540Y482600D01*
X764735Y480618D01*
X765313Y478712D01*
X766252Y476955D01*
X767516Y475416D01*
X769055Y474152D01*
X770812Y473213D01*
X772718Y472635D01*
X774700Y472440D01*
X776682Y472635D01*
X778588Y473213D01*
X780345Y474152D01*
X781884Y475416D01*
X783148Y476955D01*
X784087Y478712D01*
X784665Y480618D01*
X784860Y482600D01*
X784665Y484582D01*
X784087Y486488D01*
X783148Y488245D01*
X781884Y489784D01*
X780345Y491048D01*
X779272Y491621D01*
Y495300D01*
D01*
G37*
%LPC*%G36*
X690434Y766572D02*
X691021Y766886D01*
X692445Y768055D01*
X693614Y769479D01*
X694483Y771104D01*
X695017Y772867D01*
X695198Y774700D01*
X695017Y776533D01*
X694483Y778296D01*
X693614Y779921D01*
X692445Y781345D01*
X691021Y782514D01*
X689396Y783383D01*
X687633Y783917D01*
X685800Y784098D01*
X683967Y783917D01*
X682204Y783383D01*
X680579Y782514D01*
X679155Y781345D01*
X677986Y779921D01*
X677117Y778296D01*
X676583Y776533D01*
X676402Y774700D01*
X676583Y772867D01*
X677117Y771104D01*
X677986Y769479D01*
X679155Y768055D01*
X680579Y766886D01*
X681166Y766572D01*
X596900D01*
X596008Y766484D01*
X595150Y766224D01*
X594360Y765802D01*
X593667Y765233D01*
X592480Y764046D01*
X592235Y764120D01*
X590550Y764286D01*
X588865Y764120D01*
X587245Y763629D01*
X585752Y762831D01*
X584443Y761757D01*
X583369Y760448D01*
X582571Y758955D01*
X582080Y757335D01*
X581914Y755650D01*
X582080Y753965D01*
X582571Y752345D01*
X583369Y750852D01*
X584443Y749543D01*
X585752Y748469D01*
X587245Y747671D01*
X588865Y747180D01*
X590550Y747014D01*
X592235Y747180D01*
X593855Y747671D01*
X595348Y748469D01*
X596657Y749543D01*
X597731Y750852D01*
X598529Y752345D01*
X599020Y753965D01*
X599186Y755650D01*
X599020Y757335D01*
X598992Y757428D01*
X611262D01*
X592480Y738646D01*
X592235Y738720D01*
X590550Y738886D01*
X588865Y738720D01*
X587245Y738229D01*
X585752Y737431D01*
X584443Y736357D01*
X583369Y735048D01*
X582571Y733555D01*
X582080Y731935D01*
X581914Y730250D01*
X582080Y728565D01*
X582571Y726945D01*
X583369Y725452D01*
X584443Y724143D01*
X585752Y723069D01*
X587245Y722271D01*
X588865Y721780D01*
X590550Y721614D01*
X592235Y721780D01*
X593855Y722271D01*
X595348Y723069D01*
X596657Y724143D01*
X597731Y725452D01*
X598529Y726945D01*
X599020Y728565D01*
X599186Y730250D01*
X599020Y731935D01*
X598946Y732180D01*
X617844Y751078D01*
X806450D01*
X807342Y751166D01*
X808200Y751426D01*
X808990Y751848D01*
X809683Y752417D01*
X821806Y764540D01*
X835660D01*
Y784860D01*
X815340D01*
Y771006D01*
X804556Y760222D01*
X792088D01*
X796954Y765088D01*
X798118Y764735D01*
X800100Y764540D01*
X802082Y764735D01*
X803988Y765313D01*
X805745Y766252D01*
X807284Y767516D01*
X808548Y769055D01*
X809487Y770812D01*
X810065Y772718D01*
X810260Y774700D01*
X810065Y776682D01*
X809487Y778588D01*
X808548Y780345D01*
X807284Y781884D01*
X805745Y783148D01*
X803988Y784087D01*
X802082Y784665D01*
X800100Y784860D01*
X798118Y784665D01*
X796212Y784087D01*
X794455Y783148D01*
X792916Y781884D01*
X791652Y780345D01*
X790713Y778588D01*
X790135Y776682D01*
X789940Y774700D01*
X790135Y772718D01*
X790488Y771554D01*
X785506Y766572D01*
X780734D01*
X781884Y767516D01*
X783148Y769055D01*
X784087Y770812D01*
X784665Y772718D01*
X784860Y774700D01*
X784665Y776682D01*
X784087Y778588D01*
X783148Y780345D01*
X781884Y781884D01*
X780345Y783148D01*
X778588Y784087D01*
X776682Y784665D01*
X774700Y784860D01*
X772718Y784665D01*
X771554Y784312D01*
X753803Y802063D01*
X753110Y802632D01*
X752320Y803054D01*
X751462Y803314D01*
X750570Y803402D01*
X600064D01*
X599186Y804280D01*
Y815086D01*
X581914D01*
Y797814D01*
X592720D01*
X594937Y795597D01*
X595630Y795028D01*
X596420Y794606D01*
X597278Y794346D01*
X598170Y794258D01*
X748676D01*
X765088Y777846D01*
X764735Y776682D01*
X764540Y774700D01*
X764735Y772718D01*
X765313Y770812D01*
X766252Y769055D01*
X767516Y767516D01*
X768666Y766572D01*
X755334D01*
X756484Y767516D01*
X757748Y769055D01*
X758687Y770812D01*
X759265Y772718D01*
X759460Y774700D01*
X759265Y776682D01*
X758687Y778588D01*
X757748Y780345D01*
X756484Y781884D01*
X754945Y783148D01*
X753188Y784087D01*
X751282Y784665D01*
X749300Y784860D01*
X747318Y784665D01*
X745412Y784087D01*
X743655Y783148D01*
X742116Y781884D01*
X740852Y780345D01*
X739913Y778588D01*
X739335Y776682D01*
X739140Y774700D01*
X739335Y772718D01*
X739913Y770812D01*
X740852Y769055D01*
X742116Y767516D01*
X743266Y766572D01*
X690434D01*
G37*
%LPC*%G36*
X835465Y700482D02*
X834887Y702388D01*
X833948Y704145D01*
X832684Y705684D01*
X831145Y706948D01*
X829388Y707887D01*
X827482Y708465D01*
X825500Y708660D01*
X823518Y708465D01*
X821612Y707887D01*
X819855Y706948D01*
X818316Y705684D01*
X817052Y704145D01*
X816113Y702388D01*
X815535Y700482D01*
X815340Y698500D01*
X815535Y696518D01*
X816113Y694612D01*
X817052Y692855D01*
X818316Y691316D01*
X819855Y690052D01*
X821612Y689113D01*
X823518Y688535D01*
X825500Y688340D01*
X827482Y688535D01*
X829388Y689113D01*
X831145Y690052D01*
X832684Y691316D01*
X833948Y692855D01*
X834887Y694612D01*
X835465Y696518D01*
X835660Y698500D01*
X835465Y700482D01*
G37*
%LPC*%G36*
X724026Y727412D02*
X722759Y729109D01*
X721062Y730376D01*
X719075Y731107D01*
Y734203D01*
X722231Y733204D01*
X724915Y731265D01*
X726854Y728581D01*
X727853Y725425D01*
X724757D01*
X724026Y727412D01*
G37*
%LPC*%G36*
X711074Y727412D02*
X712341Y729109D01*
X714038Y730376D01*
X716025Y731107D01*
Y734203D01*
X712869Y733204D01*
X710185Y731265D01*
X708246Y728581D01*
X707247Y725425D01*
X710343D01*
X711074Y727412D01*
G37*
%LPC*%G36*
X711074Y720388D02*
X712341Y718691D01*
X714038Y717424D01*
X716025Y716693D01*
Y713597D01*
X712869Y714596D01*
X710185Y716535D01*
X708246Y719219D01*
X707247Y722375D01*
X710343D01*
X711074Y720388D01*
G37*
%LPC*%G36*
X724026Y720388D02*
X722759Y718691D01*
X721062Y717424D01*
X719075Y716693D01*
Y713597D01*
X722231Y714596D01*
X724915Y716535D01*
X726854Y719219D01*
X727853Y722375D01*
X724757D01*
X724026Y720388D01*
G37*
%LPC*%G36*
X463676Y682962D02*
X462409Y684659D01*
X460712Y685926D01*
X458725Y686657D01*
Y689753D01*
X461881Y688754D01*
X464565Y686815D01*
X466504Y684131D01*
X467503Y680975D01*
X464407D01*
X463676Y682962D01*
G37*
%LPC*%G36*
X450724Y682962D02*
X451991Y684659D01*
X453688Y685926D01*
X455675Y686657D01*
Y689753D01*
X452519Y688754D01*
X449835Y686815D01*
X447896Y684131D01*
X446897Y680975D01*
X449993D01*
X450724Y682962D01*
G37*
%LPC*%G36*
X450724Y675938D02*
X451991Y674241D01*
X453688Y672974D01*
X455675Y672243D01*
Y669147D01*
X452519Y670146D01*
X449835Y672085D01*
X447896Y674769D01*
X446897Y677925D01*
X449993D01*
X450724Y675938D01*
G37*
%LPC*%G36*
X463676Y675938D02*
X462409Y674241D01*
X460712Y672974D01*
X458725Y672243D01*
Y669147D01*
X461881Y670146D01*
X464565Y672085D01*
X466504Y674769D01*
X467503Y677925D01*
X464407D01*
X463676Y675938D01*
G37*
%LPC*%G36*
X825626Y365462D02*
X824359Y367159D01*
X822662Y368426D01*
X820675Y369157D01*
Y372253D01*
X823831Y371254D01*
X826515Y369315D01*
X828454Y366631D01*
X829453Y363475D01*
X826357D01*
X825626Y365462D01*
G37*
%LPC*%G36*
X812674Y365462D02*
X813941Y367159D01*
X815638Y368426D01*
X817625Y369157D01*
Y372253D01*
X814469Y371254D01*
X811785Y369315D01*
X809846Y366631D01*
X808847Y363475D01*
X811943D01*
X812674Y365462D01*
G37*
%LPC*%G36*
X812674Y358438D02*
X813941Y356741D01*
X815638Y355474D01*
X817625Y354743D01*
Y351647D01*
X814469Y352646D01*
X811785Y354585D01*
X809846Y357269D01*
X808847Y360425D01*
X811943D01*
X812674Y358438D01*
G37*
%LPC*%G36*
X825626Y358438D02*
X824359Y356741D01*
X822662Y355474D01*
X820675Y354743D01*
Y351647D01*
X823831Y352646D01*
X826515Y354585D01*
X828454Y357269D01*
X829453Y360425D01*
X826357D01*
X825626Y358438D01*
G37*
%LPD*%
G54D200*
X304800Y596900D03*
X317500Y546100D03*
X311150Y762000D03*
X317500Y927100D03*
Y952500D03*
X355600Y977900D03*
X438150D03*
X441960Y791210D03*
Y821690D03*
X457200Y806450D03*
X381000Y876300D03*
X406400D03*
X459740Y574040D03*
Y543560D03*
X444500Y558800D03*
X406400Y647700D03*
Y622300D03*
Y571500D03*
X425450Y419100D03*
X472440Y510540D03*
Y480060D03*
X457200Y495300D03*
X472440Y326390D03*
Y295910D03*
X457200Y311150D03*
X499110Y295910D03*
Y326390D03*
X514350Y311150D03*
X527050Y444500D03*
X565150Y482600D03*
Y508000D03*
X558800Y412750D03*
X584200D03*
X499110Y480060D03*
Y510540D03*
X514350Y495300D03*
X501650Y603250D03*
X488950Y628650D03*
X590550Y577850D03*
Y552450D03*
Y654050D03*
Y730250D03*
Y755650D03*
Y679450D03*
Y781050D03*
Y704850D03*
Y831850D03*
X488950Y806450D03*
X662940Y949960D03*
X647700Y965200D03*
X662940Y980440D03*
X626110Y867410D03*
Y897890D03*
X641350Y882650D03*
X685800Y584200D03*
X628650Y571500D03*
X631190Y478790D03*
Y448310D03*
X615950Y463550D03*
X641350Y400050D03*
X673100D03*
X660400Y482600D03*
X609600Y311150D03*
X736600Y444500D03*
X723900Y596900D03*
X745490Y859790D03*
Y829310D03*
X730250Y844550D03*
X762000Y895350D03*
X736600Y996950D03*
X711200D03*
X857250Y749300D03*
X882650Y577850D03*
X857250D03*
X825500Y622300D03*
Y647700D03*
G54D400*
X304800D03*
Y622300D03*
Y571500D03*
X311150Y711200D03*
X317500Y901700D03*
X355600Y876300D03*
X381000Y977900D03*
X406400D03*
X438150Y927100D03*
X406400Y596900D03*
X393700Y546100D03*
X425450Y444500D03*
X558800Y311150D03*
X584200D03*
X527050Y419100D03*
X565150Y457200D03*
X577850Y603250D03*
X590550Y628650D03*
X488950Y577850D03*
Y552450D03*
Y654050D03*
Y730250D03*
Y755650D03*
Y679450D03*
Y781050D03*
Y704850D03*
Y831850D03*
X590550Y806450D03*
X660400Y584200D03*
X609600Y412750D03*
X685800Y482600D03*
X628650Y520700D03*
X641350Y323850D03*
X673100D03*
X723900Y622300D03*
Y647700D03*
X736600Y895350D03*
X711200D03*
X762000Y996950D03*
X857250Y723900D03*
X825500Y596900D03*
X838200Y444500D03*
X882650Y476250D03*
X857250D03*
G54D401*
X381000Y812800D03*
X393700Y508000D03*
X514350Y368300D03*
X647700Y615950D03*
G54D201*
X317500Y508000D03*
X304800Y812800D03*
X438150Y368300D03*
X647700Y692150D03*
G54D202*
X311150Y438150D03*
X582930Y882650D03*
X577850Y984250D03*
X717550Y355600D03*
X788670Y844550D03*
X838200Y857250D03*
G54D402*
X336550Y438150D03*
X577850Y958850D03*
X603250Y882650D03*
X717550Y330200D03*
X768350Y844550D03*
X838200Y831850D03*
G54D203*
X317500Y355600D03*
X457200Y679450D03*
Y628650D03*
X647700Y723900D03*
X819150Y361950D03*
Y311150D03*
X717550Y723900D03*
G54D204*
X582930Y882650D03*
X603250D03*
X768350Y844550D03*
X788670D03*
G54D403*
X419100Y685800D03*
X825500Y774700D03*
Y558800D03*
G54D205*
X342900Y762000D03*
Y736600D03*
Y711200D03*
Y685800D03*
X419100Y711200D03*
Y736600D03*
Y762000D03*
X749300Y482600D03*
X774700D03*
X800100D03*
Y558800D03*
X774700D03*
X749300D03*
X800100Y774700D03*
X774700D03*
X749300D03*
Y698500D03*
X774700D03*
X800100D03*
X825500D03*
Y482600D03*
G54D100*
X356870Y728980D02*
Y788670D01*
X327660Y751840D02*
Y769620D01*
X356870Y728980D02*
X374650Y711200D01*
X304800Y792480D02*
X327660Y769620D01*
Y751840D02*
X342900Y736600D01*
X304800Y792480D02*
Y909320D01*
X355600Y876300D02*
X381000D01*
X317500Y901700D02*
X330200D01*
X309880Y914400D02*
X326390D01*
X356870Y788670D02*
X381000Y812800D01*
X330200Y901700D02*
X406400Y977900D01*
X304800Y909320D02*
X309880Y914400D01*
X326390D02*
X355600Y943610D01*
Y977900D01*
X457200Y806450D02*
Y825500D01*
X435610Y821690D02*
X441960D01*
X381000Y876300D02*
X435610Y821690D01*
X406400Y876300D02*
X457200Y825500D01*
X441960Y791210D02*
X477520Y755650D01*
X406400Y647700D02*
Y711200D01*
X438150Y654050D02*
Y717550D01*
X374650Y711200D02*
X419100D01*
X477520Y755650D02*
X501650D01*
X419100Y736600D02*
X438150Y717550D01*
X406400Y596900D02*
Y622300D01*
X459740Y543560D02*
Y558800D01*
X447040Y571500D02*
Y591820D01*
X375920Y525780D02*
Y571500D01*
X457200Y628650D02*
X488950D01*
X419100Y558800D02*
X444500D01*
X463550Y577850D02*
X488950D01*
X471170Y615950D02*
X506730D01*
X401320Y596900D02*
X406400D01*
X438150Y654050D02*
X488950D01*
X406400Y571500D02*
X419100Y558800D01*
X447040Y571500D02*
X459740Y558800D01*
Y574040D02*
X463550Y577850D01*
X447040Y591820D02*
X471170Y615950D01*
X375920Y571500D02*
X401320Y596900D01*
X406400Y622300D02*
X438150Y654050D01*
X425450Y318770D02*
Y419100D01*
X457200Y476250D02*
Y495300D01*
X472440Y402590D02*
Y480060D01*
X499110D01*
X375920Y525780D02*
X393700Y508000D01*
X438150Y368300D02*
X472440Y402590D01*
X425450Y444500D02*
X457200Y476250D01*
X472440Y295910D02*
Y311150D01*
X454660Y313690D02*
Y356870D01*
X461010Y322580D02*
Y341630D01*
X472440Y326390D02*
X499110D01*
X461010Y283210D02*
X478790D01*
X472440Y312420D02*
X500380D01*
X425450Y318770D02*
X461010Y283210D01*
X463550Y320040D02*
X472440Y311150D01*
X454660Y313690D02*
X457200Y311150D01*
X461010Y322580D02*
X463550Y320040D01*
X478790Y283210D02*
X485140Y289560D01*
X454660Y356870D02*
X494030Y396240D01*
X461010Y341630D02*
X514350Y394970D01*
X485140Y289560D02*
Y297180D01*
X514350Y341630D02*
Y368300D01*
X494030Y396240D02*
Y453390D01*
Y306070D02*
X509270D01*
Y321310D02*
X541020D01*
X551180Y311150D02*
X558800D01*
X514350Y394970D02*
X532130D01*
X541020Y321310D02*
X551180Y311150D01*
X485140Y297180D02*
X494030Y306070D01*
X509270D02*
X514350Y311150D01*
X500380Y312420D02*
X509270Y321310D01*
X499110Y326390D02*
X514350Y341630D01*
Y368300D02*
X558800Y412750D01*
X532130Y394970D02*
X543560Y406400D01*
X584200Y311150D02*
X596900Y323850D01*
X488950Y480060D02*
Y577850D01*
X514350Y473710D02*
Y495300D01*
X527050Y419100D02*
Y444500D01*
X565150Y457200D02*
Y482600D01*
X590550Y508000D02*
Y552450D01*
X543560Y406400D02*
Y486410D01*
X558800Y412750D02*
X584200D01*
X499110Y510540D02*
X537210D01*
X579120Y552450D01*
X494030Y453390D02*
X514350Y473710D01*
X565150Y482600D02*
X590550Y508000D01*
X543560Y486410D02*
X565150Y508000D01*
X584200Y412750D02*
X594360Y422910D01*
X590550Y628650D02*
Y654050D01*
X579120Y552450D02*
X590550D01*
X527050Y577850D02*
X590550D01*
X501650Y603250D02*
X527050Y577850D01*
X590550Y628650D02*
X612140Y607060D01*
X506730Y615950D02*
X570230Y679450D01*
X567690Y706120D02*
Y726440D01*
X511810Y715010D02*
Y745490D01*
X570230Y679450D02*
X615950D01*
X590550Y704850D02*
X599440D01*
X580390Y693420D02*
X617220D01*
X488950Y781050D02*
X513080D01*
X541020D02*
X666750D01*
X488950Y704850D02*
X501650D01*
X567690Y706120D02*
X580390Y693420D01*
X513080Y781050D02*
X567690Y726440D01*
X515620Y806450D02*
X541020Y781050D01*
X501650Y755650D02*
X511810Y745490D01*
X590550Y730250D02*
X615950Y755650D01*
X590550D02*
X596900Y762000D01*
X501650Y704850D02*
X511810Y715010D01*
X488950Y806450D02*
X515620D01*
X590550D02*
X598170Y798830D01*
X590550Y831850D02*
X614680Y855980D01*
X586740Y949960D02*
X662940D01*
X577850Y958850D02*
X586740Y949960D01*
X626110Y897890D02*
Y949960D01*
X647700Y965200D02*
X730250D01*
X679450Y996950D02*
X711200D01*
X662940Y949960D02*
X711200Y901700D01*
X662940Y980440D02*
X679450Y996950D01*
X614680Y855980D02*
Y877570D01*
X618490Y897890D02*
X626110D01*
X619760Y882650D02*
X641350D01*
X688340Y825500D02*
X726440D01*
X681990Y811530D02*
X760730D01*
X598170Y798830D02*
X750570D01*
X626110Y867410D02*
X681990Y811530D01*
X666750Y847090D02*
X688340Y825500D01*
X603250Y882650D02*
X618490Y897890D01*
X614680Y877570D02*
X619760Y882650D01*
X647700Y692150D02*
Y723900D01*
X685800Y762000D02*
Y774700D01*
X636270Y674370D02*
X712470D01*
X628650Y666750D02*
X768350D01*
X640080Y745490D02*
X835660D01*
X615950Y755650D02*
X806450D01*
X596900Y762000D02*
X787400D01*
X615950Y679450D02*
X628650Y666750D01*
X617220Y693420D02*
X636270Y674370D01*
X599440Y704850D02*
X640080Y745490D01*
X612140Y552450D02*
Y607060D01*
X628650Y520700D02*
Y535940D01*
X685800Y584200D02*
Y605790D01*
X641350Y584200D02*
X685800D01*
X654050Y622300D02*
X723900D01*
X612140Y552450D02*
X628650Y535940D01*
X685800Y584200D02*
X774700Y495300D01*
X628650Y571500D02*
X641350Y584200D01*
X647700Y615950D02*
X654050Y622300D01*
X594360Y422910D02*
Y468630D01*
X615950Y426720D02*
Y463550D01*
X609600Y412750D02*
Y420370D01*
X660400Y482600D02*
Y488950D01*
X604520Y478790D02*
X631190D01*
Y448310D02*
X685800D01*
X715010Y419100D01*
X628650Y520700D02*
X660400Y488950D01*
X594360Y468630D02*
X604520Y478790D01*
X609600Y420370D02*
X615950Y426720D01*
X596900Y323850D02*
X641350D01*
X812800Y519430D02*
Y584200D01*
X800100Y448310D02*
Y482600D01*
X774700D02*
Y495300D01*
X749300Y457200D02*
Y482600D01*
X715010Y419100D02*
X843280D01*
X812800Y519430D02*
X838200Y494030D01*
X800100Y448310D02*
X822960Y425450D01*
X736600Y444500D02*
X749300Y457200D01*
X800100Y558800D02*
Y596900D01*
X723900D02*
X736600D01*
X774700Y558800D01*
X812800Y584200D02*
X875030Y646430D01*
X800100Y596900D02*
X825500Y622300D01*
X774700Y698500D02*
Y745490D01*
X736600Y698500D02*
X749300D01*
X750570Y798830D02*
X774700Y774700D01*
X768350Y666750D02*
X800100Y698500D01*
X806450Y755650D02*
X825500Y774700D01*
X787400Y762000D02*
X800100Y774700D01*
X712470Y674370D02*
X736600Y698500D01*
X730250Y844550D02*
Y889000D01*
X800100Y855980D02*
Y857250D01*
X711200Y895350D02*
Y901700D01*
X756920Y840740D02*
Y890270D01*
X745490Y844550D02*
Y859790D01*
X800100Y857250D02*
X838200D01*
X779780Y792480D02*
X850900D01*
X762000Y895350D02*
X800100Y857250D01*
X760730Y811530D02*
X779780Y792480D01*
X730250Y889000D02*
X736600Y895350D01*
X788670Y844550D02*
X800100Y855980D01*
X745490Y829310D02*
X756920Y840740D01*
Y890270D02*
X762000Y895350D01*
X726440Y825500D02*
X745490Y844550D01*
X730250Y965200D02*
X762000Y996950D01*
X850900Y792480D02*
X875030Y768350D01*
Y646430D02*
Y768350D01*
X857250Y679450D02*
Y723900D01*
X835660Y745490D02*
X857250Y723900D01*
X825500Y647700D02*
X857250Y679450D01*
X825500Y622300D02*
Y647700D01*
Y546100D02*
Y558800D01*
Y546100D02*
X882650Y488950D01*
X838200Y444500D02*
Y494030D01*
X857250Y441960D02*
Y476250D01*
X882650Y458470D02*
Y488950D01*
X822960Y425450D02*
X840740D01*
X843280Y419100D02*
X882650Y458470D01*
X840740Y425450D02*
X857250Y441960D01*
G54D101*
X266700Y406400D02*
Y850900D01*
Y406400D02*
X317500Y355600D01*
X266700Y438150D02*
X311150D01*
X266700Y481330D02*
X407670D01*
X266700Y571500D02*
X304800D01*
X267970Y546100D02*
X317500D01*
X266700Y547370D02*
X267970Y546100D01*
X285750Y730250D02*
Y951230D01*
X304800Y711200D02*
X342900D01*
X285750Y730250D02*
X304800Y711200D01*
X330200Y868680D02*
Y882650D01*
X347980Y850900D02*
X381000D01*
X347980Y900430D02*
X462280D01*
X330200Y868680D02*
X347980Y850900D01*
X330200Y882650D02*
X347980Y900430D01*
X317500Y927100D02*
Y963930D01*
X361950Y1008380D02*
X520700D01*
X356870Y1022350D02*
X793750D01*
X317500Y963930D02*
X361950Y1008380D01*
X285750Y951230D02*
X356870Y1022350D01*
X381000Y977900D02*
Y1008380D01*
X438150Y977900D02*
Y1008380D01*
X462280Y900430D02*
Y1008380D01*
X419100Y762000D02*
Y812800D01*
X381000Y850900D02*
X419100Y812800D01*
X462280Y900430D02*
X488950Y873760D01*
X473710Y694690D02*
Y730250D01*
X450850D02*
X488950D01*
X473710Y694690D02*
X488950Y679450D01*
X419100Y762000D02*
X450850Y730250D01*
X436880Y510540D02*
X472440D01*
X407670Y481330D02*
X436880Y510540D01*
X499110Y295910D02*
X843280D01*
X488950Y831850D02*
Y873760D01*
X520700Y944880D02*
X582930Y882650D01*
X520700Y944880D02*
Y1008380D01*
Y984250D02*
X577850D01*
X609600Y295910D02*
Y311150D01*
X673100Y295910D02*
Y323850D01*
X717550Y295910D02*
Y330200D01*
X819150Y311150D02*
X820420Y309880D01*
X817880Y295910D02*
X820420Y298450D01*
X768350Y830580D02*
Y844550D01*
X784860Y814070D02*
X910590D01*
X793750Y1022350D02*
X910590Y905510D01*
X768350Y830580D02*
X784860Y814070D01*
X736600Y996950D02*
Y1022350D01*
X910590Y363220D02*
Y905510D01*
X838200Y814070D02*
Y831850D01*
X857250Y577850D02*
X908050D01*
X910590Y575310D01*
X820420Y298450D02*
Y309880D01*
X843280Y295910D02*
X910590Y363220D01*
G54D206*
X266700Y850900D03*
X370840D03*
X666750Y781050D03*
Y847090D03*
X685800Y774700D03*
Y605790D03*
G54D102*
X927100Y273050D02*
X254000D01*
Y1041400D01*
X927100D01*
Y273050D01*
G54D100*
X257387Y186690D02*
Y217170D01*
Y213783D01*
X260773Y217170D01*
X270933D01*
X274320Y213783D01*
Y200237D01*
X270933Y196850D01*
X260773D01*
X257387Y200237D01*
X287867Y196850D02*
Y217170D01*
Y213783D01*
X291253Y217170D01*
X301413D01*
X304800Y213783D01*
X335280Y200237D02*
X331893Y196850D01*
X321733D01*
X318347Y200237D01*
Y213783D01*
X321733Y217170D01*
X331893D01*
X335280Y213783D01*
Y210397D01*
X331893Y207010D01*
X318347D01*
X365760Y217170D02*
Y196850D01*
Y200237D01*
X362373Y196850D01*
X352213D01*
X348827Y200237D01*
Y213783D01*
X352213Y217170D01*
X362373D01*
X365760Y213783D01*
X375920Y196850D02*
Y217170D01*
X382693D01*
X386080Y213783D01*
X389467Y217170D01*
X392853D01*
X396240Y213783D01*
Y196850D01*
X386080Y213783D02*
Y200237D01*
X409787Y186690D02*
Y217170D01*
Y213783D01*
X413173Y217170D01*
X423333D01*
X426720Y213783D01*
Y200237D01*
X423333Y196850D01*
X413173D01*
X409787Y200237D01*
X254000Y176530D02*
Y146050D01*
X274320D01*
X304800Y166370D02*
Y146050D01*
Y149437D01*
X301413Y146050D01*
X291253D01*
X287867Y149437D01*
Y162983D01*
X291253Y166370D01*
X301413D01*
X304800Y162983D01*
X318347Y166370D02*
Y149437D01*
X321733Y146050D01*
X335280D01*
Y166370D01*
Y139277D01*
X331893Y135890D01*
X321733D01*
X365760Y149437D02*
X362373Y146050D01*
X352213D01*
X348827Y149437D01*
Y162983D01*
X352213Y166370D01*
X362373D01*
X365760Y162983D01*
Y159597D01*
X362373Y156210D01*
X348827D01*
X379307Y146050D02*
Y166370D01*
Y162983D01*
X382693Y166370D01*
X392853D01*
X396240Y162983D01*
X436880Y173143D02*
X440267Y176530D01*
X450427D01*
X453813Y173143D01*
Y169757D01*
X436880Y152823D01*
Y146050D01*
X453813D01*
X511387Y176530D02*
X504613Y169757D01*
Y152823D01*
X511387Y146050D01*
X528320Y176530D02*
X545253D01*
X548640Y173143D01*
Y166370D01*
X545253Y162983D01*
X531707D01*
X545253D01*
X548640Y159597D01*
Y149437D01*
X545253Y146050D01*
X528320D01*
X531707D02*
Y176530D01*
X562187Y149437D02*
Y162983D01*
X565573Y166370D01*
X575733D01*
X579120Y162983D01*
Y149437D01*
X575733Y146050D01*
X565573D01*
X562187Y149437D01*
X599440Y173143D02*
Y149437D01*
X602827Y146050D01*
X592667Y166370D02*
X606213D01*
X629920Y173143D02*
Y149437D01*
X633307Y146050D01*
X623147Y166370D02*
X636693D01*
X653627Y149437D02*
Y162983D01*
X657013Y166370D01*
X667173D01*
X670560Y162983D01*
Y149437D01*
X667173Y146050D01*
X657013D01*
X653627Y149437D01*
X680720Y146050D02*
Y166370D01*
X687493D01*
X690880Y162983D01*
X694267Y166370D01*
X697653D01*
X701040Y162983D01*
Y146050D01*
X690880Y162983D02*
Y149437D01*
X721360Y176530D02*
X728133Y169757D01*
Y152823D01*
X721360Y146050D01*
X254000Y95250D02*
Y115570D01*
X264160Y125730D01*
X274320Y115570D01*
Y108797D01*
X254000D01*
X274320D01*
Y95250D01*
X287867Y85090D02*
Y115570D01*
Y112183D01*
X291253Y115570D01*
X301413D01*
X304800Y112183D01*
Y98637D01*
X301413Y95250D01*
X291253D01*
X287867Y98637D01*
X318347Y95250D02*
Y115570D01*
Y112183D01*
X321733Y115570D01*
X331893D01*
X335280Y112183D01*
X355600Y122343D02*
D01*
Y115570D02*
Y95250D01*
X386080Y125730D02*
Y95250D01*
X382693D02*
X389467D01*
X440267Y118957D02*
X447040Y125730D01*
Y95250D01*
X440267D01*
X453813D01*
X480907Y112183D02*
X470747D01*
X467360Y115570D01*
Y122343D01*
X470747Y125730D01*
X480907D01*
X484293Y122343D01*
Y115570D01*
X480907Y112183D01*
X484293Y108797D01*
Y98637D01*
X480907Y95250D01*
X470747D01*
X467360Y98637D01*
Y108797D01*
X470747Y112183D01*
X508000Y88477D02*
X511387Y91863D01*
Y98637D01*
X508000D01*
Y95250D01*
X511387D01*
X558800Y122343D02*
X562187Y125730D01*
X572347D01*
X575733Y122343D01*
Y118957D01*
X558800Y102023D01*
Y95250D01*
X575733D01*
X609600Y122343D02*
Y98637D01*
X606213Y95250D01*
X592667D01*
X589280Y98637D01*
Y122343D01*
X592667Y125730D01*
X606213D01*
X609600Y122343D01*
Y118957D01*
X589280Y98637D01*
X623147Y118957D02*
X629920Y125730D01*
Y95250D01*
X623147D01*
X636693D01*
X650240Y122343D02*
X653627Y125730D01*
X663787D01*
X667173Y122343D01*
Y118957D01*
X650240Y102023D01*
Y95250D01*
X667173D01*
X714587Y118957D02*
X721360Y125730D01*
Y95250D01*
X714587D01*
X728133D01*
X745067D02*
X751840D01*
X758613Y102023D01*
Y122343D01*
X755227Y125730D01*
X745067D01*
X741680Y122343D01*
Y115570D01*
X745067Y112183D01*
X758613D01*
X785707Y115570D02*
Y118957D01*
X782320D01*
Y115570D01*
X785707D01*
Y102023D02*
Y105410D01*
X782320D01*
Y102023D01*
X785707D01*
X802640Y122343D02*
X806027Y125730D01*
X816187D01*
X819573Y122343D01*
Y112183D01*
X809413D01*
X819573D01*
Y98637D01*
X816187Y95250D01*
X806027D01*
X802640Y98637D01*
X846667Y112183D02*
X836507D01*
X833120Y115570D01*
Y122343D01*
X836507Y125730D01*
X846667D01*
X850053Y122343D01*
Y115570D01*
X846667Y112183D01*
X850053Y108797D01*
Y98637D01*
X846667Y95250D01*
X836507D01*
X833120Y98637D01*
Y108797D01*
X836507Y112183D01*
X877147Y115570D02*
Y118957D01*
X873760D01*
Y115570D01*
X877147D01*
Y102023D02*
Y105410D01*
X873760D01*
Y102023D01*
X877147D01*
X914400Y122343D02*
Y98637D01*
X911013Y95250D01*
X897467D01*
X894080Y98637D01*
Y122343D01*
X897467Y125730D01*
X911013D01*
X914400Y122343D01*
Y118957D01*
X894080Y98637D01*
X938107Y125730D02*
X931333D01*
X924560Y118957D01*
Y98637D01*
X927947Y95250D01*
X938107D01*
X941493Y98637D01*
Y108797D01*
X938107Y112183D01*
X924560D01*
M02*
