M48
METRIC,TZ
T1C.711
T2C.914
T3C1.100
T4C1.016
T5C3.200
T6C.800
%
M47, File: preamp.ncd
M71
G90
G05
T1
X311150Y438150
X336550
X304800Y647700
Y596900
Y622300
X317500Y546100
X304800Y571500
X311150Y711200
Y762000
X317500Y901700
X355600Y876300
X317500Y927100
Y952500
X355600Y977900
X381000
X406400
X438150Y927100
Y977900
X441960Y791210
Y821690
X457200Y806450
X381000Y876300
X406400
X459740Y574040
Y543560
X444500Y558800
X406400Y647700
Y596900
Y622300
X393700Y546100
X406400Y571500
X425450Y444500
Y419100
X472440Y510540
Y480060
X457200Y495300
X472440Y326390
Y295910
X457200Y311150
X499110Y295910
Y326390
X514350Y311150
X558800
X584200
X527050Y444500
Y419100
X565150Y457200
Y482600
Y508000
X558800Y412750
X584200
X499110Y480060
Y510540
X514350Y495300
X577850Y603250
X501650
X590550Y628650
X488950
Y577850
X590550
X488950Y552450
X590550
X488950Y654050
X590550
X488950Y730250
X590550
X488950Y755650
X590550
X488950Y679450
X590550
X488950Y781050
X590550
X488950Y704850
X590550
X582930Y882650
X488950Y831850
X590550
Y806450
X488950
X577850Y984250
Y958850
X662940Y949960
X647700Y965200
X662940Y980440
X626110Y867410
Y897890
X641350Y882650
X603250
X685800Y584200
X628650Y571500
X660400Y584200
X631190Y478790
Y448310
X615950Y463550
X609600Y412750
X641350Y400050
X673100
X685800Y482600
X628650Y520700
X660400Y482600
X609600Y311150
X641350Y323850
X673100
X717550Y355600
Y330200
X736600Y444500
X723900Y622300
Y596900
Y647700
X745490Y859790
Y829310
X730250Y844550
X768350
X788670
X736600Y895350
X711200
X762000
X736600Y996950
X711200
X762000
X838200Y857250
Y831850
X857250Y723900
Y749300
X882650Y577850
X857250
X825500Y622300
Y596900
Y647700
X838200Y444500
X882650Y476250
X857250
T2
X317500Y508000
X304800Y812800
X381000
X393700Y508000
X438150Y368300
X514350
X647700Y692150
Y615950
T3
X317500Y355600
X457200Y679450
Y628650
X647700Y723900
X819150Y361950
Y311150
X717550Y723900
T4
X342900Y762000
Y736600
Y711200
Y685800
X419100
Y711200
Y736600
Y762000
X749300Y482600
X774700
X800100
Y558800
X774700
X749300
X800100Y774700
X774700
X749300
Y698500
X774700
X800100
X825500Y774700
Y698500
Y558800
Y482600
T5
X279400Y298450
Y1016000
X901700
Y298450
T6
X266700Y850900
X370840
X666750Y781050
Y847090
X685800Y774700
Y605790
M30
