G04 SilkscreenBottomRefs *
G04 Layout preamp.pcb *
G04 Designed with PCB elegance 3.50 *
G04 *
G04 *
%FSLAX34Y34*%
%MOMM*%
G75*
G01*
%IPPOS*%
%ADD100C,0.2032*%
%ADD101C,0.3048*%
G54D100*
X927100Y273050D02*
X254000D01*
Y1041400D01*
X927100D01*
Y273050D01*
G54D101*
X257387Y186690D02*
Y217170D01*
Y213783D01*
X260773Y217170D01*
X270933D01*
X274320Y213783D01*
Y200237D01*
X270933Y196850D01*
X260773D01*
X257387Y200237D01*
X287867Y196850D02*
Y217170D01*
Y213783D01*
X291253Y217170D01*
X301413D01*
X304800Y213783D01*
X335280Y200237D02*
X331893Y196850D01*
X321733D01*
X318347Y200237D01*
Y213783D01*
X321733Y217170D01*
X331893D01*
X335280Y213783D01*
Y210397D01*
X331893Y207010D01*
X318347D01*
X365760Y217170D02*
Y196850D01*
Y200237D01*
X362373Y196850D01*
X352213D01*
X348827Y200237D01*
Y213783D01*
X352213Y217170D01*
X362373D01*
X365760Y213783D01*
X375920Y196850D02*
Y217170D01*
X382693D01*
X386080Y213783D01*
X389467Y217170D01*
X392853D01*
X396240Y213783D01*
Y196850D01*
X386080Y213783D02*
Y200237D01*
X409787Y186690D02*
Y217170D01*
Y213783D01*
X413173Y217170D01*
X423333D01*
X426720Y213783D01*
Y200237D01*
X423333Y196850D01*
X413173D01*
X409787Y200237D01*
X254000Y149437D02*
X257387Y146050D01*
X270933D01*
X274320Y149437D01*
Y159597D01*
X270933Y162983D01*
X257387D01*
X254000Y166370D01*
Y173143D01*
X257387Y176530D01*
X270933D01*
X274320Y173143D01*
X294640D02*
D01*
Y166370D02*
Y146050D01*
X325120Y176530D02*
Y146050D01*
X321733D02*
X328507D01*
X348827Y176530D02*
Y146050D01*
X362373Y166370D02*
X352213Y156210D01*
X362373Y146050D02*
X348827Y159597D01*
X375920Y149437D02*
X379307Y146050D01*
X392853D01*
X396240Y149437D01*
Y152823D01*
X392853Y156210D01*
X379307D01*
X375920Y159597D01*
Y162983D01*
X379307Y166370D01*
X392853D01*
X396240Y162983D01*
X426720D02*
X423333Y166370D01*
X413173D01*
X409787Y162983D01*
Y149437D01*
X413173Y146050D01*
X423333D01*
X426720Y149437D01*
X440267Y146050D02*
Y166370D01*
Y162983D01*
X443653Y166370D01*
X453813D01*
X457200Y162983D01*
X487680Y149437D02*
X484293Y146050D01*
X474133D01*
X470747Y149437D01*
Y162983D01*
X474133Y166370D01*
X484293D01*
X487680Y162983D01*
Y159597D01*
X484293Y156210D01*
X470747D01*
X518160Y149437D02*
X514773Y146050D01*
X504613D01*
X501227Y149437D01*
Y162983D01*
X504613Y166370D01*
X514773D01*
X518160Y162983D01*
Y159597D01*
X514773Y156210D01*
X501227D01*
X531707Y146050D02*
Y166370D01*
Y162983D01*
X535093Y166370D01*
X545253D01*
X548640Y162983D01*
Y146050D01*
X592667Y176530D02*
Y146050D01*
X606213D01*
X609600Y149437D01*
Y159597D01*
X606213Y162983D01*
X592667D01*
X623147Y149437D02*
Y162983D01*
X626533Y166370D01*
X636693D01*
X640080Y162983D01*
Y149437D01*
X636693Y146050D01*
X626533D01*
X623147Y149437D01*
X660400Y173143D02*
Y149437D01*
X663787Y146050D01*
X653627Y166370D02*
X667173D01*
X690880Y173143D02*
Y149437D01*
X694267Y146050D01*
X684107Y166370D02*
X697653D01*
X714587Y149437D02*
Y162983D01*
X717973Y166370D01*
X728133D01*
X731520Y162983D01*
Y149437D01*
X728133Y146050D01*
X717973D01*
X714587Y149437D01*
X741680Y146050D02*
Y166370D01*
X748453D01*
X751840Y162983D01*
X755227Y166370D01*
X758613D01*
X762000Y162983D01*
Y146050D01*
X751840Y162983D02*
Y149437D01*
X816187Y176530D02*
X809413Y169757D01*
Y152823D01*
X816187Y146050D01*
X836507D02*
Y166370D01*
Y162983D01*
X839893Y166370D01*
X850053D01*
X853440Y162983D01*
X883920Y149437D02*
X880533Y146050D01*
X870373D01*
X866987Y149437D01*
Y162983D01*
X870373Y166370D01*
X880533D01*
X883920Y162983D01*
Y159597D01*
X880533Y156210D01*
X866987D01*
X911013Y173143D02*
X907627Y176530D01*
X900853D01*
X897467Y173143D01*
Y146050D01*
X894080Y162983D02*
X900853D01*
X894080Y146050D02*
X900853D01*
X924560Y149437D02*
X927947Y146050D01*
X941493D01*
X944880Y149437D01*
Y152823D01*
X941493Y156210D01*
X927947D01*
X924560Y159597D01*
Y162983D01*
X927947Y166370D01*
X941493D01*
X944880Y162983D01*
X965200Y176530D02*
X971973Y169757D01*
Y152823D01*
X965200Y146050D01*
X254000Y95250D02*
Y115570D01*
X264160Y125730D01*
X274320Y115570D01*
Y108797D01*
X254000D01*
X274320D01*
Y95250D01*
X287867Y85090D02*
Y115570D01*
Y112183D01*
X291253Y115570D01*
X301413D01*
X304800Y112183D01*
Y98637D01*
X301413Y95250D01*
X291253D01*
X287867Y98637D01*
X318347Y95250D02*
Y115570D01*
Y112183D01*
X321733Y115570D01*
X331893D01*
X335280Y112183D01*
X355600Y122343D02*
D01*
Y115570D02*
Y95250D01*
X386080Y125730D02*
Y95250D01*
X382693D02*
X389467D01*
X440267Y118957D02*
X447040Y125730D01*
Y95250D01*
X440267D01*
X453813D01*
X480907Y112183D02*
X470747D01*
X467360Y115570D01*
Y122343D01*
X470747Y125730D01*
X480907D01*
X484293Y122343D01*
Y115570D01*
X480907Y112183D01*
X484293Y108797D01*
Y98637D01*
X480907Y95250D01*
X470747D01*
X467360Y98637D01*
Y108797D01*
X470747Y112183D01*
X508000Y88477D02*
X511387Y91863D01*
Y98637D01*
X508000D01*
Y95250D01*
X511387D01*
X558800Y122343D02*
X562187Y125730D01*
X572347D01*
X575733Y122343D01*
Y118957D01*
X558800Y102023D01*
Y95250D01*
X575733D01*
X609600Y122343D02*
Y98637D01*
X606213Y95250D01*
X592667D01*
X589280Y98637D01*
Y122343D01*
X592667Y125730D01*
X606213D01*
X609600Y122343D01*
Y118957D01*
X589280Y98637D01*
X623147Y118957D02*
X629920Y125730D01*
Y95250D01*
X623147D01*
X636693D01*
X650240Y122343D02*
X653627Y125730D01*
X663787D01*
X667173Y122343D01*
Y118957D01*
X650240Y102023D01*
Y95250D01*
X667173D01*
X714587Y118957D02*
X721360Y125730D01*
Y95250D01*
X714587D01*
X728133D01*
X745067D02*
X751840D01*
X758613Y102023D01*
Y122343D01*
X755227Y125730D01*
X745067D01*
X741680Y122343D01*
Y115570D01*
X745067Y112183D01*
X758613D01*
X785707Y115570D02*
Y118957D01*
X782320D01*
Y115570D01*
X785707D01*
Y102023D02*
Y105410D01*
X782320D01*
Y102023D01*
X785707D01*
X802640Y122343D02*
X806027Y125730D01*
X816187D01*
X819573Y122343D01*
Y112183D01*
X809413D01*
X819573D01*
Y98637D01*
X816187Y95250D01*
X806027D01*
X802640Y98637D01*
X846667Y112183D02*
X836507D01*
X833120Y115570D01*
Y122343D01*
X836507Y125730D01*
X846667D01*
X850053Y122343D01*
Y115570D01*
X846667Y112183D01*
X850053Y108797D01*
Y98637D01*
X846667Y95250D01*
X836507D01*
X833120Y98637D01*
Y108797D01*
X836507Y112183D01*
X877147Y115570D02*
Y118957D01*
X873760D01*
Y115570D01*
X877147D01*
Y102023D02*
Y105410D01*
X873760D01*
Y102023D01*
X877147D01*
X914400Y122343D02*
Y98637D01*
X911013Y95250D01*
X897467D01*
X894080Y98637D01*
Y122343D01*
X897467Y125730D01*
X911013D01*
X914400Y122343D01*
Y118957D01*
X894080Y98637D01*
X938107Y125730D02*
X931333D01*
X924560Y118957D01*
Y98637D01*
X927947Y95250D01*
X938107D01*
X941493Y98637D01*
Y108797D01*
X938107Y112183D01*
X924560D01*
M02*
